SplineFontDB: 3.0
FontName: Coda-Heavy
FullName: Coda Heavy
FamilyName: Koda Heavy Heavy
Weight: Black
Copyright: Copyright (c) 2009-12 by vernon adams. All rights reserved.
Version: 1.000;PS 001.001;hotconv 1.0.56
ItalicAngle: 0
UnderlinePosition: 0
UnderlineWidth: 0
Ascent: 1638
Descent: 410
UFOAscent: 1710
UFODescent: -408
LayerCount: 2
Layer: 0 0 "Back"  1
Layer: 1 0 "Fore"  0
FSType: 512
OS2Version: 0
OS2_WeightWidthSlopeOnly: 0
OS2_UseTypoMetrics: 0
CreationTime: 1354237533
ModificationTime: 1354237621
PfmFamily: 0
TTFWeight: 900
TTFWidth: 1
LineGap: 0
VLineGap: 0
Panose: 2 0 5 5 2 0 0 2 0 4
OS2TypoAscent: 0
OS2TypoAOffset: 1
OS2TypoDescent: 0
OS2TypoDOffset: 1
OS2TypoLinegap: 0
OS2WinAscent: 1710
OS2WinAOffset: 0
OS2WinDescent: 408
OS2WinDOffset: 0
HheadAscent: 1638
HheadAOffset: 0
HheadDescent: 410
HheadDOffset: 0
OS2SubXSize: 1331
OS2SubYSize: 1228
OS2SubXOff: 0
OS2SubYOff: 153
OS2SupXSize: 1331
OS2SupYSize: 1228
OS2SupXOff: 0
OS2SupYOff: 716
OS2StrikeYSize: 102
OS2StrikeYPos: 780
OS2Vendor: 'newt'
OS2CodePages: 00000093.00000001
OS2UnicodeRanges: 00000007.00000000.00000000.00000000
Lookup: 258 0 0 "'kern' Horizontal Kerning in Latin lookup 0"  {"'kern' Horizontal Kerning in Latin lookup 0 subtable"  } ['kern' ('latn' <'dflt' > ) ]
DEI: 91125
LangName: 1033 "" "" "" "1.000;;Coda-Heavy" "" "Version 1.000;PS 001.001;hotconv 1.0.56" "" "Coda Heavy is a trademark of vernon adams." "vernon adams" "vernon adams" "Copyright (c) 2009 by vernon adams. All rights reserved." "newtypography.co.uk" "newtypography.co.uk" "SIL Open Font License (OFL)" "http://scripts.sil.org/cms/scripts/page.php?item_id+AD0A-OFL_web" 
PickledData: "(dp1
S'com.typemytype.robofont.foreground.layerStrokeColor'
p2
(F0.5
F0
F0.5
F0.69999999999999996
tp3
sS'public.glyphOrder'
p4
(S'space'
S'exclam'
S'quotedbl'
S'numbersign'
S'dollar'
S'percent'
S'ampersand'
S'parenleft'
S'parenright'
S'asterisk'
S'plus'
S'comma'
S'hyphen'
S'period'
S'slash'
S'zero'
S'one'
S'two'
S'three'
S'four'
S'five'
S'six'

StartChar: A
Encoding: 65 65 1
Width: 1640
VWidth: 0
Flags: HW
PickledData: "(dp1
S'com.typemytype.robofont.layerData'
p2
(dp3
s."
LayerCount: 2
Fore
SplineSet
902 615 m 2
 903 606 904 599 904 594 c 0
 904 578 897 576 869 576 c 2
 771 576 l 2
 743 576 735 578 735 595 c 0
 735 600 736 607 737 615 c 2
 785 1085 l 1
 807 1265 l 2
 808 1271 813 1273 818 1273 c 0
 823 1273 828 1271 828 1265 c 2
 852 1085 l 1
 902 615 l 2
669 75 m 2
 704 327 l 2
 710 365 704 366 743 366 c 2
 897 366 l 2
 936 366 930 365 936 327 c 2
 970 75 l 2
 977 27 1008 0 1057 0 c 2
 1492 0 l 2
 1532 0 1556 23 1556 58 c 0
 1556 63 1532 496 1325 1520 c 0
 1315 1569 1284 1595 1235 1595 c 2
 400 1595 l 2
 351 1595 320 1570 310 1520 c 0
 106 487 84 64 84 58 c 0
 84 23 108 0 148 0 c 2
 582 0 l 2
 631 0 662 27 669 75 c 2
EndSplineSet
EndChar

StartChar: AE
Encoding: 198 198 2
Width: 2011
VWidth: 0
Flags: HW
PickledData: "(dp1
S'com.typemytype.robofont.layerData'
p2
(dp3
s."
LayerCount: 2
Fore
SplineSet
748.887 1595 m 2
 698.699 1595 663.494 1571.12 644.931 1524.49 c 2
 66.0695 70.5052 l 2
 50.2178 30.6888 71.0315 0 113.887 0 c 2
 587.113 0 l 2
 636.954 0 670.915 24.8145 686.061 72.2986 c 2
 755.89 291.223 l 2
 767.784 328.513 794.455 348 833.596 348 c 2
 927.404 348 l 2
 964.754 348 987.16 325.754 987.428 288.406 c 2
 988.955 75.8854 l 2
 989.297 28.327 1017.83 0 1065.39 0 c 2
 1870.11 0 l 2
 1917.6 0 1946 28.3951 1946 75.8854 c 2
 1946 168.113 l 2
 1946 215.603 1917.6 244 1870.11 244 c 2
 1664.6 244 l 2
 1627.3 244 1605 266.301 1605 303.596 c 2
 1605 651.404 l 2
 1605 688.699 1627.3 711 1664.6 711 c 2
 1847.11 711 l 2
 1894.6 711 1923 739.397 1923 786.887 c 2
 1923 885.113 l 2
 1923 932.603 1894.6 961 1847.11 961 c 2
 1664.6 961 l 2
 1627.3 961 1605 983.301 1605 1020.6 c 2
 1605 1294.4 l 2
 1605 1331.7 1627.3 1354 1664.6 1354 c 2
 1870.11 1354 l 2
 1917.6 1354 1946 1382.4 1946 1429.89 c 2
 1946 1519.11 l 2
 1946 1566.6 1917.6 1595 1870.11 1595 c 2
 748.887 1595 l 2
968.275 944.423 m 2
 973.933 961.52 987 959.414 987 941.404 c 2
 987 637.596 l 2
 987 600.301 964.699 578 927.404 578 c 2
 906.596 578 l 2
 872.268 578 854.94 601.989 865.725 634.577 c 2
 968.275 944.423 l 2
EndSplineSet
EndChar

StartChar: B
Encoding: 66 66 12
Width: 1666
VWidth: 0
Flags: HW
PickledData: "(dp1
S'com.typemytype.robofont.layerData'
p2
(dp3
s."
LayerCount: 2
Fore
SplineSet
1035 0 m 2
 1424 0 1579 91 1579 460 c 0
 1579 647 1541 812 1233 875 c 1
 1501 911 1538 1019 1538 1219 c 0
 1538 1551 1299 1595 1039 1595 c 2
 241 1595 l 2
 193 1595 169 1567 165 1519 c 0
 149 1300 140 1062 140 818 c 0
 140 574 149 323 165 76 c 0
 168 31 193 0 241 0 c 2
 1035 0 l 2
809 905 m 2
 771 905 769 907 769 945 c 2
 769 1242 l 2
 769 1280 771 1282 809 1282 c 2
 909 1282 l 2
 947 1282 969 1260 969 1222 c 2
 969 965 l 2
 969 927 947 905 909 905 c 2
 809 905 l 2
809 315 m 2
 771 315 769 317 769 355 c 2
 769 710 l 2
 769 748 771 750 809 750 c 2
 909 750 l 2
 947 750 969 728 969 690 c 2
 969 375 l 2
 969 337 947 315 909 315 c 2
 809 315 l 2
EndSplineSet
EndChar

StartChar: C
Encoding: 67 67 13
Width: 1692
VWidth: 0
Flags: HW
PickledData: "(dp1
S'com.typemytype.robofont.layerData'
p2
(dp3
s."
LayerCount: 2
Fore
SplineSet
981 568 m 0
 978 295 961.567 315 866 315 c 2
 830 315 l 2
 728 315 727 314 727 796 c 0
 727 1240 728 1282 830 1282 c 2
 866 1282 l 2
 962.895 1282 979 1267 981 1018 c 0
 981 970 1005 922 1091 922 c 2
 1489 922 l 2
 1561 922 1583 958 1583 1010 c 1
 1554 1603 1365.78 1631 843 1631 c 0
 242 1631 105 1568 105 805 c 0
 105 19 223 -39 843 -39 c 0
 1391.55 -39 1558 -29 1583 575 c 1
 1583 619 1563 670 1493 670 c 2
 1084 670 l 2
 1015 670 981 616 981 568 c 0
EndSplineSet
EndChar

StartChar: D
Encoding: 68 68 19
Width: 1751
VWidth: 0
Flags: HW
PickledData: "(dp1
S'com.typemytype.robofont.layerData'
p2
(dp3
s."
LayerCount: 2
Fore
SplineSet
774 1242 m 2
 774 1280 776 1282 814 1282 c 2
 909 1282 l 2
 947 1282 1001 1259 1006 1222 c 0
 1022 1117 1030 962 1030 804 c 0
 1030 649 1022 491 1006 374 c 0
 1001 338 947 314 909 314 c 2
 814 314 l 2
 776 314 774 316 774 354 c 2
 774 1242 l 2
240 1595 m 2
 192 1595 168 1567 164 1519 c 0
 141 1259 140 1018 140 783 c 0
 140 547 141 316 164 76 c 0
 169 29 192 0 240 0 c 2
 983 0 l 2
 1294 0 1556 34 1609 393 c 0
 1628 519 1637 657 1637 797 c 0
 1637 936 1628 1076 1609 1204 c 0
 1559 1549 1299 1595 983 1595 c 2
 240 1595 l 2
EndSplineSet
EndChar

StartChar: Dcroat
Encoding: 272 272 21
Width: 1449
VWidth: 0
Flags: HW
PickledData: "(dp1
S'com.typemytype.robofont.layerData'
p2
(dp3
s."
LayerCount: 2
Fore
SplineSet
645 1298.4 m 2
 645 1335.7 667.301 1358 704.596 1358 c 2
 821.404 1358 l 2
 858.699 1358 881 1335.7 881 1298.4 c 2
 881 296.596 l 2
 881 259.301 858.699 237 821.404 237 c 2
 704.596 237 l 2
 667.301 237 645 259.301 645 296.596 c 2
 645 726 l 1
 703 726 l 2
 746.806 726 773 752.194 773 796 c 2
 773 798 l 2
 773 841.806 746.806 868 703 868 c 2
 645 868 l 1
 645 1298.4 l 2
1378 1204 m 2
 1378 1231 1377 1259 1375 1289 c 0
 1368 1412 1305 1484 1211 1529 c 0
 1110 1578 980 1595 817 1595 c 2
 221.887 1595 l 2
 174.397 1595 146 1566.6 146 1519.11 c 2
 146 868 l 1
 122 868 l 2
 78.1939 868 52 841.806 52 798 c 2
 52 796 l 2
 52 752.194 78.1939 726 122 726 c 2
 146 726 l 1
 146 75.8873 l 2
 146 28.397 174.397 0 221.887 0 c 2
 817 0 l 2
 980 0 1110 17 1210 66 c 0
 1330.97 124.986 1375.98 217.955 1376 391.873 c 0
 1376 391.941 1376.05 392.026 1376.11 392.053 c 2
 1377.89 392.947 l 2
 1377.95 392.974 1378 393.059 1378 393.118 c 2
 1378 1204 l 2
EndSplineSet
EndChar

StartChar: E
Encoding: 69 69 22
Width: 1191
VWidth: 0
Flags: HW
PickledData: "(dp1
S'com.typemytype.robofont.layerData'
p2
(dp3
s."
LayerCount: 2
Fore
SplineSet
235 1595 m 2
 187 1595 162 1565 159 1519 c 0
 148 1366 140 1112 140 836 c 0
 140 581 147 307 159 76 c 0
 162 28 187 0 235 0 c 2
 1037 0 l 2
 1085 0 1113 28 1113 76 c 2
 1113 175 l 2
 1113 223 1085 251 1037 251 c 2
 832 251 l 2
 794 251 772 273 772 311 c 2
 772 651 l 2
 772 689 794 711 832 711 c 2
 1014 711 l 2
 1062 711 1090 739 1090 787 c 2
 1090 885 l 2
 1090 933 1062 961 1014 961 c 2
 832 961 l 2
 794 961 772 983 772 1021 c 2
 772 1286 l 2
 772 1324 794 1346 832 1346 c 2
 1037 1346 l 2
 1085 1346 1113 1374 1113 1422 c 2
 1113 1519 l 2
 1113 1567 1085 1595 1037 1595 c 2
 235 1595 l 2
EndSplineSet
EndChar

StartChar: Eth
Encoding: 208 208 31
Width: 1449
VWidth: 0
Flags: HW
PickledData: "(dp1
S'com.typemytype.robofont.layerData'
p2
(dp3
s."
LayerCount: 2
Fore
SplineSet
645 1298.4 m 2
 645 1335.7 667.301 1358 704.596 1358 c 2
 821.404 1358 l 2
 858.699 1358 881 1335.7 881 1298.4 c 2
 881 296.596 l 2
 881 259.301 858.699 237 821.404 237 c 2
 704.596 237 l 2
 667.301 237 645 259.301 645 296.596 c 2
 645 726 l 1
 703 726 l 2
 746.806 726 773 752.194 773 796 c 2
 773 798 l 2
 773 841.806 746.806 868 703 868 c 2
 645 868 l 1
 645 1298.4 l 2
1378 1204 m 2
 1378 1231 1377 1259 1375 1289 c 0
 1368 1412 1305 1484 1211 1529 c 0
 1110 1578 980 1595 817 1595 c 2
 221.887 1595 l 2
 174.397 1595 146 1566.6 146 1519.11 c 2
 146 868 l 1
 122 868 l 2
 78.1939 868 52 841.806 52 798 c 2
 52 796 l 2
 52 752.194 78.1939 726 122 726 c 2
 146 726 l 1
 146 75.8873 l 2
 146 28.397 174.397 0 221.887 0 c 2
 817 0 l 2
 980 0 1110 17 1210 66 c 0
 1330.97 124.986 1375.98 217.955 1376 391.873 c 0
 1376 391.941 1376.05 392.026 1376.11 392.053 c 2
 1377.89 392.947 l 2
 1377.95 392.974 1378 393.059 1378 393.118 c 2
 1378 1204 l 2
EndSplineSet
EndChar

StartChar: Euro
Encoding: 8364 8364 32
Width: 1432
VWidth: 0
Flags: HW
PickledData: "(dp1
S'com.typemytype.robofont.layerData'
p2
(dp3
s."
LayerCount: 2
Fore
SplineSet
-8.08267e-15 605 m 2
 -8.08267e-15 577.465 16.4648 561 44 561 c 2
 46 561 l 2
 73.5352 561 90 544.535 90 517 c 2
 90 370 l 2
 90 -9 511 -40 786 -40 c 0
 1090 -40 1472 -6 1472 369 c 2
 1472 411 l 2
 1472 436.032 1457.03 451 1432 451 c 2
 943.887 451 l 2
 896.397 451 868 422.603 868 375.113 c 2
 868 292.596 l 2
 868 255.301 845.699 233 808.404 233 c 2
 754.596 233 l 2
 717.301 233 695 255.301 695 292.596 c 2
 695 501.404 l 2
 695 538.699 717.301 561 754.596 561 c 2
 965.5 561 l 2
 1010.24 561 1037 587.755 1037 632.5 c 2
 1037 634.5 l 2
 1037 679.245 1010.24 706 965.5 706 c 2
 754.596 706 l 2
 717.301 706 695 728.301 695 765.596 c 2
 695 783.404 l 2
 695 820.699 717.301 843 754.596 843 c 2
 965.5 843 l 2
 1010.24 843 1037 869.755 1037 914.5 c 2
 1037 916.5 l 2
 1037 961.245 1010.24 988 965.5 988 c 2
 754.596 988 l 2
 717.301 988 695 1010.3 695 1047.6 c 2
 695 1296.4 l 2
 695 1333.7 717.301 1356 754.596 1356 c 2
 808.404 1356 l 2
 845.699 1356 868 1333.7 868 1296.4 c 2
 868 1214.89 l 2
 868 1167.4 896.397 1139 943.887 1139 c 2
 1429 1139 l 2
 1455.91 1139 1472 1155.09 1472 1182 c 2
 1472 1227 l 2
 1472 1606 1098 1632 783 1632 c 0
 483 1632 90 1598 90 1226 c 2
 90 1031 l 2
 90 1003.46 73.5352 987 46 987 c 2
 44 987 l 2
 16.4648 987 -8.08267e-15 970.535 -8.08267e-15 943 c 2
 -8.08267e-15 887 l 2
 -8.08267e-15 859.465 16.4648 843 44 843 c 2
 46 843 l 2
 73.5352 843 90 826.535 90 799 c 2
 90 749 l 2
 90 721.465 73.5352 705 46 705 c 2
 44 705 l 2
 16.4648 705 -8.08267e-15 688.535 -8.08267e-15 661 c 2
 -8.08267e-15 605 l 2
EndSplineSet
EndChar

StartChar: F
Encoding: 70 70 33
Width: 1102
VWidth: 0
Flags: HW
PickledData: "(dp1
S'com.typemytype.robofont.layerData'
p2
(dp3
s."
LayerCount: 2
Fore
SplineSet
179.887 1595 m 2
 132.397 1595 104 1566.6 104 1519.11 c 2
 104 75.8873 l 2
 104 28.397 132.397 0 179.887 0 c 2
 632.113 0 l 2
 679.603 0 708 28.397 708 75.8873 c 2
 708 645.404 l 2
 708 682.699 730.301 705 767.596 705 c 2
 950.113 705 l 2
 997.603 705 1026 733.397 1026 780.887 c 2
 1026 878.113 l 2
 1026 925.603 997.603 954 950.113 954 c 2
 767.596 954 l 2
 730.301 954 708 976.301 708 1013.6 c 2
 708 1286.4 l 2
 708 1323.7 730.301 1346 767.596 1346 c 2
 973.113 1346 l 2
 1020.6 1346 1049 1374.4 1049 1421.89 c 2
 1049 1519.11 l 2
 1049 1566.6 1020.6 1595 973.113 1595 c 2
 179.887 1595 l 2
EndSplineSet
EndChar

StartChar: G
Encoding: 71 71 34
Width: 1695
VWidth: 0
Flags: HW
PickledData: "(dp1
S'com.typemytype.robofont.layerData'
p2
(dp3
s."
LayerCount: 2
Fore
SplineSet
1444 0 m 2
 1478 -31 1590 28 1590 76 c 2
 1590 730 l 2
 1590 778 1562 806 1514 806 c 2
 976 806 l 2
 928 806 900 778 900 730 c 2
 900 617 l 2
 900 591 916 575 942 575 c 2
 944 575 l 1
 1025 575 l 2
 1074 575 1075 557 1075 534 c 2
 1075 393 l 1
 1070 339 1052 315 995 315 c 2
 839 315 l 2
 737 315 736 314 736 796 c 0
 736 1280 737 1282 839 1282 c 2
 905 1282 l 2
 980 1282 988 1277 990 998 c 0
 990 950 1014 922 1060 922 c 2
 1528 922 l 2
 1570 922 1592 958 1592 1010 c 1
 1563 1603 1375 1631 852 1631 c 0
 251 1631 114 1568 114 805 c 0
 114 69 232 -39 852 -39 c 0
 1143 -39 1279 35 1326 110 c 1
 1444 0 l 2
EndSplineSet
EndChar

StartChar: H
Encoding: 72 72 39
Width: 1788
VWidth: 0
Flags: HW
PickledData: "(dp1
S'com.typemytype.robofont.layerData'
p2
(dp3
s."
LayerCount: 2
Fore
SplineSet
1089 1595 m 2
 1041 1595 1013 1567 1013 1519 c 2
 1013 950 l 2
 1013 912 1011 908 973 908 c 2
 814 908 l 2
 776 908 774 912 774 950 c 2
 774 1519 l 2
 774 1567 746 1595 698 1595 c 2
 236 1595 l 2
 188 1595 164 1565 160 1519 c 0
 140 1268 140 1025 140 790 c 0
 140 543 141 305 160 76 c 0
 164 29 188 0 236 0 c 2
 698 0 l 2
 746 0 774 28 774 76 c 2
 774 648 l 2
 774 686 776 688 814 688 c 2
 973 688 l 2
 1011 688 1013 686 1013 648 c 2
 1013 76 l 2
 1013 28 1041 0 1089 0 c 2
 1551 0 l 2
 1599 0 1622 28 1627 76 c 0
 1648 283 1648 548 1648 810 c 0
 1648 1069 1648 1325 1627 1519 c 0
 1622 1566 1599 1595 1551 1595 c 2
 1089 1595 l 2
EndSplineSet
EndChar

StartChar: Hbar
Encoding: 294 294 40
Width: 1703
VWidth: 0
Flags: HW
PickledData: "(dp1
S'com.typemytype.robofont.layerData'
p2
(dp3
s."
LayerCount: 2
Fore
SplineSet
948 1158 m 1
 948 997.596 l 2
 948 960.301 925.699 938 888.404 938 c 2
 814.596 938 l 2
 777.301 938 755 960.301 755 997.596 c 2
 755 1158 l 1
 948 1158 l 1
1023.89 1595 m 2
 976.397 1595 948 1566.6 948 1519.11 c 2
 948 1349 l 1
 755 1349 l 1
 755 1519.11 l 2
 755 1566.6 726.603 1595 679.113 1595 c 2
 226.887 1595 l 2
 179.397 1595 151 1566.6 151 1519.11 c 2
 151 1349 l 1
 129.887 1349 l 2
 82.397 1349 54 1320.6 54 1273.11 c 2
 54 1233.89 l 2
 54 1186.4 82.397 1158 129.887 1158 c 2
 151 1158 l 1
 151 75.8873 l 2
 151 28.397 179.397 0 226.887 0 c 2
 679.113 0 l 2
 726.603 0 755 28.397 755 75.8873 c 2
 755 628.404 l 2
 755 665.699 777.301 688 814.596 688 c 2
 888.404 688 l 2
 925.699 688 948 665.699 948 628.404 c 2
 948 75.8873 l 2
 948 28.397 976.397 0 1023.89 0 c 2
 1477.11 0 l 2
 1524.6 0 1553 28.397 1553 75.8873 c 2
 1553 1158 l 1
 1583.11 1158 l 2
 1630.6 1158 1659 1186.4 1659 1233.89 c 2
 1659 1273.11 l 2
 1659 1320.6 1630.6 1349 1583.11 1349 c 2
 1553 1349 l 1
 1553 1519.11 l 2
 1553 1566.6 1524.6 1595 1477.11 1595 c 2
 1023.89 1595 l 2
EndSplineSet
EndChar

StartChar: I
Encoding: 73 73 42
Width: 926
VWidth: 0
Flags: HW
PickledData: "(dp1
S'com.typemytype.robofont.layerData'
p2
(dp3
s."
LayerCount: 2
Fore
SplineSet
237 1595 m 2
 189 1595 168 1565 161 1519 c 0
 147 1430 140 1137 140 842 c 0
 140 531 148 216 161 76 c 0
 165 30 189 0 237 0 c 2
 689 0 l 2
 737 0 762 29 765 76 c 0
 779 265 786 562 786 842 c 0
 786 1122 779 1386 765 1519 c 0
 760 1565 737 1595 689 1595 c 2
 237 1595 l 2
EndSplineSet
EndChar

StartChar: J
Encoding: 74 74 53
Width: 908
VWidth: 0
Flags: HW
PickledData: "(dp1
S'com.typemytype.robofont.layerData'
p2
(dp3
s."
LayerCount: 2
Fore
SplineSet
302.887 1594 m 2
 255.397 1594 227 1565.6 227 1518.11 c 2
 227 197.596 l 2
 227 160.301 204.699 138 167.404 138 c 2
 129.887 138 l 2
 82.397 138 54 109.603 54 62.1127 c 2
 54 -60.1233 l 2
 54 -107.38 82.0968 -139.56 128.921 -145.934 c 0
 191.129 -154.401 252.098 -159 310 -159 c 0
 604 -159 831 -44 831 274 c 2
 831 1518.11 l 2
 831 1565.6 802.603 1594 755.113 1594 c 2
 302.887 1594 l 2
EndSplineSet
EndChar

StartChar: K
Encoding: 75 75 55
Width: 1725
VWidth: 0
Flags: HW
PickledData: "(dp1
S'com.typemytype.robofont.layerData'
p2
(dp3
s."
LayerCount: 2
Fore
SplineSet
1622.11 0 m 2
 1664.21 0 1684.04 30.7728 1666.64 69.1049 c 2
 1339.63 789.731 l 2
 1323.17 825.996 1323.19 861.993 1339.7 898.237 c 2
 1625.55 1525.94 l 2
 1642.99 1564.23 1623.19 1595 1581.11 1595 c 2
 1113.89 1595 l 2
 1063.79 1595 1028.94 1570.86 1011.33 1523.95 c 2
 834.265 1052.3 l 2
 820.589 1015.87 800.63 953.105 790.754 915.467 c 2
 776.503 861.161 l 2
 773.646 850.271 765.6 845.038 754.487 846.84 c 2
 752.513 847.16 l 2
 741.408 848.961 735.45 856.476 736.229 867.699 c 2
 745 994 l 1
 745 1519.11 l 2
 745 1566.6 716.603 1595 669.113 1595 c 2
 215.887 1595 l 2
 168.397 1595 140 1566.6 140 1519.11 c 2
 140 75.8873 l 2
 140 28.397 168.397 0 215.887 0 c 2
 669.113 0 l 2
 716.603 0 745 28.397 745 75.8873 c 2
 745 492 l 1
 737.344 616.797 l 2
 735.782 642.258 745.889 661.664 767.647 674.978 c 2
 769.353 676.022 l 2
 788.873 687.967 807.367 681.577 815.349 660.129 c 2
 1034.53 71.1225 l 2
 1052 24.1832 1086.8 0 1136.89 0 c 2
 1622.11 0 l 2
EndSplineSet
EndChar

StartChar: L
Encoding: 76 76 57
Width: 1122
VWidth: 0
Flags: HW
PickledData: "(dp1
S'com.typemytype.robofont.layerData'
p2
(dp3
s."
LayerCount: 2
Fore
SplineSet
1021 0 m 2
 1069 0 1097 28 1097 76 c 2
 1097 165 l 2
 1097 213 1069 241 1021 241 c 2
 816 241 l 2
 778 241 756 263 756 301 c 2
 756 1519 l 2
 756 1567 728 1595 680 1595 c 2
 228 1595 l 2
 180 1595 157 1565 152 1519 c 0
 139 1392 133 1095 133 798 c 0
 133 500 139 203 152 76 c 0
 157 30 180 0 228 0 c 2
 1021 0 l 2
EndSplineSet
EndChar

StartChar: Lcaron
Encoding: 317 317 59
Width: 1094
VWidth: 0
Flags: HW
PickledData: "(dp1
S'com.typemytype.robofont.layerData'
p2
(dp3
s."
LayerCount: 2
Fore
SplineSet
1323.19 1236.59 m 0
 1359.66 1221.58 1368.96 1165.2 1339.68 1139.65 c 0
 1322.71 1124.84 1301.54 1113.98 1278 1107.41 c 0
 1237.59 1096.11 1225 1079.53 1225 1039.09 c 2
 1225 1011.4 l 2
 1225 998.546 1233.17 989.768 1245.99 988.847 c 0
 1253.84 988.282 1261.56 988 1269 988 c 0
 1490 988 1616 1207 1616 1391 c 0
 1616 1520 1550 1631 1406 1631 c 0
 1304 1631 1202 1564 1202 1431 c 0
 1202 1329.53 1255.21 1264.56 1323.19 1236.59 c 0
973.113 0 m 2
 1020.6 0 1049 28.397 1049 75.8873 c 2
 1049 165.113 l 2
 1049 212.603 1020.6 241 973.113 241 c 2
 767.596 241 l 2
 730.301 241 708 263.301 708 300.596 c 2
 708 1519.11 l 2
 708 1566.6 679.603 1595 632.113 1595 c 2
 179.887 1595 l 2
 132.397 1595 104 1566.6 104 1519.11 c 2
 104 75.8873 l 2
 104 28.397 132.397 0 179.887 0 c 2
 973.113 0 l 2
EndSplineSet
EndChar

StartChar: Ldot
Encoding: 319 319 61
Width: 1094
VWidth: 0
Flags: HW
PickledData: "(dp1
S'com.typemytype.robofont.layerData'
p2
(dp3
s."
LayerCount: 2
Fore
SplineSet
1340 1341.11 m 2
 1340 1388.6 1311.6 1417 1264.11 1417 c 2
 908.887 1417 l 2
 861.397 1417 833 1388.6 833 1341.11 c 2
 833 1025.89 l 2
 833 978.397 861.397 950 908.887 950 c 2
 1264.11 950 l 2
 1311.6 950 1340 978.397 1340 1025.89 c 2
 1340 1341.11 l 2
972.113 0 m 2
 1019.6 0 1048 28.397 1048 75.8873 c 2
 1048 165.113 l 2
 1048 212.603 1019.6 241 972.113 241 c 2
 766.596 241 l 2
 729.301 241 707 263.301 707 300.596 c 2
 707 1519.11 l 2
 707 1566.6 678.603 1595 631.113 1595 c 2
 178.887 1595 l 2
 131.397 1595 103 1566.6 103 1519.11 c 2
 103 75.8873 l 2
 103 28.397 131.397 0 178.887 0 c 2
 972.113 0 l 2
EndSplineSet
EndChar

StartChar: Lslash
Encoding: 321 321 62
Width: 1534
VWidth: 0
Flags: HW
PickledData: "(dp1
S'com.typemytype.robofont.layerData'
p2
(dp3
s."
LayerCount: 2
Fore
SplineSet
1246.11 0 m 2
 1293.6 0 1322 28.397 1322 75.8873 c 2
 1322 165.113 l 2
 1322 212.603 1293.6 241 1246.11 241 c 2
 1040.6 241 l 2
 1003.3 241 981 263.301 981 300.596 c 2
 981 892.179 l 1
 1252.96 1036.44 l 2
 1297.64 1060.14 1320 1097.31 1320 1147.89 c 2
 1320 1334.11 l 2
 1320 1375.2 1289.24 1393.73 1252.92 1374.52 c 2
 981 1230.72 l 1
 981 1519.11 l 2
 981 1566.6 952.603 1595 905.113 1595 c 2
 452.887 1595 l 2
 405.397 1595 377 1566.6 377 1519.11 c 2
 377 911.297 l 1
 139.084 785.477 l 2
 94.3787 761.835 72 724.685 72 674.113 c 2
 72 485.887 l 2
 72 444.817 102.758 426.315 139.04 445.561 c 2
 377 571.787 l 1
 377 75.8873 l 2
 377 28.397 405.397 0 452.887 0 c 2
 1246.11 0 l 2
EndSplineSet
EndChar

StartChar: M
Encoding: 77 77 63
Width: 2052
VWidth: 0
Flags: HW
PickledData: "(dp1
S'com.typemytype.robofont.layerData'
p2
(dp3
s."
LayerCount: 2
Fore
SplineSet
1473 76 m 1
 1476 28 1506 0 1554 0 c 2
 1838 0 l 2
 1883 0 1911 27 1911 71 c 0
 1911 75 1912 105 1912 165 c 0
 1912 338 1904 760 1844 1519 c 0
 1840 1567 1812 1595 1764 1595 c 2
 1235 1595 l 2
 1186 1595 1155 1568 1148 1520 c 2
 1043 719 l 2
 1043 714 1037 711 1032 711 c 0
 1026 711 1021 714 1020 719 c 2
 903 1520 l 2
 896 1568 865 1595 816 1595 c 2
 288 1595 l 2
 240 1595 212 1567 208 1519 c 0
 148 788 140 358 140 176 c 0
 140 105 141 71 141 71 c 2
 141 27 169 0 214 0 c 2
 513 0 l 2
 561 0 591 28 594 76 c 1
 621 939 l 1
 774 75 l 2
 782 27 811 0 860 0 c 2
 1195 0 l 2
 1244 0 1273 27 1282 75 c 2
 1445 939 l 1
 1473 76 l 1
EndSplineSet
EndChar

StartChar: N
Encoding: 78 78 64
Width: 1715
VWidth: 0
Flags: HW
PickledData: "(dp1
S'com.typemytype.robofont.layerData'
p2
(dp3
s."
LayerCount: 2
Fore
SplineSet
1477 0 m 2
 1525 0 1551 28 1553 76 c 0
 1566 349 1575 572 1575 829 c 0
 1575 1050 1569 1306 1553 1519 c 0
 1550 1566 1525 1595 1477 1595 c 2
 1185 1595 l 2
 1137 1595 1109 1567 1109 1519 c 2
 1109 894 l 2
 1109 881 1103 874 1096 874 c 0
 1091 874 1085 877 1080 886 c 2
 715 1529 l 2
 690 1573 653 1595 602 1595 c 2
 237 1595 l 2
 189 1595 164 1567 161 1519 c 0
 147 1291 140 1057 140 817 c 0
 140 577 147 330 161 76 c 0
 164 28 189 0 237 0 c 2
 533 0 l 2
 581 0 609 28 609 76 c 2
 609 651 l 2
 609 664 615 671 622 671 c 0
 627 671 633 668 638 659 c 2
 976 66 l 2
 1002 22 1039 0 1090 0 c 2
 1477 0 l 2
EndSplineSet
EndChar

StartChar: O
Encoding: 79 79 69
Width: 1710
VWidth: 0
Flags: HW
PickledData: "(dp1
S'com.typemytype.robofont.layerData'
p2
(dp3
s."
LayerCount: 2
Fore
SplineSet
852 1631 m 0
 251 1631 114 1568 114 805 c 0
 114 19 232 -39 852 -39 c 0
 1454 -39 1596 21 1596 808 c 0
 1596 1573 1424 1631 852 1631 c 0
839 315 m 2
 737 315 736 314 736 796 c 0
 736 1280 737 1282 839 1282 c 2
 875 1282 l 2
 988 1282 991 1283 991 799 c 0
 991 315 988 315 875 315 c 2
 839 315 l 2
EndSplineSet
EndChar

StartChar: OE
Encoding: 338 338 70
Width: 1832
VWidth: 0
Flags: HW
PickledData: "(dp1
S'com.typemytype.robofont.layerData'
p2
(dp3
s."
LayerCount: 2
Fore
SplineSet
1692.11 0 m 2
 1739.6 0 1768 28.397 1768 75.8873 c 2
 1768 168.113 l 2
 1768 215.603 1739.6 244 1692.11 244 c 2
 1483.6 244 l 2
 1446.3 244 1424 266.301 1424 303.596 c 2
 1424 651.404 l 2
 1424 688.699 1446.3 711 1483.6 711 c 2
 1668.11 711 l 2
 1715.6 711 1744 739.397 1744 786.887 c 2
 1744 885.113 l 2
 1744 932.603 1715.6 961 1668.11 961 c 2
 1483.6 961 l 2
 1446.3 961 1424 983.301 1424 1020.6 c 2
 1424 1294.4 l 2
 1424 1331.7 1446.3 1354 1483.6 1354 c 2
 1692.11 1354 l 2
 1739.6 1354 1768 1382.4 1768 1429.89 c 2
 1768 1519.11 l 2
 1768 1566.6 1739.6 1595 1692.11 1595 c 2
 722 1595 l 2
 543 1595 396 1580 279 1534 c 0
 149 1483 92 1401 92 1227 c 2
 92 371 l 2
 92 344 93 316 95 287 c 0
 104 164 177 101 279 60 c 2
 722 -117.958 l 1
 722 0 l 1
 1692.11 0 l 2
678 1307 m 2
 678 1342.04 698.955 1363 734 1363 c 2
 736 1363 l 2
 771.045 1363 792 1342.04 792 1307 c 2
 792 288 l 2
 792 252.955 771.045 232 736 232 c 2
 734 232 l 2
 698.955 232 678 252.955 678 288 c 2
 678 1307 l 2
722 -117.958 m 1
 722.464 -118.144 l 2
 748.458 -128.586 722 -146.47 722 -118.457 c 2
 722 -117.958 l 1
EndSplineSet
EndChar

StartChar: Oslash
Encoding: 216 216 78
Width: 1542
VWidth: 0
Flags: HW
PickledData: "(dp1
S'com.typemytype.robofont.layerData'
p2
(dp3
s."
LayerCount: 2
Fore
SplineSet
868 854.915 m 1
 868 294.596 l 2
 868 257.301 845.699 235 808.404 235 c 2
 754.596 235 l 2
 717.301 235 695 257.301 695 294.596 c 2
 695 572.777 l 1
 868 854.915 l 1
695 1302.4 m 2
 695 1339.7 717.301 1362 754.596 1362 c 2
 808.404 1362 l 2
 845.699 1362 868 1339.7 868 1302.4 c 2
 868 1155.5 l 1
 695 874.317 l 1
 695 1302.4 l 2
1058 -20 m 0
 1295 20 1472 103 1472 370 c 2
 1472 1226 l 2
 1472 1394.82 1405.98 1485.4 1290.14 1543.36 c 1
 1356.33 1651.31 l 2
 1381.82 1692.87 1375.17 1733.38 1337.74 1764.63 c 2
 1333.26 1768.37 l 2
 1297.98 1797.82 1259.32 1791.51 1235.23 1752.37 c 2
 1139.19 1596.27 l 1
 1036.27 1620.63 916.504 1630 778 1630 c 0
 669 1630 576 1624 499 1611 c 0
 263 1572 90 1491 90 1226 c 2
 90 370 l 2
 90 343 92 314 96 283 c 0
 106.829 194.334 148.81 131.323 209.54 85.2832 c 1
 153.767 -5.36641 l 2
 128.443 -46.5253 136.05 -86.5372 174.71 -115.532 c 2
 181.29 -120.468 l 2
 218.512 -148.384 257.348 -140.971 281.669 -101.306 c 2
 351.986 13.3711 l 1
 468.256 -26.102 609.854 -40.9918 778.86 -41 c 0
 778.941 -41 778.974 -40.9472 778.947 -40.8944 c 2
 778.072 -39.1441 l 2
 778.036 -39.0721 778.081 -39 778.161 -39 c 0
 888.091 -38.9941 981.038 -32.9937 1058 -20 c 0
EndSplineSet
EndChar

StartChar: P
Encoding: 80 80 80
Width: 1550
VWidth: 0
Flags: HW
PickledData: "(dp1
S'com.typemytype.robofont.layerData'
p2
(dp3
s."
LayerCount: 2
Fore
SplineSet
104 75.8873 m 2
 104 28.397 132.397 0 179.887 0 c 2
 632.113 0 l 2
 679.603 0 708 28.397 708 75.8873 c 2
 708 342.404 l 2
 708 379.699 730.301 402 767.596 402 c 2
 860 402 l 2
 1170 402 1485 428 1485 793 c 2
 1485 1204 l 2
 1485 1559 1175 1595 859 1595 c 2
 179.887 1595 l 2
 132.397 1595 104 1566.6 104 1519.11 c 2
 104 75.8873 l 2
707 1302.4 m 2
 707 1339.7 729.301 1362 766.596 1362 c 2
 820.404 1362 l 2
 857.699 1362 880 1339.7 880 1302.4 c 2
 880 687.596 l 2
 880 650.301 857.699 628 820.404 628 c 2
 766.596 628 l 2
 729.301 628 707 650.301 707 687.596 c 2
 707 1302.4 l 2
EndSplineSet
EndChar

StartChar: Q
Encoding: 81 81 81
Width: 1710
VWidth: 0
Flags: HW
PickledData: "(dp1
S'com.typemytype.robofont.layerData'
p2
(dp3
s."
LayerCount: 2
Fore
SplineSet
1106 -491 m 0
 1153 -491 1303 -479 1356 -475 c 0
 1405 -472 1407 -453 1416 -406 c 2
 1448 -233 l 2
 1449 -228 1449 -222 1449 -217 c 0
 1449 -187 1430 -168 1399 -168 c 0
 1395 -168 1391 -168 1387 -169 c 0
 1346 -175 1303 -179 1264 -179 c 0
 1216 -179 1090 -173 1061 -159 c 0
 1048 -153 1054 -80 1053 -36 c 1
 1487 -13 1596 117 1596 808 c 0
 1596 1573 1424 1631 852 1631 c 0
 251 1631 114 1568 114 805 c 0
 114 197 185 25 503 -22 c 0
 506 -23 508 -23 511 -24 c 0
 594 -42 606 -68 606 -114 c 0
 606 -134 604 -188 604 -222 c 0
 606 -455 828 -491 1106 -491 c 0
838 315 m 2
 737 315 736 316 736 796 c 0
 736 1280 737 1282 839 1282 c 2
 876 1282 l 2
 988 1282 991 1281 991 799 c 0
 991 315 988 315 875 315 c 2
 838 315 l 2
EndSplineSet
EndChar

StartChar: R
Encoding: 82 82 82
Width: 1680
VWidth: 0
Flags: HW
PickledData: "(dp1
S'com.typemytype.robofont.layerData'
p2
(dp3
s."
LayerCount: 2
Fore
SplineSet
773 1318 m 2
 773 1356 775 1358 813 1358 c 2
 886 1358 l 2
 924 1358 946 1336 946 1298 c 2
 946 941 l 2
 946 903 924 881 886 881 c 2
 811 881 l 2
 773 881 773 883 773 921 c 2
 773 1318 l 2
773 76 m 2
 773 609 l 2
 773 647 773 649 811 649 c 2
 875 649 l 2
 913 649 935 627 935 589 c 1
 1006 76 l 1
 1006 28 1034 0 1082 0 c 2
 1537 0 l 2
 1585 0 1619 28 1613 76 c 2
 1550 562 l 2
 1536 673 1482 786 1352 821 c 1
 1495 874 1533 991 1533 1190 c 0
 1533 1502 1365 1595 1076 1595 c 2
 239 1595 l 2
 191 1595 167 1565 162 1519 c 0
 141 1310 140 1036 140 769 c 0
 140 511 146 259 162 78 c 0
 166 32 186 0 234 0 c 2
 697 0 l 2
 745 0 773 28 773 76 c 2
EndSplineSet
EndChar

StartChar: S
Encoding: 83 83 86
Width: 1580
VWidth: 0
Flags: HW
PickledData: "(dp1
S'com.typemytype.robofont.layerData'
p2
(dp3
s."
LayerCount: 2
Fore
SplineSet
804 -39 m 0
 1272 -39 1482 25 1482 489 c 0
 1482 910 1343 982 826 1034 c 0
 781 1039 705 1051 704 1090 c 0
 704 1091 704 1091 703 1091 c 2
 702 1093 l 2
 701 1093 701 1093 701 1094 c 2
 701 1260 l 2
 701 1298 723 1320 761 1320 c 2
 814 1320 l 2
 852 1320 874 1298 874 1260 c 2
 874 1196 l 2
 874 1128 882 1106 930 1108 c 2
 1378 1130 l 2
 1420 1132 1426 1160 1426 1201 c 2
 1426 1206 l 1
 1404 1601 1152 1631 774 1631 c 0
 366 1631 124 1550 124 1111 c 0
 124 712 255 655 758 603 c 0
 808 598 876 578 876 525 c 2
 876 335 l 2
 876 297 854 275 816 275 c 2
 763 275 l 2
 725 275 703 297 703 335 c 2
 703 452 l 2
 703 500 685 513 637 516 c 2
 189 546 l 2
 147 549 131 511 131 469 c 2
 131 467 l 1
 132 443 134 368 136 345 c 0
 169 -10 431 -39 804 -39 c 0
EndSplineSet
EndChar

StartChar: T
Encoding: 84 84 92
Width: 1313
VWidth: 0
Flags: HW
PickledData: "(dp1
S'com.typemytype.robofont.layerData'
p2
(dp3
s."
LayerCount: 2
Fore
SplineSet
957 76 m 0
 971 265 978 562 978 842 c 0
 978 1033 975 1198 968 1326 c 1
 1237 1326 l 2
 1285 1326 1313 1354 1313 1402 c 2
 1313 1519 l 2
 1313 1567 1285 1595 1237 1595 c 2
 76 1595 l 2
 28 1595 0 1567 0 1519 c 2
 0 1402 l 2
 0 1354 28 1326 76 1326 c 2
 341 1326 l 1
 335 1204 332 1031 332 842 c 0
 332 531 340 216 353 76 c 0
 357 30 381 0 429 0 c 2
 881 0 l 2
 929 0 954 29 957 76 c 0
EndSplineSet
EndChar

StartChar: Thorn
Encoding: 222 222 94
Width: 1534
VWidth: 0
Flags: HW
PickledData: "(dp1
S'com.typemytype.robofont.layerData'
p2
(dp3
s."
LayerCount: 2
Fore
SplineSet
104 75.8873 m 2
 104 28.397 132.397 0 179.887 0 c 2
 630.113 0 l 2
 677.603 0 706 28.397 706 75.8873 c 2
 706 190.404 l 2
 706 227.699 728.301 250 765.596 250 c 2
 843 250 l 2
 948 250 1036 256 1108 268 c 0
 1268 295 1396 345 1447 469 c 0
 1467 519 1469 576 1469 641 c 2
 1469 1022 l 2
 1469 1049 1468 1077 1466 1107 c 0
 1459 1233 1385 1303 1284 1347 c 0
 1169 1397 1023 1413 843 1413 c 2
 765.596 1413 l 2
 728.301 1413 706 1435.3 706 1472.6 c 2
 706 1523.11 l 2
 706 1570.6 677.603 1599 630.113 1599 c 2
 179.887 1599 l 2
 132.397 1599 104 1570.6 104 1523.11 c 2
 104 75.8873 l 2
706 1122.4 m 2
 706 1159.7 728.301 1182 765.596 1182 c 2
 809.404 1182 l 2
 846.699 1182 869 1159.7 869 1122.4 c 2
 869 541.596 l 2
 869 504.301 846.699 482 809.404 482 c 2
 765.596 482 l 2
 728.301 482 706 504.301 706 541.596 c 2
 706 1122.4 l 2
EndSplineSet
EndChar

StartChar: U
Encoding: 85 85 95
Width: 1556
VWidth: 0
Flags: HW
PickledData: "(dp1
S'com.typemytype.robofont.layerData'
p2
(dp3
s."
LayerCount: 2
Fore
SplineSet
701 1519.11 m 2
 701 1566.6 672.603 1595 625.113 1595 c 2
 172.887 1595 l 2
 125.397 1595 97 1566.6 97 1519.11 c 2
 97 371 l 2
 97 -7 509 -39 786 -39 c 0
 1088 -39 1479 -4 1479 370 c 2
 1479 1518.11 l 2
 1479 1565.6 1450.6 1594 1403.11 1594 c 2
 949.887 1594 l 2
 902.397 1594 874 1565.6 874 1518.11 c 2
 874 293.596 l 2
 874 256.301 851.699 234 814.404 234 c 2
 760.596 234 l 2
 723.301 234 701 256.301 701 293.596 c 2
 701 1519.11 l 2
EndSplineSet
EndChar

StartChar: V
Encoding: 86 86 106
Width: 1610
VWidth: 0
Flags: HW
PickledData: "(dp1
S'com.typemytype.robofont.layerData'
p2
(dp3
s."
LayerCount: 2
Fore
SplineSet
667 1520 m 2
 660 1568 630 1595 581 1595 c 2
 142 1595 l 2
 102 1595 80 1572 80 1536 c 0
 80 1531 80 1526 81 1521 c 0
 157 1019 260 459 369 74 c 0
 382 29 411 0 460 0 c 2
 1150 0 l 2
 1199 0 1229 26 1241 74 c 0
 1335 454 1454 1012 1529 1521 c 0
 1530 1526 1530 1530 1530 1535 c 0
 1530 1571 1508 1595 1468 1595 c 2
 1028 1595 l 2
 979 1595 948 1568 943 1520 c 1
 823 598 l 2
 823 593 819 591 815 591 c 0
 811 591 806 594 805 600 c 2
 667 1520 l 2
EndSplineSet
EndChar

StartChar: W
Encoding: 87 87 107
Width: 2108
VWidth: 0
Flags: HW
PickledData: "(dp1
S'com.typemytype.robofont.layerData'
p2
(dp3
s."
LayerCount: 2
Fore
SplineSet
1327.34 1519.57 m 2
 1322.01 1567.76 1291.59 1595 1243.11 1595 c 2
 880.887 1595 l 2
 832.389 1595 801.919 1567.77 796.464 1519.57 c 2
 721 853 l 1
 706.098 602.467 l 2
 705.406 590.822 698.166 584 686.5 584 c 2
 684.5 584 l 2
 672.865 584 665.695 590.844 665.177 602.467 c 2
 624.374 1519.19 l 2
 622.244 1567.05 593.021 1595 545.113 1595 c 2
 113.887 1595 l 2
 67.9132 1595 42.2512 1565.39 48.7848 1519.88 c 2
 256.215 75.1171 l 2
 263.142 26.8745 294.15 0 342.887 0 c 2
 833.113 0 l 2
 881.968 0 913.251 26.696 920.934 74.9431 c 2
 997.066 553.057 l 2
 1003.58 593.948 1010.5 662.424 1012.3 703.792 c 2
 1021.2 908.517 l 2
 1021.7 920.139 1028.87 927 1040.5 927 c 2
 1042.5 927 l 2
 1054.15 927 1061.34 920.149 1061.93 908.517 c 2
 1072.2 703.792 l 2
 1074.26 662.706 1081.36 593.666 1087.7 553.02 c 2
 1162.3 74.9799 l 2
 1169.83 26.7325 1201.06 0 1249.89 0 c 2
 1760.11 0 l 2
 1808.9 0 1840.02 26.8033 1847.25 75.0494 c 2
 2063.75 1519.95 l 2
 2070.56 1565.35 2045.02 1595 1999.11 1595 c 2
 1619.89 1595 l 2
 1571.55 1595 1541.44 1567.56 1536.96 1519.44 c 2
 1451.39 600.966 l 2
 1450.5 591.38 1444.61 585.663 1435 585.062 c 2
 1433 584.938 l 2
 1423.69 584.356 1417.64 589.69 1417.05 599.001 c 2
 1401 853 l 1
 1327.34 1519.57 l 2
EndSplineSet
EndChar

StartChar: X
Encoding: 88 88 112
Width: 1586
VWidth: 0
Flags: HW
PickledData: "(dp1
S'com.typemytype.robofont.layerData'
p2
(dp3
s."
LayerCount: 2
Fore
SplineSet
784 514 m 1
 786 514 l 1
 942 72 l 2
 959 25 993 0 1043 0 c 2
 1489 0 l 2
 1522 0 1541 18 1541 44 c 0
 1541 52 1540 61 1536 70 c 2
 1258 727 l 2
 1250 746 1247 764 1247 783 c 0
 1247 801 1250 819 1257 837 c 2
 1537 1525 l 2
 1541 1534 1542 1542 1542 1550 c 0
 1542 1576 1522 1595 1489 1595 c 2
 1047 1595 l 2
 997 1595 963 1570 946 1523 c 2
 791 1071 l 1
 789 1071 l 1
 635 1523 l 2
 619 1570 585 1595 535 1595 c 2
 97 1595 l 2
 64 1595 44 1576 44 1550 c 0
 44 1542 45 1534 49 1525 c 2
 326 837 l 2
 333 819 337 801 337 784 c 0
 337 765 333 746 325 727 c 2
 50 70 l 2
 46 61 45 52 45 44 c 0
 45 18 64 0 97 0 c 2
 531 0 l 2
 581 0 615 25 631 72 c 2
 784 514 l 1
EndSplineSet
EndChar

StartChar: Y
Encoding: 89 89 113
Width: 1509
VWidth: 0
Flags: HW
PickledData: "(dp1
S'com.typemytype.robofont.layerData'
p2
(dp3
s."
LayerCount: 2
Fore
SplineSet
982.352 0 m 2
 1030.35 0 1055.35 29 1058.35 76 c 0
 1067.35 194 1073.35 355 1076.35 528 c 1
 1473.35 1524 l 2
 1489.35 1564 1467.35 1595 1424.35 1595 c 2
 1020.35 1595 l 2
 970.352 1595 937.352 1570 924.352 1522 c 2
 769.352 988 l 1
 768.352 980 763.352 975 755.352 975 c 2
 753.352 975 l 2
 744.352 975 739.352 980 738.352 988 c 1
 588.352 1522 l 2
 575.352 1570 542.352 1595 492.352 1595 c 2
 84.3518 1595 l 2
 41.3518 1595 20.3518 1564 36.3518 1524 c 2
 436.352 532 l 1
 439.352 338 445.352 169 454.352 76 c 0
 458.352 30 482.352 0 530.352 0 c 2
 982.352 0 l 2
EndSplineSet
EndChar

StartChar: Z
Encoding: 90 90 118
Width: 1138
VWidth: 0
Flags: HW
PickledData: "(dp1
S'com.typemytype.robofont.layerData'
p2
(dp3
s."
LayerCount: 2
Fore
SplineSet
143.887 1595 m 2
 96.397 1595 68 1566.6 68 1519.11 c 2
 68 1379.89 l 2
 68 1332.4 96.397 1304 143.887 1304 c 2
 380.404 1304 l 2
 415.091 1304 432.964 1280.11 423.165 1246.83 c 2
 77.437 72.7966 l 2
 64.9599 30.4263 87.7181 0 131.887 0 c 2
 1006.11 0 l 2
 1053.6 0 1082 28.397 1082 75.8873 c 2
 1082 218.113 l 2
 1082 265.603 1053.6 294 1006.11 294 c 2
 804.596 294 l 2
 769.639 294 751.35 317.807 760.358 351.583 c 2
 1072.44 1521.68 l 2
 1083.91 1564.69 1060.63 1595 1016.11 1595 c 2
 143.887 1595 l 2
EndSplineSet
EndChar

StartChar: a
Encoding: 97 97 122
Width: 1464
VWidth: 0
Flags: HW
PickledData: "(dp1
S'com.typemytype.robofont.layerData'
p2
(dp3
s."
LayerCount: 2
Fore
SplineSet
771 680 m 2
 809 680 811 678 811 640 c 2
 811 267 l 2
 811 229 808 227 770 227 c 2
 745 227 l 2
 669 227 659 254 645 287 c 0
 633 315 629 365 629 418 c 0
 629 506 640 603 645 620 c 0
 656 660 694 680 735 680 c 2
 771 680 l 2
809 114 m 0
 820 136 827 145 831 145 c 0
 838 145 840 124 848 104 c 2
 862 69 l 2
 881 24 915 1 963 1 c 2
 1332 1 l 2
 1374 1 1397 23 1397 61 c 0
 1397 65 1397 71 1396 76 c 0
 1387 131 1382 192 1381 257 c 1
 1381 952 l 2
 1381 1303 1047 1327 740 1327 c 0
 503 1327 136 1304 136 1005 c 0
 136 985 137 967 139 948 c 0
 143 917 164 897 195 897 c 2
 199 897 l 1
 624 918 l 2
 672 920 672 923 672 971 c 2
 672 1046 l 2
 672 1084 674 1106 712 1106 c 2
 771 1106 l 2
 809 1106 811 1084 811 1046 c 2
 811 824 l 2
 811 823 796 823 770 823 c 0
 277 823 73 777 73 388 c 0
 73 107 209 -27 494 -27 c 0
 660 -27 768 33 809 114 c 0
EndSplineSet
EndChar

StartChar: acute
Encoding: 180 180 126
Width: 873
VWidth: 0
Flags: HW
PickledData: "(dp1
S'com.typemytype.robofont.layerData'
p2
(dp3
s."
LayerCount: 2
Fore
SplineSet
25 1420 m 0
 25 1391 53 1371 88 1371 c 0
 98 1371 109 1372 120 1376 c 0
 325 1438 612 1510 716 1570 c 0
 797 1617 832 1687 832 1752 c 0
 832 1846 761 1930 658 1930 c 0
 620 1930 578 1919 533 1893 c 0
 432 1835 222 1629 59 1480 c 0
 35 1459 25 1438 25 1420 c 0
EndSplineSet
EndChar

StartChar: ae
Encoding: 230 230 128
Width: 2144
VWidth: 0
Flags: HW
PickledData: "(dp1
S'com.typemytype.robofont.layerData'
p2
(dp3
s."
LayerCount: 2
Fore
SplineSet
725 1343 m 0
 640 1343 566 1338 503 1329 c 0
 298 1300 129 1231 129 1004 c 0
 129 992.155 129.461 980.587 130.272 969.24 c 0
 133.479 924.324 166.216 895.041 211.214 896.84 c 0
 339.833 901.983 466.878 907.126 595.519 912.269 c 0
 638.732 913.997 664 940.295 664 983.507 c 2
 664 994.404 l 2
 664 1031.7 686.301 1054 723.596 1054 c 2
 727.404 1054 l 2
 764.699 1054 787 1031.7 787 994.404 c 2
 787 844.652 l 2
 787 808.682 764.865 791.647 730.094 800.857 c 0
 675.341 815.36 613.691 824 538 824 c 0
 229 824 69 692 69 388 c 0
 69 263 108 166 175 97 c 0
 261 9 395 -36 577 -36 c 0
 760.44 -36 905.333 -7.27846 1026.13 49.5075 c 0
 1065.68 68.0987 1089.4 66.7274 1126.57 43.6809 c 0
 1203.9 -4.26005 1301.27 -36 1427 -36 c 0
 1526 -36 1611 -31 1682 -20 c 0
 1917 16 2069 96 2074 354 c 1
 2074 428.5 l 2
 2074 473.871 2046.87 501 2001.5 501 c 2
 1578.89 501 l 2
 1531.4 501 1503 472.603 1503 425.113 c 2
 1503 311.596 l 2
 1503 274.301 1480.7 252 1443.4 252 c 2
 1418.6 252 l 2
 1381.3 252 1359 274.301 1359 311.596 c 2
 1359 546.404 l 2
 1359 583.699 1381.3 606 1418.6 606 c 2
 1999.11 606 l 2
 2046.6 606 2075 634.397 2075 681.887 c 2
 2075 956 l 2
 2075 983 2074 1011 2071 1040 c 0
 2060 1165 1981 1235 1877 1279 c 0
 1760 1328 1613 1345 1431 1345 c 0
 1282.22 1345 1159.36 1320.07 1072.38 1263.25 c 0
 1072.17 1263.11 1072.15 1262.85 1072.29 1262.71 c 2
 1073.66 1261.28 l 1
 992.668 1320.09 870.786 1343 725 1343 c 0
727.404 604 m 2
 764.699 604 787 581.699 787 544.404 c 2
 787 311.596 l 2
 787 274.301 764.699 252 727.404 252 c 2
 696.596 252 l 2
 659.301 252 637 274.301 637 311.596 c 2
 637 544.404 l 2
 637 581.699 659.301 604 696.596 604 c 2
 727.404 604 l 2
1359 995.404 m 2
 1359 1032.7 1381.3 1055 1418.6 1055 c 2
 1443.4 1055 l 2
 1480.7 1055 1503 1032.7 1503 995.404 c 2
 1503 860.596 l 2
 1503 823.301 1480.7 801 1443.4 801 c 2
 1418.6 801 l 2
 1381.3 801 1359 823.301 1359 860.596 c 2
 1359 995.404 l 2
EndSplineSet
EndChar

StartChar: afii10018
Encoding: 1041 1041 130
Width: 1550
VWidth: 0
Flags: HW
PickledData: "(dp1
S'com.typemytype.robofont.layerData'
p2
(dp3
s."
LayerCount: 2
Fore
SplineSet
707 262.6 m 2
 707 244.075 718.075 233 736.596 233 c 2
 820.404 233 l 2
 857.699 233 880 255.3 880 292.6 c 2
 880 697.404 l 2
 880 734.699 857.699 757 820.404 757 c 2
 736.596 757 l 2
 718.075 757 707 745.925 707 727.404 c 2
 707 262.6 l 2
104 1519.11 m 2
 104 1566.6 132.397 1595 179.887 1595 c 2
 1277 1595 l 2
 1325 1595 1353 1567 1353 1519 c 2
 1353 1402 l 2
 1353 1354 1325 1326 1277 1326 c 2
 708 1326 l 1
 708 1002.6 l 2
 708 990.333 719.075 983 737.596 983 c 2
 860 983 l 2
 1170 983 1485 957 1485 592 c 2
 1485 391 l 2
 1485 36 1175 0 859 0 c 2
 179.887 0 l 2
 132.397 0 104 28.4004 104 75.8896 c 2
 104 1519.11 l 2
EndSplineSet
EndChar

StartChar: afii10020
Encoding: 1043 1043 132
Width: 1313
VWidth: 0
Flags: HW
PickledData: "(dp1
S'com.typemytype.robofont.layerData'
p2
(dp3
s."
LayerCount: 2
Fore
SplineSet
957 76 m 0
 971 265 978 562 978 842 c 0
 978 1033 975 1198 968 1326 c 1
 1297 1326 l 2
 1345 1326 1373 1354 1373 1402 c 2
 1373 1519 l 2
 1373 1567 1345 1595 1297 1595 c 2
 419 1595 l 2
 371 1595 344.729 1566.97 343 1519 c 0
 341 1463.5 332 1232.89 332 842 c 0
 332 531 340 216 353 76 c 0
 357 30 381 0 429 0 c 2
 881 0 l 2
 929 0 954 29 957 76 c 0
EndSplineSet
EndChar

StartChar: afii10021
Encoding: 1044 1044 133
Width: 1788
VWidth: 0
Flags: HW
PickledData: "(dp1
S'com.typemytype.robofont.layerData'
p2
(dp3
s."
LayerCount: 2
Fore
SplineSet
737.672 269.5 m 1
 844 1335.5 l 2
 847.771 1373.31 846 1375.5 884 1375.5 c 2
 973 1375.5 l 2
 1011 1375.5 1013 1373.5 1013 1335.5 c 2
 1013 269.5 l 1
 737.672 269.5 l 1
363 1595 m 2
 315 1595 291.228 1564.98 287 1519 c 1
 242.425 1188.34 184.68 699.689 131.645 249.5 c 1
 -2 249.5 l 2
 -50 249.5 -72.2568 219.315 -78 173.5 c 1
 -80.5529 101.077 -81.9346 27.3041 -81.9346 -46.2686 c 0
 -81.9346 -106.72 -80.6835 -167.015 -78 -226 c 1
 -71.8398 -272.766 -50 -302 -2 -302 c 2
 398 -302 l 2
 446 -302 474 -274 474 -226 c 2
 474 -10 l 2
 474 28 476 30 514 30 c 2
 1233 30 l 2
 1271 30 1273 28 1273 -10 c 2
 1273 -226 l 2
 1273 -274 1301 -302 1349 -302 c 2
 1751 -302 l 2
 1799 -302 1819.06 -273.601 1827 -226 c 1
 1830.87 -174.699 1832.92 -105.936 1832.92 -37.5049 c 0
 1832.92 39.3789 1831.01 115.904 1827 173.5 c 1
 1818.29 219.955 1799 249.5 1751 249.5 c 2
 1617.98 249.5 l 1
 1628 419.662 1628 615.7 1628 810 c 0
 1628 1069 1628 1325 1607 1519 c 0
 1602 1566 1579 1595 1531 1595 c 2
 363 1595 l 2
EndSplineSet
EndChar

StartChar: afii10024
Encoding: 1046 1046 136
Width: 1586
VWidth: 0
Flags: HW
PickledData: "(dp1
S'com.typemytype.robofont.layerData'
p2
(dp3
s."
LayerCount: 2
Fore
SplineSet
784 514 m 1
 786 514 l 1
 942 72 l 2
 959 25 993 0 1043 0 c 2
 1489 0 l 2
 1522 0 1541 18 1541 44 c 0
 1541 52 1540 61 1536 70 c 2
 1258 727 l 2
 1250 746 1247 764 1247 783 c 0
 1247 801 1250 819 1257 837 c 2
 1537 1525 l 2
 1541 1534 1542 1542 1542 1550 c 0
 1542 1576 1522 1595 1489 1595 c 2
 1047 1595 l 2
 997 1595 963 1570 946 1523 c 2
 791 1071 l 1
 789 1071 l 1
 635 1523 l 2
 619 1570 585 1595 535 1595 c 2
 97 1595 l 2
 64 1595 44 1576 44 1550 c 0
 44 1542 45 1534 49 1525 c 2
 326 837 l 2
 333 819 337 801 337 784 c 0
 337 765 333 746 325 727 c 2
 50 70 l 2
 46 61 45 52 45 44 c 0
 45 18 64 0 97 0 c 2
 531 0 l 2
 581 0 615 25 631 72 c 2
 784 514 l 1
EndSplineSet
EndChar

StartChar: afii10025
Encoding: 1047 1047 137
Width: 1436
VWidth: 0
Flags: HW
PickledData: "(dp1
S'com.typemytype.robofont.layerData'
p2
(dp3
s."
LayerCount: 2
Fore
SplineSet
72 1108 m 0
 72 1093.92 72.2719 1079.57 72.8158 1064.94 c 0
 73.7592 1039.58 89.9287 1024 115.311 1024 c 2
 551.113 1024 l 2
 598.603 1024 627 1052.4 627 1099.89 c 2
 627 1301.4 l 2
 627 1338.7 649.301 1361 686.596 1361 c 2
 739.404 1361 l 2
 776.699 1361 799 1338.7 799 1301.4 c 2
 799 990.596 l 2
 799 953.301 776.699 931 739.404 931 c 2
 615.887 931 l 2
 568.397 931 540 902.603 540 855.113 c 2
 540 782.887 l 2
 540 735.397 568.397 707 615.887 707 c 2
 739.404 707 l 2
 776.699 707 799 684.699 799 647.404 c 2
 799 294.596 l 2
 799 257.301 776.699 235 739.404 235 c 2
 686.596 235 l 2
 649.301 235 627 257.301 627 294.596 c 2
 627 537.113 l 2
 627 584.603 598.603 613 551.113 613 c 2
 120.868 613 l 2
 92.0264 613 73.1209 594.85 71.9461 566.032 c 0
 71.2689 549.419 71 533.075 71 517 c 0
 71 142 270 -39 716 -39 c 0
 1111 -39 1366 79 1366 522 c 0
 1366 641.114 1316.8 738.198 1217.14 795.002 c 0
 1190.47 810.206 1190.27 830.774 1216.65 846.477 c 0
 1307.08 900.32 1364 988.161 1364 1113 c 0
 1364 1506 1147 1632 714 1632 c 0
 293 1632 72 1503 72 1108 c 0
EndSplineSet
EndChar

StartChar: afii10026
Encoding: 1048 1048 138
Width: 1715
VWidth: 0
Flags: HW
PickledData: "(dp1
S'com.typemytype.robofont.layerData'
p2
(dp3
s."
LayerCount: 2
Fore
SplineSet
238 0 m 2
 190 0 164 28 162 76 c 0
 149 349 140 572 140 829 c 0
 140 1050 146 1306 162 1519 c 0
 165 1566 190 1595 238 1595 c 2
 530 1595 l 2
 578 1595 606 1567 606 1519 c 2
 606 894 l 2
 606 881 612 874 619 874 c 0
 624 874 630 877 635 886 c 2
 1000 1529 l 2
 1025 1573 1062 1595 1113 1595 c 2
 1478 1595 l 2
 1526 1595 1551 1567 1554 1519 c 0
 1568 1291 1575 1057 1575 817 c 0
 1575 577 1568 330 1554 76 c 0
 1551 28 1526 0 1478 0 c 2
 1182 0 l 2
 1134 0 1106 28 1106 76 c 2
 1106 651 l 2
 1106 664 1100 671 1093 671 c 0
 1088 671 1082 668 1077 659 c 2
 739 66 l 2
 713 22 676 0 625 0 c 2
 238 0 l 2
EndSplineSet
EndChar

StartChar: afii10029
Encoding: 1051 1051 141
Width: 1788
VWidth: 0
Flags: HW
PickledData: "(dp1
S'com.typemytype.robofont.layerData'
p2
(dp3
s."
LayerCount: 2
Fore
SplineSet
236 1595 m 2
 188 1595 164 1565 160 1519 c 0
 147.22 1339.93 142.998 1282.56 142.998 990.704 c 0
 142.998 646.56 159 552.646 159 331.195 c 0
 159 293.9 136.699 271.6 99.4043 271.6 c 2
 51.8867 271.6 l 2
 4.39746 271.6 -24 243.202 -24 195.712 c 2
 -24 73.4766 l 2
 -24 26.2197 4.09668 -5.95996 50.9209 -12.334 c 0
 113.129 -20.8018 174.098 -25.4004 232 -25.4004 c 0
 537.286 -25.4004 773 89.5996 773 407.6 c 2
 774 1335.5 l 2
 774 1373.5 776 1375.5 814 1375.5 c 2
 973 1375.5 l 2
 1011 1375.5 1013 1373.5 1013 1335.5 c 2
 1013 76 l 2
 1013 28 1041 0 1089 0 c 2
 1551 0 l 2
 1599 0 1622 28 1627 76 c 0
 1648 283 1648 548 1648 810 c 0
 1648 1069 1648 1325 1627 1519 c 0
 1622 1566 1599 1595 1551 1595 c 2
 236 1595 l 2
EndSplineSet
EndChar

StartChar: afii10033
Encoding: 1055 1055 145
Width: 1788
VWidth: 0
Flags: HW
PickledData: "(dp1
S'com.typemytype.robofont.layerData'
p2
(dp3
s."
LayerCount: 2
Fore
SplineSet
236 1595 m 2
 188 1595 164 1565 160 1519 c 0
 140 1268 140 1025 140 790 c 0
 140 543 141 305 160 76 c 0
 164 29 188 0 236 0 c 2
 698 0 l 2
 746 0 774 28 774 76 c 2
 774 1335.5 l 2
 774 1373.5 776 1375.5 814 1375.5 c 2
 973 1375.5 l 2
 1011 1375.5 1013 1373.5 1013 1335.5 c 2
 1013 76 l 2
 1013 28 1041 0 1089 0 c 2
 1551 0 l 2
 1599 0 1622 28 1627 76 c 0
 1648 283 1648 548 1648 810 c 0
 1648 1069 1648 1325 1627 1519 c 0
 1622 1566 1599 1595 1551 1595 c 2
 236 1595 l 2
EndSplineSet
EndChar

StartChar: afii10037
Encoding: 1059 1059 149
Width: 1509
VWidth: 0
Flags: HW
PickledData: "(dp1
S'com.typemytype.robofont.layerData'
p2
(dp3
s."
LayerCount: 2
Fore
SplineSet
982.352 0 m 2
 1030.35 0 1055.35 29 1058.35 76 c 0
 1067.35 194 1073.35 355 1076.35 528 c 1
 1473.35 1524 l 2
 1489.35 1564 1467.35 1595 1424.35 1595 c 2
 1020.35 1595 l 2
 970.352 1595 937.352 1570 924.352 1522 c 2
 769.352 988 l 1
 768.352 980 763.352 975 755.352 975 c 2
 753.352 975 l 2
 744.352 975 739.352 980 738.352 988 c 1
 588.352 1522 l 2
 575.352 1570 542.352 1595 492.352 1595 c 2
 84.3518 1595 l 2
 41.3518 1595 20.3518 1564 36.3518 1524 c 2
 436.352 532 l 1
 439.352 338 445.352 169 454.352 76 c 0
 458.352 30 482.352 0 530.352 0 c 2
 982.352 0 l 2
EndSplineSet
EndChar

StartChar: afii10038
Encoding: 1060 1060 150
Width: 2336
VWidth: 0
Flags: HW
PickledData: "(dp1
S'com.typemytype.robofont.layerData'
p2
(dp3
s."
LayerCount: 2
Fore
SplineSet
1433.14 482.413 m 1
 1435.71 598.836 1437 721.979 1437 842 c 0
 1437 935.549 1436.22 1027.31 1434.66 1113 c 1
 1549 1113 l 2
 1651 1113 1652 1113 1652 796 c 0
 1652 486 1651 484 1549 484 c 1
 1433.14 482.413 l 1
899.563 482.458 m 1
 787 484 l 1
 685 484 684 486 684 796 c 0
 684 1113 685 1113 787 1113 c 2
 898.069 1113 l 1
 896.689 1027.03 896 934.614 896 842 c 0
 896 719.095 897.249 595.564 899.563 482.458 c 1
993 1595 m 2
 945 1595 924 1565 917 1519 c 0
 913.038 1493.81 909.637 1452.29 906.796 1399 c 1
 852 1399 l 2
 251 1399 114 1429 114 803 c 0
 114 158 232 193 852 193 c 2
 909.122 193 l 1
 911.48 146.696 914.117 107.045 917 76 c 0
 921 30 945 0 993 0 c 2
 1340 0 l 2
 1388 0 1413 29 1416 76 c 0
 1418.63 111.472 1421.01 150.747 1423.14 193 c 1
 1484 193 l 2
 2104 193 2222 158 2222 803 c 0
 2222 1429 2085 1399 1484 1399 c 2
 1425.05 1399 l 1
 1422.46 1445.77 1419.44 1486.33 1416 1519 c 0
 1411 1565 1388 1595 1340 1595 c 2
 993 1595 l 2
EndSplineSet
EndChar

StartChar: afii10040
Encoding: 1062 1062 152
Width: 1788
VWidth: 0
Flags: HW
PickledData: "(dp1
S'com.typemytype.robofont.layerData'
p2
(dp3
s."
LayerCount: 2
Fore
SplineSet
1552 0 m 2
 1600 0 1624 30 1628 76 c 0
 1648 327 1648 570 1648 805 c 0
 1648 1052 1647 1290 1628 1519 c 0
 1624 1566 1600 1595 1552 1595 c 2
 1090 1595 l 2
 1042 1595 1014 1567 1014 1519 c 2
 1014 259.5 l 2
 1014 221.5 1012 219.5 974 219.5 c 2
 815 219.5 l 2
 777 219.5 775 221.5 775 259.5 c 2
 775 1519 l 2
 775 1567 747 1595 699 1595 c 2
 237 1595 l 2
 189 1595 166 1567 161 1519 c 0
 140 1312 140 1047 140 785 c 0
 140 526 140 270 161 76 c 0
 166 29 189 0 237 0 c 2
 1552 0 l 2
EndSplineSet
EndChar

StartChar: afii10041
Encoding: 1063 1063 153
Width: 1550
VWidth: 0
Flags: HW
PickledData: "(dp1
S'com.typemytype.robofont.layerData'
p2
(dp3
s."
LayerCount: 2
Fore
SplineSet
1485 75.8877 m 2
 1485 28.3975 1456.6 0 1409.11 0 c 2
 956.887 0 l 2
 909.397 0 881 28.3975 881 75.8877 c 2
 881 342.404 l 2
 881 379.699 858.699 402 821.404 402 c 2
 729 402 l 2
 419 402 104 428 104 793 c 2
 104 1204 l 2
 104 1559 414 1595 730 1595 c 2
 1409.11 1595 l 2
 1456.6 1595 1485 1566.6 1485 1519.11 c 2
 1485 75.8877 l 2
882 1302.4 m 2
 882 1339.7 859.699 1362 822.404 1362 c 2
 768.596 1362 l 2
 731.301 1362 709 1339.7 709 1302.4 c 2
 709 687.596 l 2
 709 650.301 731.301 628 768.596 628 c 2
 822.404 628 l 2
 859.699 628 882 650.301 882 687.596 c 2
 882 1302.4 l 2
EndSplineSet
EndChar

StartChar: afii10042
Encoding: 1064 1064 154
Width: 1788
VWidth: 0
Flags: HW
PickledData: "(dp1
S'com.typemytype.robofont.layerData'
p2
(dp3
s."
LayerCount: 2
Fore
SplineSet
1552 0 m 2
 1600 0 1624 30 1628 76 c 0
 1648 327 1648 570 1648 805 c 0
 1648 1052 1647 1290 1628 1519 c 0
 1624 1566 1600 1595 1552 1595 c 2
 1090 1595 l 2
 1042 1595 1014 1567 1014 1519 c 2
 1014 259.5 l 2
 1014 221.5 1012 219.5 974 219.5 c 2
 815 219.5 l 2
 777 219.5 775 221.5 775 259.5 c 2
 775 1519 l 2
 775 1567 747 1595 699 1595 c 2
 237 1595 l 2
 189 1595 166 1567 161 1519 c 0
 140 1312 140 1047 140 785 c 0
 140 526 140 270 161 76 c 0
 166 29 189 0 237 0 c 2
 1552 0 l 2
EndSplineSet
EndChar

StartChar: afii10043
Encoding: 1065 1065 155
Width: 1788
VWidth: 0
Flags: HW
PickledData: "(dp1
S'com.typemytype.robofont.layerData'
p2
(dp3
s."
LayerCount: 2
Fore
SplineSet
1552 0 m 2
 1600 0 1624 30 1628 76 c 0
 1648 327 1648 570 1648 805 c 0
 1648 1052 1647 1290 1628 1519 c 0
 1624 1566 1600 1595 1552 1595 c 2
 1090 1595 l 2
 1042 1595 1014 1567 1014 1519 c 2
 1014 259.5 l 2
 1014 221.5 1012 219.5 974 219.5 c 2
 815 219.5 l 2
 777 219.5 775 221.5 775 259.5 c 2
 775 1519 l 2
 775 1567 747 1595 699 1595 c 2
 237 1595 l 2
 189 1595 166 1567 161 1519 c 0
 140 1312 140 1047 140 785 c 0
 140 526 140 270 161 76 c 0
 166 29 189 0 237 0 c 2
 1552 0 l 2
EndSplineSet
EndChar

StartChar: afii10044
Encoding: 1066 1066 156
Width: 1550
VWidth: 0
Flags: HW
PickledData: "(dp1
S'com.typemytype.robofont.layerData'
p2
(dp3
s."
LayerCount: 2
Fore
SplineSet
104 1519.11 m 2
 104 1566.6 132.397 1595 179.887 1595 c 2
 632.113 1595 l 2
 679.603 1595 708 1566.6 708 1519.11 c 2
 708 1002.6 l 2
 708 990.333 719.075 983 737.596 983 c 2
 860 983 l 2
 1170 983 1485 957 1485 592 c 2
 1485 391 l 2
 1485 36 1175 0 859 0 c 2
 179.887 0 l 2
 132.397 0 104 28.4004 104 75.8896 c 2
 104 1519.11 l 2
707 262.6 m 2
 707 244.075 718.075 233 736.596 233 c 2
 820.404 233 l 2
 857.699 233 880 255.3 880 292.6 c 2
 880 697.404 l 2
 880 734.699 857.699 757 820.404 757 c 2
 736.596 757 l 2
 718.075 757 707 745.925 707 727.404 c 2
 707 262.6 l 2
EndSplineSet
EndChar

StartChar: afii10045
Encoding: 1067 1067 157
Width: 1550
VWidth: 0
Flags: HW
PickledData: "(dp1
S'com.typemytype.robofont.layerData'
p2
(dp3
s."
LayerCount: 2
Fore
SplineSet
104 1519.11 m 2
 104 1566.6 132.397 1595 179.887 1595 c 2
 632.113 1595 l 2
 679.603 1595 708 1566.6 708 1519.11 c 2
 708 1002.6 l 2
 708 990.333 719.075 983 737.596 983 c 2
 860 983 l 2
 1170 983 1485 957 1485 592 c 2
 1485 391 l 2
 1485 36 1175 0 859 0 c 2
 179.887 0 l 2
 132.397 0 104 28.4004 104 75.8896 c 2
 104 1519.11 l 2
707 262.6 m 2
 707 244.075 718.075 233 736.596 233 c 2
 820.404 233 l 2
 857.699 233 880 255.3 880 292.6 c 2
 880 697.404 l 2
 880 734.699 857.699 757 820.404 757 c 2
 736.596 757 l 2
 718.075 757 707 745.925 707 727.404 c 2
 707 262.6 l 2
EndSplineSet
EndChar

StartChar: afii10046
Encoding: 1068 1068 158
Width: 1550
VWidth: 0
Flags: HW
PickledData: "(dp1
S'com.typemytype.robofont.layerData'
p2
(dp3
s."
LayerCount: 2
Fore
SplineSet
104 1519.11 m 2
 104 1566.6 132.397 1595 179.887 1595 c 2
 632.113 1595 l 2
 679.603 1595 708 1566.6 708 1519.11 c 2
 708 1002.6 l 2
 708 990.333 719.075 983 737.596 983 c 2
 860 983 l 2
 1170 983 1485 957 1485 592 c 2
 1485 391 l 2
 1485 36 1175 0 859 0 c 2
 179.887 0 l 2
 132.397 0 104 28.4004 104 75.8896 c 2
 104 1519.11 l 2
707 262.6 m 2
 707 244.075 718.075 233 736.596 233 c 2
 820.404 233 l 2
 857.699 233 880 255.3 880 292.6 c 2
 880 697.404 l 2
 880 734.699 857.699 757 820.404 757 c 2
 736.596 757 l 2
 718.075 757 707 745.925 707 727.404 c 2
 707 262.6 l 2
EndSplineSet
EndChar

StartChar: afii10047
Encoding: 1069 1069 159
Width: 1692
VWidth: 0
Flags: HW
PickledData: "(dp1
S'com.typemytype.robofont.layerData'
p2
(dp3
s."
LayerCount: 2
Fore
SplineSet
677 488 m 0
 680 315 696.433 315 792 315 c 2
 828 315 l 2
 921.644 315 930.146 314.157 930.913 687 c 1
 638 687 l 2
 591 687 562 716 562 763 c 2
 562 835 l 2
 562 882 591 911 638 911 c 2
 930.913 911 l 1
 930.072 1280.33 921.185 1282 828 1282 c 2
 792 1282 l 2
 695.105 1282 679 1278.76 677 1098 c 0
 677 1050 653 1022 607 1022 c 2
 169 1022 l 2
 127 1022 105 1058 105 1110 c 1
 132.824 1607.51 313.413 1631 815 1631 c 0
 1416 1631 1553 1568 1553 805 c 0
 1553 19 1435 -39 815 -39 c 0
 288.688 -39 128.986 -13.7314 105 495 c 1
 105 539 125 570 165 570 c 2
 614 570 l 2
 653 570 677 536 677 488 c 0
EndSplineSet
EndChar

StartChar: afii10048
Encoding: 1070 1070 160
Width: 2452
VWidth: 0
Flags: HW
PickledData: "(dp1
S'com.typemytype.robofont.layerData'
p2
(dp3
s."
LayerCount: 2
Fore
SplineSet
1631 315 m 2
 1529 315 1528 314 1528 796 c 0
 1528 1280 1529 1282 1631 1282 c 2
 1667 1282 l 2
 1780 1282 1783 1283 1783 799 c 0
 1783 315 1780 315 1667 315 c 2
 1631 315 l 2
957.938669849 688 m 1
 969.634499625 13.1147768647 1096.1657276 -39 1644 -39 c 0
 2205.54 -39 2338 21 2338 808 c 0
 2338 1573 2177.56 1631 1644 1631 c 0
 1110.09807405 1631 969.872455972 1573.78224658 957.871761765 908 c 1
 794 908 l 2
 756 908 754 912 754 950 c 2
 754 1519 l 2
 754 1567 726 1595 678 1595 c 2
 236 1595 l 2
 188 1595 164 1565 160 1519 c 0
 140 1268 140 1025 140 790 c 0
 140 543 141 305 160 76 c 0
 164 29 188 0 236 0 c 2
 678 0 l 2
 726 0 754 28 754 76 c 2
 754 648 l 2
 754 686 756 688 794 688 c 2
 957.938669849 688 l 1
EndSplineSet
EndChar

StartChar: afii10049
Encoding: 1071 1071 161
Width: 1680
VWidth: 0
Flags: HW
PickledData: "(dp1
S'com.typemytype.robofont.layerData'
p2
(dp3
s."
LayerCount: 2
Fore
SplineSet
980 1318 m 2
 980 1356 978 1358 940 1358 c 2
 867 1358 l 2
 829 1358 807 1336 807 1298 c 2
 807 941 l 2
 807 903 829 881 867 881 c 2
 942 881 l 2
 980 881 980 883 980 921 c 2
 980 1318 l 2
980 76 m 2
 980 609 l 2
 980 647 980 649 942 649 c 2
 878 649 l 2
 840 649 818 627 818 589 c 1
 747 76 l 1
 747 28 719 0 671 0 c 2
 216 0 l 2
 168 0 134 28 140 76 c 2
 203 562 l 2
 217 673 271 786 401 821 c 1
 258 874 220 991 220 1190 c 0
 220 1502 388 1595 677 1595 c 2
 1514 1595 l 2
 1562 1595 1586 1565 1591 1519 c 0
 1612 1310 1613 1036 1613 769 c 0
 1613 511 1607 259 1591 78 c 0
 1587 32 1567 0 1519 0 c 2
 1056 0 l 2
 1008 0 980 28 980 76 c 2
EndSplineSet
EndChar

StartChar: afii10050
Encoding: 1168 1168 162
Width: 1313
VWidth: 0
Flags: HW
PickledData: "(dp1
S'com.typemytype.robofont.layerData'
p2
(dp3
s."
LayerCount: 2
Fore
SplineSet
957 76 m 0
 971 265 978 562 978 842 c 0
 978 1033 975 1198 968 1326 c 1
 1297 1326 l 2
 1345 1326 1373 1354 1373 1402 c 2
 1373 1519 l 2
 1373 1567 1345 1595 1297 1595 c 2
 419 1595 l 2
 371 1595 344.729 1566.97 343 1519 c 0
 341 1463.5 332 1232.89 332 842 c 0
 332 531 340 216 353 76 c 0
 357 30 381 0 429 0 c 2
 881 0 l 2
 929 0 954 29 957 76 c 0
EndSplineSet
EndChar

StartChar: afii10052
Encoding: 1027 1027 164
Width: 1313
VWidth: 0
Flags: HW
PickledData: "(dp1
S'com.typemytype.robofont.layerData'
p2
(dp3
s."
LayerCount: 2
Fore
SplineSet
957 76 m 0
 971 265 978 562 978 842 c 0
 978 1033 975 1198 968 1326 c 1
 1297 1326 l 2
 1345 1326 1373 1354 1373 1402 c 2
 1373 1519 l 2
 1373 1567 1345 1595 1297 1595 c 2
 419 1595 l 2
 371 1595 344.729 1566.97 343 1519 c 0
 341 1463.5 332 1232.89 332 842 c 0
 332 531 340 216 353 76 c 0
 357 30 381 0 429 0 c 2
 881 0 l 2
 929 0 954 29 957 76 c 0
EndSplineSet
EndChar

StartChar: afii10053
Encoding: 1028 1028 165
Width: 1692
VWidth: 0
Flags: HW
PickledData: "(dp1
S'com.typemytype.robofont.layerData'
p2
(dp3
s."
LayerCount: 2
Fore
SplineSet
981 488 m 0
 978 315 961.567 315 866 315 c 2
 830 315 l 2
 736.356 315 727.842 314.157 727.075 687 c 1
 1020 687 l 2
 1067 687 1096 716 1096 763 c 2
 1096 835 l 2
 1096 882 1067 911 1020 911 c 2
 727.075 911 l 1
 727.915 1280.33 736.815 1282 830 1282 c 2
 866 1282 l 2
 962.895 1282 979 1278.76 981 1098 c 0
 981 1050 1005 1022 1051 1022 c 2
 1489 1022 l 2
 1531 1022 1553 1058 1553 1110 c 1
 1525.18 1607.51 1344.59 1631 843 1631 c 0
 242 1631 105 1568 105 805 c 0
 105 19 223 -39 843 -39 c 0
 1369.31 -39 1529.01 -13.7319 1553 495 c 1
 1553 539 1533 570 1493 570 c 2
 1044 570 l 2
 1005 570 981 536 981 488 c 0
EndSplineSet
EndChar

StartChar: afii10058
Encoding: 1033 1033 170
Width: 2534
VWidth: 0
Flags: HW
PickledData: "(dp1
S'com.typemytype.robofont.layerData'
p2
(dp3
s."
LayerCount: 2
Fore
SplineSet
260 1595 m 2
 212 1595 188 1565 184 1519 c 0
 171.22 1339.93 166.998 1282.56 166.998 990.704 c 0
 166.998 646.56 183 552.646 183 331.195 c 0
 183 293.9 160.699 271.6 123.404 271.6 c 2
 75.8867 271.6 l 2
 28.3975 271.6 0 243.202 0 195.712 c 2
 0 73.4766 l 2
 0 26.2197 28.0967 -5.95996 74.9209 -12.334 c 0
 137.129 -20.8018 198.098 -25.4004 256 -25.4004 c 0
 561.286 -25.4004 797 89.5996 797 407.6 c 2
 798 1335.5 l 2
 798 1373.5 800 1375.5 838 1375.5 c 2
 997 1375.5 l 2
 1035 1375.5 1037 1373.5 1037 1335.5 c 2
 1037 76 l 2
 1037 28 1065 0 1113 0 c 2
 1822 0 l 2
 2138 0 2448 36 2448 391 c 2
 2448 542 l 2
 2448 907 2133 933 1823 933 c 2
 1730.6 933 l 1
 1671.42 932.85 l 1
 1670.07 1148.92 1665.64 1352.51 1651 1519 c 0
 1646 1566 1623 1595 1575 1595 c 2
 260 1595 l 2
1672 685.52 m 1
 1673.91 699.13 1680.19 707 1689.6 707 c 2
 1783.4 707 l 2
 1820.7 707 1843 684.699 1843 647.404 c 2
 1843 292.6 l 2
 1843 255.3 1820.7 233 1783.4 233 c 2
 1689.6 233 l 2
 1677.33 233 1670 244.075 1670 262.6 c 2
 1672 685.52 l 1
EndSplineSet
EndChar

StartChar: afii10059
Encoding: 1034 1034 171
Width: 2397
VWidth: 0
Flags: HW
PickledData: "(dp1
S'com.typemytype.robofont.layerData'
p2
(dp3
s."
LayerCount: 2
Fore
SplineSet
1089 1595 m 2
 1551 1595 l 2
 1599 1595 1622 1566 1627 1519 c 0
 1643.28 1354.53 1646.94 1149.3 1647.76 933.39 c 1
 1799 933 l 2
 2109 932.202 2424 907 2424 542 c 2
 2424 391 l 2
 2424 36 2114 0 1798 0 c 2
 1551 0 l 1
 1329 0 l 1
 1089 0 l 2
 1041 0 1013 28 1013 76 c 2
 1013 648 l 2
 1013 686 1011 688 973 688 c 2
 814 688 l 2
 776 688 774 686 774 648 c 2
 774 76 l 2
 774 28 746 0 698 0 c 2
 236 0 l 2
 188 0 164 29 160 76 c 0
 141 305 140 543 140 790 c 0
 140 1025 140 1268 160 1519 c 0
 164 1565 188 1595 236 1595 c 2
 698 1595 l 2
 746 1595 774 1567 774 1519 c 2
 774 950 l 2
 774 912 776 908 814 908 c 2
 973 908 l 2
 1011 908 1013 912 1013 950 c 2
 1013 1519 l 2
 1013 1567 1041 1595 1089 1595 c 2
1648 685.52 m 1
 1646 262.6 l 2
 1646 244.075 1653.33 233 1665.6 233 c 2
 1759.4 233 l 2
 1796.7 233 1819 255.3 1819 292.6 c 2
 1819 647.404 l 2
 1819 684.699 1796.7 707 1759.4 707 c 2
 1665.6 707 l 2
 1656.19 707 1649.91 699.13 1648 685.52 c 1
EndSplineSet
EndChar

StartChar: afii10067
Encoding: 1074 1074 177
Width: 1666
VWidth: 0
Flags: HW
PickledData: "(dp1
S'com.typemytype.robofont.layerData'
p2
(dp3
s."
LayerCount: 2
Fore
SplineSet
764 257 m 2
 729 257 727 259 727 290 c 2
 727 579 l 2
 727 610 729 612 764 612 c 2
 856 612 l 2
 891 612 911 594 911 563 c 2
 911 306 l 2
 911 275 891 257 856 257 c 2
 764 257 l 2
764 738 m 2
 729 738 727 740 727 771 c 2
 727 1013 l 2
 727 1044 729 1046 764 1046 c 2
 856 1046 l 2
 891 1046 911 1028 911 997 c 2
 911 787 l 2
 911 756 891 738 856 738 c 2
 764 738 l 2
971 0 m 2
 1329 0 1472 74 1472 375 c 0
 1472 528 1437 663 1154 714 c 1
 1401 743 1434 832 1434 995 c 0
 1434 1266 1214 1302 975 1302 c 2
 241 1302 l 2
 197 1302 175 1279 171 1240 c 0
 156 1061 148 866 148 667 c 0
 148 468 156 264 171 62 c 0
 174 25 197 0 241 0 c 2
 971 0 l 2
EndSplineSet
EndChar

StartChar: afii10068
Encoding: 1075 1075 178
Width: 1313
VWidth: 0
Flags: HW
PickledData: "(dp1
S'com.typemytype.robofont.layerData'
p2
(dp3
s."
LayerCount: 2
Fore
SplineSet
915 62 m 0
 928 216 934 459 934 687 c 0
 934 843 931 978 925 1082 c 1
 1228 1082 l 2
 1272 1082 1297 1105 1297 1144 c 2
 1297 1240 l 2
 1297 1279 1272 1302 1228 1302 c 2
 420 1302 l 2
 376 1302 352 1279 350 1240 c 0
 348 1195 340 1006 340 687 c 0
 340 433 347 176 359 62 c 0
 363 24 385 0 429 0 c 2
 845 0 l 2
 889 0 912 24 915 62 c 0
EndSplineSet
EndChar

StartChar: afii10069
Encoding: 1076 1076 179
Width: 1788
VWidth: 0
Flags: HW
PickledData: "(dp1
S'com.typemytype.robofont.layerData'
p2
(dp3
s."
LayerCount: 2
Fore
SplineSet
720 220 m 1
 818 1090 l 2
 821 1121 819 1122 854 1122 c 2
 936 1122 l 2
 971 1122 973 1121 973 1090 c 2
 973 220 l 1
 720 220 l 1
375 1302 m 2
 331 1302 309 1278 305 1240 c 1
 264 970 211 571 162 204 c 1
 39 204 l 2
 -5 204 -26 179 -31 142 c 1
 -33 83 -34 22 -34 -38 c 0
 -34 -87 -33 -136 -31 -184 c 1
 -25 -222 -5 -246 39 -246 c 2
 407 -246 l 2
 451 -246 477 -223 477 -184 c 2
 477 -33 l 2
 477 -2 479 0 514 0 c 2
 1175 0 l 2
 1210 0 1212 -2 1212 -33 c 2
 1212 -184 l 2
 1212 -223 1238 -246 1282 -246 c 2
 1652 -246 l 2
 1696 -246 1715 -223 1722 -184 c 1
 1726 -142 1727 -87 1727 -31 c 0
 1727 32 1726 95 1722 142 c 1
 1714 180 1696 204 1652 204 c 2
 1530 204 l 1
 1539 343 1539 502 1539 661 c 0
 1539 872 1539 1082 1520 1240 c 0
 1515 1278 1494 1302 1450 1302 c 2
 375 1302 l 2
EndSplineSet
EndChar

StartChar: afii10073
Encoding: 1079 1079 183
Width: 1436
VWidth: 0
Flags: HW
PickledData: "(dp1
S'com.typemytype.robofont.layerData'
p2
(dp3
s."
LayerCount: 2
Fore
SplineSet
123.84 903.189 m 0
 123.84 891.7 124.09 879.99 124.591 868.053 c 0
 125.458 847.358 140.334 834.646 163.687 834.646 c 2
 564.624 834.646 l 2
 608.314 834.646 634.44 857.82 634.44 896.572 c 2
 634.44 1061 l 2
 634.44 1091.44 654.957 1109.64 689.269 1109.64 c 2
 737.852 1109.64 l 2
 772.163 1109.64 792.68 1091.44 792.68 1061 c 2
 792.68 807.388 l 2
 792.68 776.955 772.163 758.758 737.852 758.758 c 2
 624.216 758.758 l 2
 580.525 758.758 554.4 735.586 554.4 696.834 c 2
 554.4 637.897 l 2
 554.4 599.146 580.525 575.974 624.216 575.974 c 2
 737.852 575.974 l 2
 772.163 575.974 792.68 557.776 792.68 527.344 c 2
 792.68 239.452 l 2
 792.68 209.02 772.163 190.821 737.852 190.821 c 2
 689.269 190.821 l 2
 654.957 190.821 634.44 209.02 634.44 239.452 c 2
 634.44 437.346 l 2
 634.44 476.098 608.314 499.27 564.624 499.27 c 2
 168.799 499.27 l 2
 142.265 499.27 124.871 484.459 123.79 460.943 c 0
 123.167 447.388 122.92 434.051 122.92 420.934 c 0
 122.92 114.934 306 -32.7627 716.32 -32.7627 c 0
 1079.72 -32.7627 1314.32 63.5254 1314.32 425.014 c 0
 1314.32 522.211 1269.06 601.432 1177.37 647.783 c 0
 1152.83 660.189 1152.65 676.974 1176.92 689.787 c 0
 1260.11 733.723 1312.48 805.401 1312.48 907.27 c 0
 1312.48 1227.96 1112.84 1330.77 714.48 1330.77 c 0
 327.16 1330.77 123.84 1225.51 123.84 903.189 c 0
EndSplineSet
EndChar

StartChar: afii10074
Encoding: 1080 1080 184
Width: 1715
VWidth: 0
Flags: HW
PickledData: "(dp1
S'com.typemytype.robofont.layerData'
p2
(dp3
s."
LayerCount: 2
Fore
SplineSet
238 0 m 2
 194 0 170 23 168 62 c 0
 156 285 148 466 148 676 c 0
 148 856 153 1066 168 1240 c 0
 171 1278 194 1302 238 1302 c 2
 507 1302 l 2
 551 1302 577 1279 577 1240 c 2
 577 730 l 2
 577 719 583 713 589 713 c 0
 594 713 598 716 603 723 c 2
 939 1248 l 2
 962 1284 996 1302 1043 1302 c 2
 1379 1302 l 2
 1423 1302 1446 1279 1449 1240 c 0
 1462 1054 1468 863 1468 667 c 0
 1468 471 1462 269 1449 62 c 0
 1446 23 1423 0 1379 0 c 2
 1106 0 l 2
 1062 0 1037 23 1037 62 c 2
 1037 531 l 2
 1037 542 1031 548 1025 548 c 0
 1020 548 1015 545 1010 538 c 2
 699 54 l 2
 675 18 641 0 594 0 c 2
 238 0 l 2
EndSplineSet
EndChar

StartChar: afii10076
Encoding: 1082 1082 186
Width: 1725
VWidth: 0
Flags: HW
PickledData: "(dp1
S'com.typemytype.robofont.layerData'
p2
(dp3
s."
LayerCount: 2
Fore
SplineSet
1510 0 m 2
 1549 0 1567 25 1551 56 c 2
 1250 644 l 2
 1235 674 1235 703 1250 733 c 2
 1513 1245 l 2
 1529 1276 1511 1302 1472 1302 c 2
 1042 1302 l 2
 996 1302 964 1282 948 1244 c 2
 785 859 l 2
 772 829 754 778 745 747 c 2
 732 703 l 2
 729 694 721 690 711 691 c 1
 710 691 l 1
 700 692 694 699 695 708 c 2
 703 811 l 1
 703 1240 l 2
 703 1279 677 1302 633 1302 c 2
 216 1302 l 2
 172 1302 146 1279 146 1240 c 2
 146 62 l 2
 146 23 172 0 216 0 c 2
 633 0 l 2
 677 0 703 23 703 62 c 2
 703 401 l 1
 696 503 l 2
 695 524 704 540 724 551 c 1
 725 552 l 1
 743 562 760 557 767 539 c 2
 969 58 l 2
 985 20 1017 0 1063 0 c 2
 1510 0 l 2
EndSplineSet
EndChar

StartChar: afii10077
Encoding: 1083 1083 187
Width: 1788
VWidth: 0
Flags: HW
PickledData: "(dp1
S'com.typemytype.robofont.layerData'
p2
(dp3
s."
LayerCount: 2
Fore
SplineSet
304 1302 m 2
 260 1302 238 1278 234 1240 c 0
 222 1094 219 1046 219 808 c 0
 219 527 233 451 233 270 c 0
 233 240 213 222 179 222 c 2
 135 222 l 2
 91 222 65 199 65 160 c 2
 65 60 l 2
 65 21 91 -5 134 -10 c 0
 191 -17 248 -21 301 -21 c 0
 582 -21 798 74 798 333 c 2
 799 1090 l 2
 799 1121 801 1122 836 1122 c 2
 982 1122 l 2
 1017 1122 1019 1121 1019 1090 c 2
 1019 62 l 2
 1019 23 1045 0 1089 0 c 2
 1514 0 l 2
 1558 0 1579 23 1584 62 c 0
 1603 231 1603 447 1603 661 c 0
 1603 872 1603 1082 1584 1240 c 0
 1579 1278 1558 1302 1514 1302 c 2
 304 1302 l 2
EndSplineSet
EndChar

StartChar: afii10078
Encoding: 1084 1084 188
Width: 2052
VWidth: 0
Flags: HW
PickledData: "(dp1
S'com.typemytype.robofont.layerData'
p2
(dp3
s."
LayerCount: 2
Fore
SplineSet
1372 62 m 1
 1375 23 1403 0 1447 0 c 2
 1708 0 l 2
 1749 0 1775 22 1775 58 c 0
 1775 61 1776 86 1776 135 c 0
 1776 276 1769 621 1714 1240 c 0
 1710 1279 1684 1302 1640 1302 c 2
 1153 1302 l 2
 1108 1302 1079 1279 1073 1240 c 2
 977 587 l 2
 977 583 972 580 967 580 c 0
 961 580 957 583 956 587 c 2
 848 1240 l 2
 842 1279 813 1302 768 1302 c 2
 282 1302 l 2
 238 1302 212 1279 208 1240 c 0
 153 644 146 293 146 144 c 0
 146 86 147 58 147 58 c 2
 147 22 173 0 214 0 c 2
 489 0 l 2
 533 0 561 23 564 62 c 1
 588 766 l 1
 729 61 l 2
 736 22 763 0 808 0 c 2
 1117 0 l 2
 1162 0 1189 22 1197 61 c 2
 1347 766 l 1
 1372 62 l 1
EndSplineSet
EndChar

StartChar: afii10079
Encoding: 1085 1085 189
Width: 1788
VWidth: 0
Flags: HW
PickledData: "(dp1
S'com.typemytype.robofont.layerData'
p2
(dp3
s."
LayerCount: 2
Fore
SplineSet
1021 1302 m 2
 977 1302 951 1279 951 1240 c 2
 951 775 l 2
 951 744 949 741 914 741 c 2
 768 741 l 2
 733 741 731 744 731 775 c 2
 731 1240 l 2
 731 1279 705 1302 661 1302 c 2
 236 1302 l 2
 192 1302 170 1278 166 1240 c 0
 148 1035 148 837 148 645 c 0
 148 443 149 249 166 62 c 0
 170 24 192 0 236 0 c 2
 661 0 l 2
 705 0 731 23 731 62 c 2
 731 529 l 2
 731 560 733 561 768 561 c 2
 914 561 l 2
 949 561 951 560 951 529 c 2
 951 62 l 2
 951 23 977 0 1021 0 c 2
 1446 0 l 2
 1490 0 1511 23 1516 62 c 0
 1535 231 1535 447 1535 661 c 0
 1535 872 1535 1082 1516 1240 c 0
 1511 1278 1490 1302 1446 1302 c 2
 1021 1302 l 2
EndSplineSet
EndChar

StartChar: afii10081
Encoding: 1087 1087 191
Width: 1788
VWidth: 0
Flags: HW
PickledData: "(dp1
S'com.typemytype.robofont.layerData'
p2
(dp3
s."
LayerCount: 2
Fore
SplineSet
236 1302 m 2
 192 1302 170 1278 166 1240 c 0
 148 1035 148 837 148 645 c 0
 148 443 149 249 166 62 c 0
 170 24 192 0 236 0 c 2
 661 0 l 2
 705 0 731 23 731 62 c 2
 731 1090 l 2
 731 1121 733 1122 768 1122 c 2
 914 1122 l 2
 949 1122 951 1121 951 1090 c 2
 951 62 l 2
 951 23 977 0 1021 0 c 2
 1446 0 l 2
 1490 0 1511 23 1516 62 c 0
 1535 231 1535 447 1535 661 c 0
 1535 872 1535 1082 1516 1240 c 0
 1511 1278 1490 1302 1446 1302 c 2
 236 1302 l 2
EndSplineSet
EndChar

StartChar: afii10084
Encoding: 1090 1090 194
Width: 1313
VWidth: 0
Flags: HW
PickledData: "(dp1
S'com.typemytype.robofont.layerData'
p2
(dp3
s."
LayerCount: 2
Fore
SplineSet
915 62 m 0
 928 216 934 459 934 687 c 0
 934 843 931 978 925 1082 c 1
 1172 1082 l 2
 1216 1082 1242 1105 1242 1144 c 2
 1242 1240 l 2
 1242 1279 1216 1302 1172 1302 c 2
 104 1302 l 2
 60 1302 34 1279 34 1240 c 2
 34 1144 l 2
 34 1105 60 1082 104 1082 c 2
 348 1082 l 1
 342 982 340 841 340 687 c 0
 340 433 347 176 359 62 c 0
 363 24 385 0 429 0 c 2
 845 0 l 2
 889 0 912 24 915 62 c 0
EndSplineSet
EndChar

StartChar: afii10086
Encoding: 1092 1092 196
Width: 2336
VWidth: 0
Flags: HW
PickledData: "(dp1
S'com.typemytype.robofont.layerData'
p2
(dp3
s."
LayerCount: 2
Fore
SplineSet
1398 394 m 1
 1400 489 1401 589 1401 687 c 0
 1401 763 1400 838 1399 908 c 1
 1505 908 l 2
 1599 908 1599 909 1599 650 c 0
 1599 397 1599 395 1505 395 c 2
 1398 394 l 1
907 394 m 1
 803 395 l 2
 709 395 709 397 709 650 c 0
 709 909 709 908 803 908 c 2
 906 908 l 1
 905 838 904 763 904 687 c 0
 904 587 905 486 907 394 c 1
993 1302 m 2
 949 1302 929 1278 923 1240 c 0
 919 1219 917 1185 914 1142 c 1
 863 1142 l 2
 310 1142 184 1166 184 655 c 0
 184 129 293 157 863 157 c 2
 916 157 l 1
 918 119 920 87 923 62 c 0
 927 24 949 0 993 0 c 2
 1312 0 l 2
 1356 0 1379 24 1382 62 c 0
 1384 91 1387 123 1389 157 c 1
 1445 157 l 2
 2015 157 2124 129 2124 655 c 0
 2124 1166 1998 1142 1445 1142 c 2
 1390 1142 l 1
 1388 1180 1385 1213 1382 1240 c 0
 1377 1278 1356 1302 1312 1302 c 2
 993 1302 l 2
EndSplineSet
EndChar

StartChar: afii10088
Encoding: 1094 1094 198
Width: 1788
VWidth: 0
Flags: HW
PickledData: "(dp1
S'com.typemytype.robofont.layerData'
p2
(dp3
s."
LayerCount: 2
Fore
SplineSet
1447 0 m 2
 1491 0 1513 24 1517 62 c 0
 1535 267 1535 465 1535 657 c 0
 1535 859 1534 1053 1517 1240 c 0
 1513 1278 1491 1302 1447 1302 c 2
 1022 1302 l 2
 978 1302 952 1279 952 1240 c 2
 952 212 l 2
 952 181 950 180 915 180 c 2
 769 180 l 2
 734 180 732 181 732 212 c 2
 732 1240 l 2
 732 1279 706 1302 662 1302 c 2
 237 1302 l 2
 193 1302 172 1279 167 1240 c 0
 148 1071 148 855 148 641 c 0
 148 430 148 220 167 62 c 0
 172 24 193 0 237 0 c 2
 1447 0 l 2
EndSplineSet
EndChar

StartChar: afii10090
Encoding: 1096 1096 200
Width: 1788
VWidth: 0
Flags: HW
PickledData: "(dp1
S'com.typemytype.robofont.layerData'
p2
(dp3
s."
LayerCount: 2
Fore
SplineSet
1447 0 m 2
 1491 0 1513 24 1517 62 c 0
 1535 267 1535 465 1535 657 c 0
 1535 859 1534 1053 1517 1240 c 0
 1513 1278 1491 1302 1447 1302 c 2
 1022 1302 l 2
 978 1302 952 1279 952 1240 c 2
 952 212 l 2
 952 181 950 180 915 180 c 2
 769 180 l 2
 734 180 732 181 732 212 c 2
 732 1240 l 2
 732 1279 706 1302 662 1302 c 2
 237 1302 l 2
 193 1302 172 1279 167 1240 c 0
 148 1071 148 855 148 641 c 0
 148 430 148 220 167 62 c 0
 172 24 193 0 237 0 c 2
 1447 0 l 2
EndSplineSet
EndChar

StartChar: afii10091
Encoding: 1097 1097 201
Width: 1788
VWidth: 0
Flags: HW
PickledData: "(dp1
S'com.typemytype.robofont.layerData'
p2
(dp3
s."
LayerCount: 2
Fore
SplineSet
1447 0 m 2
 1491 0 1513 24 1517 62 c 0
 1535 267 1535 465 1535 657 c 0
 1535 859 1534 1053 1517 1240 c 0
 1513 1278 1491 1302 1447 1302 c 2
 1022 1302 l 2
 978 1302 952 1279 952 1240 c 2
 952 212 l 2
 952 181 950 180 915 180 c 2
 769 180 l 2
 734 180 732 181 732 212 c 2
 732 1240 l 2
 732 1279 706 1302 662 1302 c 2
 237 1302 l 2
 193 1302 172 1279 167 1240 c 0
 148 1071 148 855 148 641 c 0
 148 430 148 220 167 62 c 0
 172 24 193 0 237 0 c 2
 1447 0 l 2
EndSplineSet
EndChar

StartChar: afii10092
Encoding: 1098 1098 202
Width: 1550
VWidth: 0
Flags: HW
PickledData: "(dp1
S'com.typemytype.robofont.layerData'
p2
(dp3
s."
LayerCount: 2
Fore
SplineSet
164 1240 m 2
 164 1279 190 1302 234 1302 c 2
 650 1302 l 2
 694 1302 720 1279 720 1240 c 2
 720 818 l 2
 720 808 730 802 747 802 c 2
 860 802 l 2
 1145 802 1435 781 1435 483 c 2
 1435 319 l 2
 1435 29 1150 0 859 0 c 2
 234 0 l 2
 190 0 164 23 164 62 c 2
 164 1240 l 2
719 214 m 2
 719 199 729 190 746 190 c 2
 823 190 l 2
 857 190 878 209 878 239 c 2
 878 569 l 2
 878 599 857 618 823 618 c 2
 746 618 l 2
 729 618 719 609 719 594 c 2
 719 214 l 2
EndSplineSet
EndChar

StartChar: afii10093
Encoding: 1099 1099 203
Width: 1550
VWidth: 0
Flags: HW
PickledData: "(dp1
S'com.typemytype.robofont.layerData'
p2
(dp3
s."
LayerCount: 2
Fore
SplineSet
164 1240 m 2
 164 1279 190 1302 234 1302 c 2
 650 1302 l 2
 694 1302 720 1279 720 1240 c 2
 720 818 l 2
 720 808 730 802 747 802 c 2
 860 802 l 2
 1145 802 1435 781 1435 483 c 2
 1435 319 l 2
 1435 29 1150 0 859 0 c 2
 234 0 l 2
 190 0 164 23 164 62 c 2
 164 1240 l 2
719 214 m 2
 719 199 729 190 746 190 c 2
 823 190 l 2
 857 190 878 209 878 239 c 2
 878 569 l 2
 878 599 857 618 823 618 c 2
 746 618 l 2
 729 618 719 609 719 594 c 2
 719 214 l 2
EndSplineSet
EndChar

StartChar: afii10094
Encoding: 1100 1100 204
Width: 1550
VWidth: 0
Flags: HW
PickledData: "(dp1
S'com.typemytype.robofont.layerData'
p2
(dp3
s."
LayerCount: 2
Fore
SplineSet
164 1240 m 2
 164 1279 190 1302 234 1302 c 2
 650 1302 l 2
 694 1302 720 1279 720 1240 c 2
 720 818 l 2
 720 808 730 802 747 802 c 2
 860 802 l 2
 1145 802 1435 781 1435 483 c 2
 1435 319 l 2
 1435 29 1150 0 859 0 c 2
 234 0 l 2
 190 0 164 23 164 62 c 2
 164 1240 l 2
719 214 m 2
 719 199 729 190 746 190 c 2
 823 190 l 2
 857 190 878 209 878 239 c 2
 878 569 l 2
 878 599 857 618 823 618 c 2
 746 618 l 2
 729 618 719 609 719 594 c 2
 719 214 l 2
EndSplineSet
EndChar

StartChar: afii10095
Encoding: 1101 1101 205
Width: 1692
VWidth: 0
Flags: HW
PickledData: "(dp1
S'com.typemytype.robofont.layerData'
p2
(dp3
s."
LayerCount: 2
Fore
SplineSet
690.24 398.392 m 0
 693 257.224 708.118 257.224 796.04 257.224 c 2
 829.16 257.224 l 2
 915.312 257.224 923.135 256.536 923.84 560.776 c 1
 654.36 560.776 l 2
 611.12 560.776 584.44 584.44 584.44 622.792 c 2
 584.44 681.544 l 2
 584.44 719.896 611.12 743.56 654.36 743.56 c 2
 923.84 743.56 l 1
 923.067 1044.93 914.89 1046.3 829.16 1046.3 c 2
 796.04 1046.3 l 2
 706.897 1046.3 692.08 1043.65 690.24 896.152 c 0
 690.24 856.984 668.16 834.136 625.84 834.136 c 2
 222.88 834.136 l 2
 184.24 834.136 164 863.512 164 905.944 c 1
 189.599 1311.91 355.74 1331.08 817.2 1331.08 c 0
 1370.12 1331.08 1496.16 1279.67 1496.16 657.064 c 0
 1496.16 15.6885 1387.6 -31.6396 817.2 -31.6396 c 0
 332.994 -31.6396 186.067 -11.0215 164 404.104 c 1
 164 440.008 182.4 465.304 219.2 465.304 c 2
 632.28 465.304 l 2
 668.16 465.304 690.24 437.56 690.24 398.392 c 0
EndSplineSet
EndChar

StartChar: afii10096
Encoding: 1102 1102 206
Width: 2452
VWidth: 0
Flags: HW
PickledData: "(dp1
S'com.typemytype.robofont.layerData'
p2
(dp3
s."
LayerCount: 2
Fore
SplineSet
1519 257 m 2
 1425 257 1425 257 1425 650 c 0
 1425 1045 1425 1046 1519 1046 c 2
 1553 1046 l 2
 1657 1046 1659 1047 1659 652 c 0
 1659 257 1657 257 1553 257 c 2
 1519 257 l 2
900 561 m 1
 911 10 1027 -32 1531 -32 c 0
 2048 -32 2170 17 2170 659 c 0
 2170 1283 2022 1331 1531 1331 c 0
 1040 1331 911 1284 900 741 c 1
 749 741 l 2
 714 741 713 744 713 775 c 2
 713 1240 l 2
 713 1279 687 1302 643 1302 c 2
 236 1302 l 2
 192 1302 170 1278 166 1240 c 0
 148 1035 148 837 148 645 c 0
 148 443 149 249 166 62 c 0
 170 24 192 0 236 0 c 2
 643 0 l 2
 687 0 713 23 713 62 c 2
 713 529 l 2
 713 560 714 561 749 561 c 2
 900 561 l 1
EndSplineSet
EndChar

StartChar: afii10097
Encoding: 1103 1103 207
Width: 1680
VWidth: 0
Flags: HW
PickledData: "(dp1
S'com.typemytype.robofont.layerData'
p2
(dp3
s."
LayerCount: 2
Fore
SplineSet
986 1075 m 2
 986 1106 984 1108 949 1108 c 2
 882 1108 l 2
 847 1108 827 1090 827 1059 c 2
 827 768 l 2
 827 737 847 719 882 719 c 2
 951 719 l 2
 986 719 986 721 986 752 c 2
 986 1075 l 2
986 62 m 2
 986 497 l 2
 986 528 986 530 951 530 c 2
 892 530 l 2
 857 530 837 512 837 481 c 1
 772 62 l 1
 772 23 746 0 702 0 c 2
 283 0 l 2
 239 0 207 23 213 62 c 2
 271 459 l 2
 284 550 333 641 453 670 c 1
 321 713 287 809 287 971 c 0
 287 1226 441 1302 707 1302 c 2
 1477 1302 l 2
 1521 1302 1543 1278 1548 1240 c 0
 1567 1069 1568 846 1568 628 c 0
 1568 417 1563 212 1548 64 c 0
 1544 26 1526 0 1482 0 c 2
 1056 0 l 2
 1012 0 986 23 986 62 c 2
EndSplineSet
EndChar

StartChar: afii10101
Encoding: 1108 1108 211
Width: 1692
VWidth: 0
Flags: HW
PickledData: "(dp1
S'com.typemytype.robofont.layerData'
p2
(dp3
s."
LayerCount: 2
Fore
SplineSet
969.92 398.392 m 0
 967.16 257.224 952.042 257.224 864.12 257.224 c 2
 831 257.224 l 2
 744.848 257.224 737.015 256.536 736.31 560.776 c 1
 1005.8 560.776 l 2
 1049.04 560.776 1075.72 584.44 1075.72 622.792 c 2
 1075.72 681.544 l 2
 1075.72 719.896 1049.04 743.56 1005.8 743.56 c 2
 736.31 743.56 l 1
 737.083 1044.93 745.271 1046.3 831 1046.3 c 2
 864.12 1046.3 l 2
 953.263 1046.3 968.08 1043.65 969.92 896.152 c 0
 969.92 856.984 992 834.136 1034.32 834.136 c 2
 1437.28 834.136 l 2
 1475.92 834.136 1496.16 863.512 1496.16 905.944 c 1
 1470.56 1311.91 1304.42 1331.08 842.96 1331.08 c 0
 290.04 1331.08 164 1279.67 164 657.064 c 0
 164 15.6885 272.56 -31.6396 842.96 -31.6396 c 0
 1327.17 -31.6396 1474.09 -11.0215 1496.16 404.104 c 1
 1496.16 440.008 1477.76 465.304 1440.96 465.304 c 2
 1027.88 465.304 l 2
 992 465.304 969.92 437.56 969.92 398.392 c 0
EndSplineSet
EndChar

StartChar: ampersand
Encoding: 38 38 226
Width: 1653
VWidth: 0
Flags: HW
PickledData: "(dp1
S'com.typemytype.robofont.layerData'
p2
(dp3
s."
LayerCount: 2
Fore
SplineSet
746.596 224 m 2
 709.301 224 687 246.301 687 283.596 c 2
 687 676.404 l 2
 687 713.699 709.301 736 746.596 736 c 2
 836.404 736 l 2
 873.699 736 896 713.699 896 676.404 c 2
 896 283.596 l 2
 896 246.301 873.699 224 836.404 224 c 2
 746.596 224 l 2
359 840.5 m 2
 359 828.671 352.355 821.231 340.605 819.867 c 2
 247 809 l 2
 126 795 85 569 85 456 c 0
 85 16 361 -40 766 -40 c 0
 1312 -40 1442 75 1442 513 c 2
 1442 676.404 l 2
 1442 713.699 1464.3 736 1501.6 736 c 2
 1518.5 736 l 2
 1565.12 736 1593 763.878 1593 810.5 c 2
 1593 854.5 l 2
 1593 901.122 1565.12 929 1518.5 929 c 2
 1501.6 929 l 2
 1464.3 929 1442 951.301 1442 988.596 c 2
 1442 999.5 l 2
 1442 1042.37 1416.37 1068 1373.5 1068 c 2
 964.5 1068 l 2
 921.633 1068 896 1042.37 896 999.5 c 2
 896 988.596 l 2
 896 951.301 873.699 929 836.404 929 c 2
 746.596 929 l 2
 709.301 929 687 951.301 687 988.596 c 2
 687 1332.4 l 2
 687 1369.7 709.301 1392 746.596 1392 c 2
 833.404 1392 l 2
 870.699 1392 893 1369.7 893 1332.4 c 2
 893 1259.89 l 2
 893 1212.4 921.397 1184 968.887 1184 c 2
 1413.08 1184 l 2
 1428.81 1184 1439.82 1194.21 1440.99 1209.9 c 0
 1441.71 1219.55 1442 1228.92 1442 1238 c 0
 1442 1522 1220 1632 806 1632 c 0
 453 1632 84 1594 84 1198 c 0
 84 958 180 880 247 873 c 2
 340.605 862.971 l 2
 352.349 861.713 359 854.311 359 842.5 c 2
 359 840.5 l 2
EndSplineSet
EndChar

StartChar: asciicircum
Encoding: 94 94 229
Width: 1222
VWidth: 0
Flags: HW
PickledData: "(dp1
S'com.typemytype.robofont.layerData'
p2
(dp3
s."
LayerCount: 2
Fore
SplineSet
393.887 676 m 2
 343.545 676 307.668 652.638 287.305 606.598 c 2
 76.6951 130.402 l 2
 59.6094 91.7713 79.6465 61 121.887 61 c 2
 450.113 61 l 2
 499.65 61 532.69 86.4869 545.268 134.401 c 2
 594.869 323.357 l 2
 600.689 345.529 619.724 345.64 625.802 323.538 c 2
 677.878 134.171 l 2
 691.032 86.3382 724.279 61 773.887 61 c 2
 1103.11 61 l 2
 1145.13 61 1164.84 91.7724 1147.28 129.939 c 2
 927.723 607.061 l 2
 906.655 652.845 870.511 676 820.113 676 c 2
 393.887 676 l 2
EndSplineSet
EndChar

StartChar: asciitilde
Encoding: 126 126 230
Width: 1424
VWidth: 0
Flags: HW
PickledData: "(dp1
S'com.typemytype.robofont.layerData'
p2
(dp3
s."
LayerCount: 2
Fore
SplineSet
1278.99 642 m 2
 1325.72 642 1354.27 671.21 1353.21 717.933 c 0
 1346.28 1022.01 1289.33 1201 1008 1201 c 0
 754 1201 670 1008 481 1008 c 0
 420.423 1008 389.904 1047.27 376.955 1100.49 c 0
 363.311 1156.57 338.582 1176 280.872 1176 c 2
 147.152 1176 l 2
 101.175 1176 72.5542 1146.09 74.5776 1100.16 c 0
 86.0421 839.913 165.238 616 480 616 c 0
 715 616 784 806 950 806 c 0
 1003.89 806 1034.39 768.765 1048.1 717.383 c 0
 1063.26 660.534 1087.39 642 1146.23 642 c 2
 1278.99 642 l 2
EndSplineSet
EndChar

StartChar: asterisk
Encoding: 42 42 231
Width: 1321
VWidth: 0
Flags: HW
PickledData: "(dp1
S'com.typemytype.robofont.layerData'
p2
(dp3
s."
LayerCount: 2
Fore
SplineSet
877 430 m 0
 957 430 1044 500 1044 581 c 0
 1044 649.133 941.932 742.984 818.491 858.229 c 0
 802.413 873.24 811.276 889.049 832.431 883.175 c 0
 950.795 850.309 1068.64 817 1128 817 c 0
 1214 817 1254 889 1254 962 c 0
 1254 1037 1211 1112 1128 1112 c 0
 1067.02 1112 949.236 1077.33 832.308 1043.47 c 0
 811.084 1037.32 801.972 1053.11 817.925 1068.42 c 0
 944.5 1189.84 1045 1282.58 1045 1351 c 0
 1045 1430 957 1497 877 1497 c 0
 836 1497 798 1480 774 1440 c 0
 741.186 1384.73 709.863 1260.12 678.1 1137.63 c 0
 672.445 1115.82 653.785 1115.87 648.229 1137.74 c 0
 617.119 1260.19 585.805 1384.75 553 1440 c 0
 529 1480 490 1497 450 1497 c 0
 369 1497 282 1431 282 1351 c 0
 282 1282.51 380.255 1190.48 507.981 1068.31 c 0
 523.91 1053.08 514.846 1037.32 493.646 1043.47 c 0
 376.96 1077.32 259.964 1112 199 1112 c 0
 116 1112 73 1037 73 962 c 0
 73 889 113 817 198 817 c 0
 257.381 817 375.248 849.588 493.646 882.894 c 0
 514.619 888.793 523.378 873.219 507.411 858.399 c 0
 383.347 743.245 282 650.057 282 581 c 0
 282 502 368 430 450 430 c 0
 562.052 430 591.434 572.562 647.391 782.533 c 0
 653.333 804.83 672.668 804.88 678.72 782.628 c 0
 711.445 662.303 743.966 540.724 775 489 c 0
 800 447 838 430 877 430 c 0
EndSplineSet
EndChar

StartChar: at
Encoding: 64 64 232
Width: 2198
VWidth: 0
Flags: HW
PickledData: "(dp1
S'com.typemytype.robofont.layerData'
p2
(dp3
s."
LayerCount: 2
Fore
SplineSet
2133 878 m 0
 2133 1508 1840 1741 1148 1741 c 0
 440 1741 74 1495 74 687 c 0
 74 -177 425 -393 1240 -393 c 0
 1414.09 -393 1572.47 -340.865 1697.02 -272.204 c 0
 1737.88 -249.684 1756.4 -208.39 1746.06 -162.902 c 2
 1720.92 -52.3791 l 2
 1710.33 -5.83837 1676.59 15.3807 1630.06 4.75667 c 0
 1419.1 -43.4073 1312.04 -58 1222 -58 c 0
 589 -58 428 59 428 692 c 0
 428 1204 565 1424 1152 1424 c 0
 1587 1424 1777 1339 1777 832 c 2
 1777 389.596 l 2
 1777 352.301 1754.7 330 1717.4 330 c 2
 1666.6 330 l 2
 1629.3 330 1607 352.301 1607 389.596 c 2
 1607 837 l 2
 1607 1146 1496 1248 1138 1248 c 0
 858 1248 663 1204 663 956 c 0
 663 944.163 663.265 932.326 663.522 920.489 c 0
 663.984 899.194 676.446 887 697.747 887 c 2
 1049.5 887 l 2
 1091.12 887 1116 911.884 1116 953.5 c 2
 1116 993.5 l 2
 1116 1011.34 1126.66 1022 1144.5 1022 c 2
 1146.5 1022 l 2
 1164.34 1022 1175 1011.34 1175 993.5 c 2
 1175 852.015 l 2
 1175 815.983 1155.3 801.894 1121.2 813.547 c 0
 1075.42 829.193 1019.03 836 950 836 c 0
 708 836 612 732 612 493 c 0
 612 464 612 435 613 405 c 0
 620 199 733 113 950 113 c 0
 1041.86 113 1110.49 148.757 1161.39 195.427 c 0
 1190.73 222.326 1209.64 221.839 1237.56 193.463 c 0
 1292.6 137.524 1374.94 104.717 1477.23 92.8945 c 0
 1501.29 90.1133 1564.31 87.6624 1592.88 88.7293 c 0
 2050.73 105.824 2133 421.939 2133 878 c 0
1128.5 641 m 2
 1156.97 641 1174 623.974 1174 595.5 c 2
 1174 381.5 l 2
 1174 353.026 1156.97 336 1128.5 336 c 2
 1126.5 336 l 2
 1098.03 336 1081 353.026 1081 381.5 c 2
 1081 595.5 l 2
 1081 623.974 1098.03 641 1126.5 641 c 2
 1128.5 641 l 2
EndSplineSet
EndChar

StartChar: b
Encoding: 98 98 234
Width: 1563
VWidth: 0
Flags: HW
PickledData: "(dp1
S'com.typemytype.robofont.layerData'
p2
(dp3
s."
LayerCount: 2
Fore
SplineSet
1471 650 m 0
 1471 732 1465 819 1452 940 c 0
 1424 1201 1307 1327 1038 1327 c 0
 917 1327 824 1304 758 1255 c 0
 750 1249 742 1247 736 1247 c 0
 723 1247 714 1258 714 1278 c 2
 714 1634 l 2
 714 1682 686 1710 638 1710 c 2
 219 1710 l 2
 171 1710 145 1681 143 1634 c 0
 137 1458 128 1124 128 768 c 0
 128 534 132 290 143 76 c 0
 145 29 171 0 219 0 c 2
 604 0 l 2
 643 0 669 19 681 56 c 1
 681 54 l 1
 687 73 697 83 710 83 c 0
 719 83 729 79 739 70 c 0
 807 8 916 -27 1035 -27 c 0
 1313 -27 1421 109 1452 377 c 0
 1465 486 1471 566 1471 650 c 0
774 199 m 2
 736 199 714 221 714 259 c 2
 714 1045 l 2
 714 1083 736 1105 774 1105 c 2
 821 1105 l 2
 859 1105 876 1078 881 1045 c 0
 896 944 903 803 903 658 c 0
 903 517 896 372 881 259 c 0
 876 223 859 199 821 199 c 2
 774 199 l 2
EndSplineSet
EndChar

StartChar: backslash
Encoding: 92 92 235
Width: 1053
VWidth: 0
Flags: HW
PickledData: "(dp1
S'com.typemytype.robofont.layerData'
p2
(dp3
s."
LayerCount: 2
Fore
SplineSet
188.887 1595 m 2
 143.807 1595 119.621 1564.91 129.31 1520.89 c 2
 447.69 74.1042 l 2
 458.281 25.9792 490.611 0 539.887 0 c 2
 863.113 0 l 2
 908.185 0 932.359 30.0905 922.646 74.1042 c 2
 603.354 1520.89 l 2
 592.734 1569.01 560.393 1595 511.113 1595 c 2
 188.887 1595 l 2
EndSplineSet
EndChar

StartChar: bar
Encoding: 124 124 236
Width: 831
VWidth: 0
Flags: HW
PickledData: "(dp1
S'com.typemytype.robofont.layerData'
p2
(dp3
s."
LayerCount: 2
Fore
SplineSet
204.887 1795 m 2
 157.397 1795 129 1766.6 129 1719.11 c 2
 129 -24.1127 l 2
 129 -71.603 157.397 -100 204.887 -100 c 2
 624.113 -100 l 2
 671.603 -100 700 -71.603 700 -24.1127 c 2
 700 1719.11 l 2
 700 1766.6 671.603 1795 624.113 1795 c 2
 204.887 1795 l 2
EndSplineSet
EndChar

StartChar: braceleft
Encoding: 123 123 237
Width: 1132
VWidth: 0
Flags: HW
PickledData: "(dp1
S'com.typemytype.robofont.layerData'
p2
(dp3
s."
LayerCount: 2
Fore
SplineSet
274 1228 m 0
 258.861 1111.93 268.48 985.255 160.068 947.92 c 0
 100.593 927.438 85 905.577 85 842.673 c 2
 85 753.08 l 2
 85 689.497 100.166 667.996 160.068 646.677 c 0
 269.911 607.585 258.673 474.718 273 366 c 1
 308.22 -140.413 537.351 -313.373 1025.08 -328.839 c 0
 1071.49 -330.311 1101 -301.718 1101 -255.291 c 2
 1101 -132.561 l 2
 1101 -80.1277 1077.25 -53.1383 1025.24 -46.47 c 0
 598.256 8.27802 839.856 544.568 653.969 756.919 c 0
 625.332 789.633 625.081 804.268 652.554 837.913 c 0
 841.051 1068.76 597.191 1588.61 1024.21 1641.62 c 0
 1076.09 1648.06 1100 1675.12 1100 1727.4 c 2
 1100 1850.45 l 2
 1100 1896.76 1070.45 1925.33 1024.17 1923.77 c 0
 540.39 1907.48 340.62 1726.7 274 1228 c 0
EndSplineSet
EndChar

StartChar: braceright
Encoding: 125 125 238
Width: 1131
VWidth: 0
Flags: HW
PickledData: "(dp1
S'com.typemytype.robofont.layerData'
p2
(dp3
s."
LayerCount: 2
Fore
SplineSet
506.989 837.25 m 0
 534.102 804.271 533.846 789.585 505.598 757.564 c 0
 318.652 545.654 561.18 8.32607 133.748 -46.4711 c 0
 81.7477 -53.1376 58 -80.1241 58 -132.55 c 2
 58 -255.291 l 2
 58 -301.718 87.5135 -330.311 133.918 -328.839 c 0
 621.649 -313.373 850.78 -140.413 886 366 c 1
 900.327 474.718 889.085 607.585 998.928 646.677 c 0
 1058.83 667.996 1074 689.497 1074 753.08 c 2
 1074 842.673 l 2
 1074 905.577 1058.41 927.438 998.928 947.92 c 0
 890.516 985.255 900.139 1111.93 885 1228 c 0
 818.38 1726.7 618.61 1907.48 134.835 1923.77 c 0
 88.5492 1925.33 59 1896.76 59 1850.45 c 2
 59 1727.37 l 2
 59 1675.11 82.9053 1648.05 134.772 1641.62 c 0
 562.225 1588.57 317.479 1067.76 506.989 837.25 c 0
EndSplineSet
EndChar

StartChar: bracketleft
Encoding: 91 91 239
Width: 1108
VWidth: 0
Flags: HW
PickledData: "(dp1
S'com.typemytype.robofont.layerData'
p2
(dp3
s."
LayerCount: 2
Fore
SplineSet
85 -243 m 2
 85 -291 113 -319 161 -319 c 2
 1004 -319 l 2
 1052 -319 1060 -291 1060 -243 c 2
 1060 -154 l 2
 1060 -106 1052 -78 1004 -78 c 2
 759 -78 l 2
 721 -78 719 -66 719 -28 c 2
 719 1527 l 2
 719 1565 721 1577 759 1577 c 2
 1004 1577 l 2
 1052 1577 1060 1605 1060 1653 c 2
 1060 1743 l 2
 1060 1791 1052 1819 1004 1819 c 2
 161 1819 l 2
 113 1819 85 1791 85 1743 c 2
 85 -243 l 2
EndSplineSet
EndChar

StartChar: bracketright
Encoding: 93 93 240
Width: 1108
VWidth: 0
Flags: HW
PickledData: "(dp1
S'com.typemytype.robofont.layerData'
p2
(dp3
s."
LayerCount: 2
Fore
SplineSet
1010 1743.11 m 2
 1010 1790.6 981.603 1819 934.113 1819 c 2
 91 1819 l 2
 43 1819 35 1790.6 35 1743.11 c 2
 35 1653.89 l 2
 35 1606.4 43 1578 91 1578 c 2
 336 1578 l 2
 374 1578 376 1566 376 1528 c 2
 376 -27 l 2
 376 -65 374 -77 336 -77 c 2
 91 -77 l 2
 43 -77 35 -105.397 35 -152.887 c 2
 35 -243.113 l 2
 35 -290.603 43 -319 91 -319 c 2
 934.113 -319 l 2
 981.603 -319 1010 -290.603 1010 -243.113 c 2
 1010 1743.11 l 2
EndSplineSet
EndChar

StartChar: breve
Encoding: 728 728 241
Width: 1062
VWidth: 0
Flags: HW
PickledData: "(dp1
S'com.typemytype.robofont.layerData'
p2
(dp3
s."
LayerCount: 2
Fore
SplineSet
996.794 1803.11 m 0
 999.62 1848.44 970.91 1879 925.483 1879 c 2
 786.708 1879 l 2
 732.862 1879 706.39 1856.43 697.869 1803.26 c 0
 687.698 1739.8 653.063 1701 537 1701 c 0
 420.937 1701 386.302 1739.8 376.131 1803.26 c 0
 367.61 1856.43 341.138 1879 287.292 1879 c 2
 148.517 1879 l 2
 103.09 1879 74.3798 1848.44 77.2063 1803.11 c 0
 92.285 1561.23 190.16 1398 537 1398 c 0
 883.84 1398 981.715 1561.23 996.794 1803.11 c 0
EndSplineSet
EndChar

StartChar: brokenbar
Encoding: 166 166 242
Width: 831
VWidth: 0
Flags: HW
PickledData: "(dp1
S'com.typemytype.robofont.layerData'
p2
(dp3
s."
LayerCount: 2
Fore
SplineSet
206.887 656 m 2
 159.397 656 131 627.603 131 580.113 c 2
 131 -179.113 l 2
 131 -226.603 159.397 -255 206.887 -255 c 2
 626.113 -255 l 2
 673.603 -255 702 -226.603 702 -179.113 c 2
 702 580.113 l 2
 702 627.603 673.603 656 626.113 656 c 2
 206.887 656 l 2
206.887 1708 m 2
 159.397 1708 131 1679.6 131 1632.11 c 2
 131 872.887 l 2
 131 825.397 159.397 797 206.887 797 c 2
 626.113 797 l 2
 673.603 797 702 825.397 702 872.887 c 2
 702 1632.11 l 2
 702 1679.6 673.603 1708 626.113 1708 c 2
 206.887 1708 l 2
EndSplineSet
EndChar

StartChar: bullet
Encoding: 8226 8226 243
Width: 1120
VWidth: 0
Flags: HW
PickledData: "(dp1
S'com.typemytype.robofont.layerData'
p2
(dp3
s."
LayerCount: 2
Fore
SplineSet
579 1254 m 0
 213 1254 71 1102 71 726 c 0
 71 381 181 195 577 195 c 0
 947 195 1053 407 1053 726 c 0
 1053 1076 921 1254 579 1254 c 0
EndSplineSet
EndChar

StartChar: c
Encoding: 99 99 244
Width: 1525
VWidth: 0
Flags: HW
PickledData: "(dp1
S'com.typemytype.robofont.layerData'
p2
(dp3
s."
LayerCount: 2
Fore
SplineSet
1421 792 m 0
 1421 845 1414 898 1404 952 c 0
 1338 1292 1083 1327 764 1327 c 0
 467 1327 163 1293 115 953 c 0
 100 848 102 743 102 641 c 0
 102 542 100 445 115 353 c 0
 175 -7 445 -27 763 -27 c 0
 1068 -27 1334 -12 1404 352 c 0
 1414 405 1420 454 1421 502 c 0
 1421 505 1419 524 1404 524 c 2
 878 524 l 2
 865 524 863 515 863 493 c 2
 863 393 l 2
 863 282 862 233 772 233 c 2
 746 233 l 2
 653 233 653 276 653 391 c 2
 653 955 l 2
 653 1073 653 1105 746 1105 c 2
 772 1105 l 2
 863 1105 863 1070 863 955 c 2
 863 801 l 2
 863 782 869 774 884 774 c 2
 1408 774 l 2
 1420 774 1421 784 1421 792 c 0
EndSplineSet
EndChar

StartChar: caron
Encoding: 711 711 246
Width: 954
VWidth: 0
Flags: HW
PickledData: "(dp1
S'com.typemytype.robofont.layerData'
p2
(dp3
s."
LayerCount: 2
Fore
SplineSet
478 1411 m 0
 531 1411 586 1432 619 1483 c 2
 882 1892 l 2
 894 1911 900 1929 900 1945 c 0
 900 1982 872 2008 837 2008 c 0
 819 2008 799 2001 780 1986 c 2
 524.092 1787.52 l 2
 493.372 1763.7 460.628 1763.7 429.908 1787.52 c 2
 174 1986 l 2
 156 2000 137 2006 120 2006 c 0
 84 2006 54 1981 54 1944 c 0
 54 1929 60 1911 72 1892 c 2
 335 1483 l 2
 366 1435 423 1411 478 1411 c 0
EndSplineSet
EndChar

StartChar: cedilla
Encoding: 184 184 251
Width: 948
VWidth: 0
Flags: HW
PickledData: "(dp1
S'com.typemytype.robofont.layerData'
p2
(dp3
s."
LayerCount: 2
Fore
SplineSet
384 -104.113 m 2
 384 -151.603 412.397 -180 459.887 -180 c 2
 514.404 -180 l 2
 551.699 -180 574 -202.301 574 -239.596 c 2
 574 -340.5 l 2
 574 -359.587 562.587 -371 543.5 -371 c 2
 541.5 -371 l 2
 522.413 -371 511 -359.587 511 -340.5 c 2
 511 -304 l 2
 511 -264.427 485.764 -242.113 446.489 -246.957 c 2
 310.797 -263.695 l 2
 293.643 -265.811 284 -276.716 284 -294 c 2
 284 -323 l 2
 284 -457 389 -481 538 -481 c 0
 678 -481 791 -460 791 -323 c 2
 791 -228 l 2
 791 -111.604 715.402 -75.846 594.999 -70.6862 c 0
 573.032 -69.7448 561 -57.186 561 -35.2292 c 2
 561 -34 l 2
 561 -12.7228 548.277 0 527 0 c 2
 459.887 0 l 2
 412.397 0 384 -28.397 384 -75.8873 c 2
 384 -104.113 l 2
EndSplineSet
EndChar

StartChar: cent
Encoding: 162 162 252
Width: 1462
VWidth: 0
Flags: HW
PickledData: "(dp1
S'com.typemytype.robofont.layerData'
p2
(dp3
s."
LayerCount: 2
Fore
SplineSet
960.887 633 m 2
 913.397 633 885 604.603 885 557.113 c 2
 885 422 l 2
 885 391.336 866.664 373 836 373 c 2
 834 373 l 2
 803.336 373 785 391.336 785 422 c 2
 785 1070 l 2
 785 1100.66 803.336 1119 834 1119 c 2
 836 1119 l 2
 866.664 1119 885 1100.66 885 1070 c 2
 885 956.887 l 2
 885 909.397 913.397 881 960.887 881 c 2
 1341.5 881 l 2
 1375.61 881 1396 901.394 1396 935.5 c 2
 1396 992 l 2
 1396 1283.85 1082.39 1333.28 844.554 1341.63 c 0
 806.564 1342.96 785 1365.3 785 1403.31 c 2
 785 1539.5 l 2
 785 1563.59 770.593 1578 746.5 1578 c 2
 744.5 1578 l 2
 720.407 1578 706 1563.59 706 1539.5 c 2
 706 1403.2 l 2
 706 1365.33 684.262 1343.04 646.408 1342.06 c 0
 379.295 1335.16 86 1286.19 86 969 c 2
 86 529 l 2
 86 209.648 365.892 155.366 646.408 147.949 c 0
 684.298 146.947 706 124.664 706 86.7603 c 2
 706 -35.5 l 2
 706 -59.5933 720.407 -74 744.5 -74 c 2
 746.5 -74 l 2
 770.593 -74 785 -59.5933 785 -35.5 c 2
 785 86.7982 l 2
 785 124.658 806.764 146.963 844.612 147.894 c 0
 1118.76 154.632 1396 203.238 1396 523 c 2
 1396 579 l 2
 1396 612.793 1375.79 633 1342 633 c 2
 960.887 633 l 2
653 1119 m 2
 686.167 1119 706 1099.17 706 1066 c 2
 706 426 l 2
 706 392.833 686.167 373 653 373 c 2
 651 373 l 2
 617.833 373 598 392.833 598 426 c 2
 598 1066 l 2
 598 1099.17 617.833 1119 651 1119 c 2
 653 1119 l 2
EndSplineSet
EndChar

StartChar: circumflex
Encoding: 710 710 253
Width: 954
VWidth: 0
Flags: HW
PickledData: "(dp1
S'com.typemytype.robofont.layerData'
p2
(dp3
s."
LayerCount: 2
Fore
SplineSet
54 1475 m 0
 54 1438 84 1413 120 1413 c 0
 137 1413 156 1419 174 1433 c 2
 429.908 1631.48 l 2
 460.628 1655.3 493.372 1655.3 524.092 1631.48 c 2
 780 1433 l 2
 799 1418 819 1411 837 1411 c 0
 872 1411 900 1437 900 1474 c 0
 900 1490 894 1508 882 1527 c 2
 619 1936 l 2
 586 1987 531 2008 478 2008 c 0
 423 2008 366 1984 335 1936 c 2
 72 1527 l 2
 60 1508 54 1490 54 1475 c 0
EndSplineSet
EndChar

StartChar: colon
Encoding: 58 58 254
Width: 691
VWidth: 0
Flags: HW
PickledData: "(dp1
S'com.typemytype.robofont.layerData'
p2
(dp3
s."
LayerCount: 2
Fore
SplineSet
345 113 m 0
 447 113 549 183 549 323 c 0
 549 463 447 533 345 533 c 0
 243 533 141 463 141 323 c 0
 141 183 243 113 345 113 c 0
345 923 m 0
 447 923 549 993 549 1133 c 0
 549 1273 447 1343 345 1343 c 0
 243 1343 141 1273 141 1133 c 0
 141 993 243 923 345 923 c 0
EndSplineSet
EndChar

StartChar: comma
Encoding: 44 44 255
Width: 711
VWidth: 0
Flags: HW
PickledData: "(dp1
S'com.typemytype.robofont.layerData'
p2
(dp3
s."
LayerCount: 2
Fore
SplineSet
262.191 14.5872 m 0
 298.656 -0.418232 307.96 -56.8034 278.679 -82.3521 c 0
 261.712 -97.1565 240.538 -108.018 217.003 -114.594 c 0
 176.587 -125.888 164 -142.475 164 -182.905 c 2
 164 -210.599 l 2
 164 -223.454 172.169 -232.232 184.991 -233.153 c 0
 192.843 -233.718 200.562 -234 208 -234 c 0
 429 -234 555 -15 555 169 c 0
 555 298 489 409 345 409 c 0
 243 409 141 342 141 209 c 0
 141 107.526 194.214 42.5593 262.191 14.5872 c 0
EndSplineSet
EndChar

StartChar: copyright
Encoding: 169 169 256
Width: 1861
VWidth: 0
Flags: HW
PickledData: "(dp1
S'com.typemytype.robofont.layerData'
p2
(dp3
s."
LayerCount: 2
Fore
SplineSet
1780 539 m 2
 1780 1116 l 2
 1780 1610 1441 1749 932 1749 c 0
 490 1749 84 1638 84 1116 c 2
 84 539 l 2
 84 42 421 -101 932 -101 c 0
 1377 -101 1780 14 1780 539 c 2
932 1573 m 0
 1275 1573 1541 1500 1541 1165 c 2
 1541 482 l 2
 1541 156 1300 68 932 68 c 0
 523 68 323 169 323 535 c 2
 323 1114 l 2
 323 1471 520 1573 932 1573 c 0
835 1162.4 m 2
 835 1199.7 857.301 1222 894.596 1222 c 2
 974.404 1222 l 2
 1011.7 1222 1034 1199.7 1034 1162.4 c 2
 1034 988.887 l 2
 1034 941.397 1062.4 913 1109.89 913 c 2
 1235.11 913 l 2
 1282.6 913 1311 941.397 1311 988.887 c 2
 1311 1111 l 2
 1311 1366 1113 1381 916 1381 c 0
 687 1381 555 1334 555 1107 c 2
 555 547 l 2
 555 315 701 272 916 272 c 0
 1161 272 1311 312 1311 542 c 2
 1311 673.113 l 2
 1311 720.603 1282.6 749 1235.11 749 c 2
 1109.89 749 l 2
 1062.4 749 1034 720.603 1034 673.113 c 2
 1034 491.596 l 2
 1034 454.301 1011.7 432 974.404 432 c 2
 894.596 432 l 2
 857.301 432 835 454.301 835 491.596 c 2
 835 1162.4 l 2
EndSplineSet
EndChar

StartChar: currency
Encoding: 164 164 257
Width: 1390
VWidth: 0
Flags: HW
PickledData: "(dp1
S'com.typemytype.robofont.layerData'
p2
(dp3
s."
LayerCount: 2
Fore
SplineSet
978.727 329.367 m 0
 1020.02 339.777 1049.98 330.871 1078.88 299.595 c 2
 1143.08 230.118 l 2
 1167.14 204.082 1197.2 203.763 1221.81 229.28 c 2
 1223.19 230.72 l 2
 1248.35 256.812 1248.58 287.4 1223.8 313.857 c 2
 1188.7 351.338 l 2
 1161.55 380.331 1162.86 407.58 1192.69 433.818 c 0
 1284.76 514.818 1325 632.207 1325 804 c 0
 1325 986.86 1301.19 1106.48 1216.36 1192.38 c 0
 1187.55 1221.55 1187.06 1248.48 1214.81 1278.66 c 2
 1223.19 1287.78 l 2
 1247.76 1314.51 1247.4 1345.14 1222.19 1371.28 c 2
 1220.81 1372.72 l 2
 1196.23 1398.2 1166.2 1397.8 1142.33 1371.66 c 2
 1107.83 1333.89 l 2
 1078.99 1302.32 1049.54 1294.03 1008.46 1305.92 c 0
 919.92 1331.56 819.227 1343 697 1343 c 0
 572.985 1343 470.555 1331.53 381.4 1305.28 c 0
 340.249 1293.16 310.927 1301.27 281.851 1332.81 c 2
 245.635 1372.09 l 2
 221.792 1397.95 191.949 1398.2 167.69 1372.72 c 2
 166.31 1371.28 l 2
 141.371 1345.09 141.032 1314.6 165.384 1287.86 c 2
 175.061 1277.24 l 2
 203.119 1246.43 202.918 1219.91 174.396 1189.54 c 0
 92.4268 1102.25 68 976.07 68 804 c 0
 68 629.568 104.538 517.027 196.288 436.757 c 0
 226.164 410.619 227.634 383.247 200.727 354.06 c 2
 164.635 314.909 l 2
 140.151 288.35 140.398 257.882 165.31 231.724 c 2
 166.69 230.276 l 2
 190.959 204.794 220.81 205.011 244.705 230.844 c 2
 310.781 302.276 l 2
 339.969 333.831 369.35 342.375 410.907 331.392 c 0
 492.879 309.729 586.65 299.807 698 299 c 0
 806.962 299 897.033 308.772 978.727 329.367 c 0
637 1015 m 2
 637 1049.42 657.581 1070 692 1070 c 2
 694 1070 l 2
 728.419 1070 749 1049.42 749 1015 c 2
 749 625 l 2
 749 590.581 728.419 570 694 570 c 2
 692 570 l 2
 657.581 570 637 590.581 637 625 c 2
 637 1015 l 2
EndSplineSet
EndChar

StartChar: d
Encoding: 100 100 258
Width: 1478
VWidth: 0
Flags: HW
PickledData: "(dp1
S'com.typemytype.robofont.layerData'
p2
(dp3
s."
LayerCount: 2
Fore
SplineSet
85 940 m 2
 85 377 l 2
 85 106 224 -27 502 -27 c 0
 621.837 -27 728.873 8.70684 797.672 70.1668 c 0
 822.997 92.7907 845.892 86.604 856.375 54.3037 c 0
 868.592 18.6101 894.82 -3.55271e-15 932.927 0 c 2
 1318.11 0 l 2
 1365.6 0 1394 28.397 1394 75.8873 c 2
 1394 1634.11 l 2
 1394 1681.6 1365.6 1710 1318.11 1710 c 2
 898.887 1710 l 2
 851.397 1710 823 1681.6 823 1634.11 c 2
 823 1277.53 l 2
 823 1247.7 803.181 1237.7 779.181 1255.41 c 0
 712.859 1304.35 620.667 1327 500 1327 c 0
 228 1327 85 1203 85 940 c 2
822 258.596 m 2
 822 221.301 799.699 199 762.404 199 c 2
 714.596 199 l 2
 677.301 199 655 221.301 655 258.596 c 2
 655 1045.4 l 2
 655 1082.7 677.301 1105 714.596 1105 c 2
 762.404 1105 l 2
 799.699 1105 822 1082.7 822 1045.4 c 2
 822 258.596 l 2
EndSplineSet
EndChar

StartChar: dagger
Encoding: 8224 8224 259
Width: 1061
VWidth: 0
Flags: HW
PickledData: "(dp1
S'com.typemytype.robofont.layerData'
p2
(dp3
s."
LayerCount: 2
Fore
SplineSet
523 1627 m 0
 430 1627 338 1571 338 1457 c 0
 338 1372.55 382.387 1267 433.298 1163.31 c 0
 445.253 1138.96 429.641 1121.89 404.307 1131.64 c 0
 308.175 1168.64 220.907 1199 152 1199 c 0
 74 1199 34 1127 34 1056 c 0
 34 985 73 915 153 915 c 0
 220.031 915 305.316 944.487 399.442 980.518 c 0
 428.814 991.761 449.956 974.236 444.358 943.3 c 0
 387.965 631.668 341 360.26 341 220 c 0
 341 76 432 5 523 5 c 0
 617 5 712 79 712 222 c 0
 712 359.944 664.687 618.402 602.956 948.454 c 0
 597.21 979.177 618.485 996.85 647.642 985.561 c 0
 736.788 951.047 832.776 915 907 915 c 0
 986 915 1025 986 1025 1058 c 0
 1025 1128 986 1199 908 1199 c 0
 830.848 1199 731.673 1160.46 639.593 1124.49 c 0
 614.461 1114.67 598.736 1131.89 610.797 1156.04 c 0
 663.856 1262.26 713 1371.5 713 1458 c 0
 713 1569 617 1627 523 1627 c 0
EndSplineSet
EndChar

StartChar: daggerdbl
Encoding: 8225 8225 260
Width: 1061
VWidth: 0
Flags: HW
PickledData: "(dp1
S'com.typemytype.robofont.layerData'
p2
(dp3
s."
LayerCount: 2
Fore
SplineSet
153 673 m 0
 73 673 34 603 34 532 c 0
 34 461 74 389 152 389 c 0
 220.947 389 308.276 419.4 404.475 456.423 c 0
 429.715 466.136 445.289 449.108 433.385 424.867 c 0
 382.438 321.122 338 215.498 338 131 c 0
 338 17 430 -39 523 -39 c 0
 617 -39 713 19 713 130 c 0
 713 216.452 663.912 325.616 610.888 431.78 c 0
 598.792 455.999 614.577 473.286 639.756 463.45 c 0
 731.79 427.495 830.894 389 908 389 c 0
 986 389 1025 460 1025 530 c 0
 1025 602 986 673 907 673 c 0
 832.776 673 736.788 636.953 647.642 602.439 c 0
 616.263 590.29 592 606.915 592 640.563 c 2
 592 947.437 l 2
 592 981.085 616.263 997.71 647.642 985.561 c 0
 736.788 951.047 832.776 915 907 915 c 0
 986 915 1025 986 1025 1058 c 0
 1025 1128 986 1199 908 1199 c 0
 830.848 1199 731.673 1160.46 639.593 1124.49 c 0
 614.461 1114.67 598.736 1131.89 610.797 1156.04 c 0
 663.856 1262.26 713 1371.5 713 1458 c 0
 713 1569 617 1627 523 1627 c 0
 430 1627 338 1571 338 1457 c 0
 338 1372.55 382.387 1267 433.298 1163.31 c 0
 445.253 1138.96 429.641 1121.89 404.307 1131.64 c 0
 308.175 1168.64 220.907 1199 152 1199 c 0
 74 1199 34 1127 34 1056 c 0
 34 985 73 915 153 915 c 0
 220.031 915 305.316 944.487 399.442 980.518 c 0
 430.982 992.591 455 976.067 455 942.296 c 2
 455 645.704 l 2
 455 611.933 430.982 595.409 399.442 607.482 c 0
 305.316 643.513 220.031 673 153 673 c 0
EndSplineSet
EndChar

StartChar: dcaron
Encoding: 271 271 261
Width: 1478
VWidth: 0
Flags: HW
PickledData: "(dp1
S'com.typemytype.robofont.layerData'
p2
(dp3
s."
LayerCount: 2
Fore
SplineSet
1668.19 1315.59 m 0
 1704.66 1300.58 1713.96 1244.2 1684.68 1218.65 c 0
 1667.71 1203.84 1646.54 1192.98 1623 1186.41 c 0
 1582.59 1175.11 1570 1158.53 1570 1118.09 c 2
 1570 1090.4 l 2
 1570 1077.55 1578.17 1068.77 1590.99 1067.85 c 0
 1598.84 1067.28 1606.56 1067 1614 1067 c 0
 1835 1067 1961 1286 1961 1470 c 0
 1961 1599 1895 1710 1751 1710 c 0
 1649 1710 1547 1643 1547 1510 c 0
 1547 1408.53 1600.21 1343.56 1668.19 1315.59 c 0
85 940 m 2
 85 377 l 2
 85 106 224 -27 502 -27 c 0
 621.837 -27 728.873 8.70684 797.672 70.1668 c 0
 822.997 92.7907 845.892 86.604 856.375 54.3037 c 0
 868.592 18.6101 894.82 -3.55271e-15 932.927 0 c 2
 1318.11 0 l 2
 1365.6 0 1394 28.397 1394 75.8873 c 2
 1394 1634.11 l 2
 1394 1681.6 1365.6 1710 1318.11 1710 c 2
 898.887 1710 l 2
 851.397 1710 823 1681.6 823 1634.11 c 2
 823 1277.53 l 2
 823 1247.7 803.181 1237.7 779.181 1255.41 c 0
 712.859 1304.35 620.667 1327 500 1327 c 0
 228 1327 85 1203 85 940 c 2
822 258.596 m 2
 822 221.301 799.699 199 762.404 199 c 2
 714.596 199 l 2
 677.301 199 655 221.301 655 258.596 c 2
 655 1045.4 l 2
 655 1082.7 677.301 1105 714.596 1105 c 2
 762.404 1105 l 2
 799.699 1105 822 1082.7 822 1045.4 c 2
 822 258.596 l 2
EndSplineSet
EndChar

StartChar: dcroat
Encoding: 273 273 262
Width: 1478
VWidth: 0
Flags: HW
PickledData: "(dp1
S'com.typemytype.robofont.layerData'
p2
(dp3
s."
LayerCount: 2
Fore
SplineSet
85 940 m 2
 85 377 l 2
 85 106 224 -27 502 -27 c 0
 622 -27 773 18 834 75 c 0
 846 87 848 90 856 56 c 0
 866 12 894 0 933 0 c 2
 1318 0 l 2
 1366 0 1394 28 1394 76 c 2
 1394 1407 l 1
 1422 1407 l 2
 1470 1407 1478 1435 1478 1483 c 2
 1478 1521 l 2
 1478 1569 1470 1597 1422 1597 c 2
 1394 1597 l 1
 1394 1654 l 2
 1394 1702 1366 1710 1318 1710 c 2
 899 1710 l 2
 851 1710 823 1702 823 1654 c 2
 823 1597 l 1
 699 1597 l 2
 651 1597 645 1569 645 1521 c 2
 645 1483 l 2
 645 1435 651 1407 699 1407 c 2
 823 1407 l 1
 823 1278 l 2
 823 1248 823 1228 799 1245 c 0
 733 1294 621 1327 500 1327 c 0
 228 1327 85 1203 85 940 c 2
822 259 m 2
 822 221 800 199 762 199 c 2
 715 199 l 2
 677 199 655 221 655 259 c 2
 655 1045 l 2
 655 1083 677 1105 715 1105 c 2
 762 1105 l 2
 800 1105 822 1083 822 1045 c 2
 822 259 l 2
EndSplineSet
EndChar

StartChar: degree
Encoding: 176 176 263
Width: 812
VWidth: 0
Flags: HW
PickledData: "(dp1
S'com.typemytype.robofont.layerData'
p2
(dp3
s."
LayerCount: 2
Fore
SplineSet
404 1070 m 0
 612 1070 735 1218 735 1371 c 0
 735 1524 612 1672 404 1672 c 0
 196 1672 73 1524 73 1371 c 0
 73 1218 196 1070 404 1070 c 0
404 1222 m 0
 321 1222 263 1283 263 1371 c 0
 263 1459 321 1520 404 1520 c 0
 487 1520 545 1459 545 1371 c 0
 545 1283 487 1222 404 1222 c 0
EndSplineSet
EndChar

StartChar: dieresis
Encoding: 168 168 264
Width: 1296
VWidth: 0
Flags: HW
PickledData: "(dp1
S'com.typemytype.robofont.layerData'
p2
(dp3
s."
LayerCount: 2
Fore
SplineSet
158.887 418 m 2
 111.397 418 83 389.603 83 342.113 c 2
 83 157.887 l 2
 83 110.397 111.397 82 158.887 82 c 2
 457.113 82 l 2
 504.603 82 533 110.397 533 157.887 c 2
 533 342.113 l 2
 533 389.603 504.603 418 457.113 418 c 2
 158.887 418 l 2
841.887 418 m 2
 794.397 418 766 389.603 766 342.113 c 2
 766 157.887 l 2
 766 110.397 794.397 82 841.887 82 c 2
 1141.11 82 l 2
 1188.6 82 1217 110.397 1217 157.887 c 2
 1217 342.113 l 2
 1217 389.603 1188.6 418 1141.11 418 c 2
 841.887 418 l 2
EndSplineSet
EndChar

StartChar: divide
Encoding: 247 247 265
Width: 1286
VWidth: 0
Flags: HW
PickledData: "(dp1
S'com.typemytype.robofont.layerData'
p2
(dp3
s."
LayerCount: 2
Fore
SplineSet
901 483.113 m 2
 901 530.603 872.603 559 825.113 559 c 2
 469.887 559 l 2
 422.397 559 394 530.603 394 483.113 c 2
 394 167.887 l 2
 394 120.397 422.397 92 469.887 92 c 2
 825.113 92 l 2
 872.603 92 901 120.397 901 167.887 c 2
 901 483.113 l 2
901 1421.11 m 2
 901 1468.6 872.603 1497 825.113 1497 c 2
 469.887 1497 l 2
 422.397 1497 394 1468.6 394 1421.11 c 2
 394 1075.89 l 2
 394 1028.4 422.397 1000 469.887 1000 c 2
 825.113 1000 l 2
 872.603 1000 901 1028.4 901 1075.89 c 2
 901 1421.11 l 2
142.887 908 m 2
 95.397 908 67 879.603 67 832.113 c 2
 67 745.887 l 2
 67 698.397 95.397 670 142.887 670 c 2
 1153.11 670 l 2
 1200.6 670 1229 698.397 1229 745.887 c 2
 1229 832.113 l 2
 1229 879.603 1200.6 908 1153.11 908 c 2
 142.887 908 l 2
EndSplineSet
EndChar

StartChar: dollar
Encoding: 36 36 266
Width: 1434
VWidth: 0
Flags: HW
PickledData: "(dp1
S'com.typemytype.robofont.layerData'
p2
(dp3
s."
LayerCount: 2
Fore
SplineSet
725.5 -168 m 2
 749.593 -168 764 -153.593 764 -129.5 c 2
 764 -37.4792 l 2
 764 0.731971 785.383 23.1317 823.555 24.8596 c 0
 1170.8 40.5788 1378 142.556 1378 510 c 0
 1378 848.318 1091.35 931.258 822.45 985.499 c 0
 784.415 993.171 764 1018.12 764 1056.92 c 2
 764 1242.5 l 2
 764 1267.84 779.155 1283 804.5 1283 c 2
 806.5 1283 l 2
 831.845 1283 847 1267.84 847 1242.5 c 2
 847 1197.89 l 2
 847 1149.84 874.789 1120.33 922.751 1117.45 c 2
 1272.31 1096.43 l 2
 1318.02 1093.68 1348.4 1122.07 1348.75 1167.86 c 0
 1349.95 1322.26 1316.74 1443.9 1145 1500 c 1
 1054.2 1528.54 947.7 1540.62 823.555 1544.02 c 0
 785.663 1545.05 764 1567.31 764 1605.22 c 2
 764 1691.5 l 2
 764 1715.59 749.593 1730 725.5 1730 c 2
 723.5 1730 l 2
 699.407 1730 685 1715.59 685 1691.5 c 2
 685 1604.42 l 2
 685 1566.26 663.602 1543.89 625.473 1542.2 c 0
 307.822 1528.16 70 1439.85 70 1080 c 0
 70 735.481 350.691 649.861 626.402 596.881 c 0
 664.552 589.55 685 564.799 685 525.951 c 2
 685 324.5 l 2
 685 298.529 669.471 283 643.5 283 c 2
 641.5 283 l 2
 615.529 283 600 298.529 600 324.5 c 2
 600 374.113 l 2
 600 422.196 572.253 451.779 524.268 454.857 c 2
 174.088 477.313 l 2
 129.123 480.197 98.8198 451.223 99.6846 406.174 c 0
 103.363 214.57 165.773 119.041 301 71 c 0
 391.978 38.9412 499.472 26.4017 625.434 22.9738 c 0
 663.331 21.9424 685 -0.323846 685 -38.2354 c 2
 685 -129.5 l 2
 685 -153.593 699.407 -168 723.5 -168 c 2
 725.5 -168 l 2
847 323.5 m 2
 847 298.155 831.845 283 806.5 283 c 2
 804.5 283 l 2
 779.155 283 764 298.155 764 323.5 c 2
 764 530.736 l 2
 764 555.425 780.257 568.863 804.5 564.189 c 2
 806.5 563.811 l 2
 832.713 558.758 847 541.431 847 514.736 c 2
 847 323.5 l 2
600 1241.5 m 2
 600 1267.47 615.529 1283 641.5 1283 c 2
 643.5 1283 l 2
 669.471 1283 685 1267.47 685 1241.5 c 2
 685 1054.12 l 2
 685 1029.25 667.688 1015.46 643.447 1021.02 c 0
 642.78 1021.18 642.113 1021.33 641.448 1021.48 c 0
 614.378 1027.71 600 1045.77 600 1073.55 c 2
 600 1241.5 l 2
EndSplineSet
EndChar

StartChar: dotaccent
Encoding: 729 729 267
Width: 670
VWidth: 0
Flags: HW
PickledData: "(dp1
S'com.typemytype.robofont.layerData'
p2
(dp3
s."
LayerCount: 2
Fore
SplineSet
340 -39 m 0
 442 -39 544 31 544 171 c 0
 544 311 442 381 340 381 c 0
 238 381 136 311 136 171 c 0
 136 31 238 -39 340 -39 c 0
EndSplineSet
EndChar

StartChar: dotlessi
Encoding: 305 305 268
Width: 744
VWidth: 0
Flags: HW
PickledData: "(dp1
S'com.typemytype.robofont.layerData'
p2
(dp3
s."
LayerCount: 2
Fore
SplineSet
669 1222.11 m 2
 669 1269.6 640.603 1298 593.113 1298 c 2
 175.887 1298 l 2
 128.397 1298 100 1269.6 100 1222.11 c 2
 100 75.8873 l 2
 100 28.397 128.397 0 175.887 0 c 2
 593.113 0 l 2
 640.603 0 669 28.397 669 75.8873 c 2
 669 1222.11 l 2
EndSplineSet
EndChar

StartChar: e
Encoding: 101 101 269
Width: 1513
VWidth: 0
Flags: HW
PickledData: "(dp1
S'com.typemytype.robofont.layerData'
p2
(dp3
S'c'
(dp4
S'name'
p5
S'e'
sS'lib'
p6
(dp7
sS'unicodes'
p8
(tsS'width'
p9
I1513
sS'contours'
p10
((dp11
S'points'
p12
((dp13
S'segmentType'
p14
S'line'
p15
sS'x'
F676
sS'smooth'
p16
I01
sS'y'
F195
s(dp17
S'y'
F195
sS'x'
F523
sg16
I00
s(dp18
S'y'
F258
sS'x'
F503
sg16
I00
s(dp19
g14
S'curve'
p20
sS'x'
F503
sg16
I01
sS'y'
F373
s(dp21
g14
S'line'
p22
sS'x'
F503
sg16
I01
sS'y'
F935
s(dp23
S'y'
F1053
sS'x'
F503
sg16
I00
s(dp24
S'y'
F1105
sS'x'
F523
sg16
I00
s(dp25
g14
S'curve'
p26
sS'x'
F676
sg16
I01
sS'y'
F1105
s(dp27
g14
S'line'
p28
sS'x'
F882
sg16
I01
sS'y'
F1105
s(dp29
S'y'
F1105
sS'x'
F973
sg16
I00
s(dp30
S'y'
F1050
sS'x'
F1013
sg16
I00
s(dp31
g14
S'curve'
p32
sS'x'
F1013
sg16
I01
sS'y'
F935
s(dp33
g14
S'line'
p34
sS'x'
F1013
sg16
I01
sS'y'
F375
s(dp35
S'y'
F264
sS'x'
F1013
sg16
I00
s(dp36
S'y'
F195
sS'x'
F972
sg16
I00
s(dp37
g14
S'curve'
p38
sS'x'
F882
sg16
I01
sS'y'
F195
stp39
s(dp40
g12
((dp41
S'y'
F398
sS'x'
F1333
sg16
I00
s(dp42
S'y'
F527
sS'x'
F1338
sg16
I00
s(dp43
g14
S'curve'
p44
sS'x'
F1338
sg16
I01
sS'y'
F656
s(dp45
S'y'
F782
sS'x'
F1338
sg16
I00
s(dp46
S'y'
F907
sS'x'
F1333
sg16
I00
s(dp47
g14
S'curve'
p48
sS'x'
F1324
sg16
I01
sS'y'
F956
s(dp49
S'y'
F1296
sS'x'
F1258
sg16
I00
s(dp50
S'y'
F1327
sS'x'
F1083
sg16
I00
s(dp51
g14
S'curve'
p52
sS'x'
F764
sg16
I01
sS'y'
F1327
s(dp53
S'y'
F1327
sS'x'
F467
sg16
I00
s(dp54
S'y'
F1293
sS'x'
F243
sg16
I00
s(dp55
g14
S'curve'
p56
sS'x'
F195
sg16
I01
sS'y'
F953
s(dp57
S'y'
F901
sS'x'
F188
sg16
I00
s(dp58
S'y'
F774
sS'x'
F184
sg16
I00
s(dp59
g14
S'curve'
p60
sS'x'
F184
sg16
I01
sS'y'
F648
s(dp61
S'y'
F523
sS'x'
F184
sg16
I00
s(dp62
S'y'
F399
sS'x'
F188
sg16
I00
s(dp63
g14
S'curve'
p64
sS'x'
F195
sg16
I01
sS'y'
F353
s(dp65
S'y'
F-7
sS'x'
F255
sg16
I00
s(dp66
S'y'
F-27
sS'x'
F445
sg16
I00
s(dp67
g14
S'curve'
p68
sS'x'
F763
sg16
I01
sS'y'
F-27
s(dp69
S'y'
F-27
sS'x'
F1068
sg16
I00
s(dp70
S'y'
F-15
sS'x'
F1254
sg16
I00
s(dp71
g14
S'curve'
p72
sS'x'
F1324
sg16
I01
sS'y'
F349
stp73
stp74
sS'components'
p75
(tsS'anchors'
p76
(tsss."
LayerCount: 2
Fore
SplineSet
504 945 m 2
 504 1023 516 1105 634 1105 c 2
 879 1105 l 2
 987 1105 1013 1023 1013 945 c 2
 1013 817 l 2
 1013 779 1011 777 973 777 c 2
 544 777 l 2
 506 777 504 779 504 817 c 2
 504 945 l 2
783 -27 m 0
 1245 -27 1284 136 1301 272 c 0
 1306 313 1306 353 1305 372 c 0
 1302 403 1301 409 1270 409 c 2
 1058 409 l 2
 1014 409 1012 401 1012 353 c 0
 1012 255 990 195 872 195 c 2
 664 195 l 2
 532 195 504 256 504 374 c 2
 504 564 l 2
 504 602 506 604 544 604 c 2
 1251 604 l 2
 1299 604 1319 632 1327 680 c 0
 1334 723 1331 782 1326 835 c 0
 1294 1185 1241 1327 781 1327 c 0
 365 1327 253 1240 203 983 c 0
 189 912 184 773 184 658 c 0
 184 545 188 381 208 303 c 0
 260 97 289 -27 783 -27 c 0
EndSplineSet
EndChar

StartChar: eight
Encoding: 56 56 275
Width: 1427
VWidth: 0
Flags: HW
PickledData: "(dp1
S'com.typemytype.robofont.layerData'
p2
(dp3
s."
LayerCount: 2
Fore
SplineSet
200.049 894.936 m 0
 225.067 871.663 223.838 857.501 195.121 838.849 c 0
 82.2624 765.546 64 590.379 64 470 c 0
 64 75 287 -40 721 -40 c 0
 1100 -40 1368 34 1368 470 c 0
 1368 644.795 1320.36 787.828 1205.34 844.512 c 0
 1180.12 856.942 1178.98 873.1 1202.25 888.945 c 0
 1279.03 941.249 1310 1048.92 1310 1180 c 0
 1310 1528 1071 1631 719 1631 c 0
 366 1631 119 1529 119 1181 c 0
 119 1062.95 138.615 952.083 200.049 894.936 c 0
734.404 1355 m 2
 771.699 1355 794 1332.7 794 1295.4 c 2
 794 1019.6 l 2
 794 982.301 771.699 960 734.404 960 c 2
 699.596 960 l 2
 662.301 960 640 982.301 640 1019.6 c 2
 640 1295.4 l 2
 640 1332.7 662.301 1355 699.596 1355 c 2
 734.404 1355 l 2
628 660.404 m 2
 628 697.699 650.301 720 687.596 720 c 2
 734.404 720 l 2
 771.699 720 794 697.699 794 660.404 c 2
 794 294.596 l 2
 794 257.301 771.699 235 734.404 235 c 2
 687.596 235 l 2
 650.301 235 628 257.301 628 294.596 c 2
 628 660.404 l 2
EndSplineSet
EndChar

StartChar: ellipsis
Encoding: 8230 8230 276
Width: 2010
VWidth: 0
Flags: HW
PickledData: "(dp1
S'com.typemytype.robofont.layerData'
p2
(dp3
s."
LayerCount: 2
Fore
SplineSet
340 -39 m 0
 442 -39 544 31 544 171 c 0
 544 311 442 381 340 381 c 0
 238 381 136 311 136 171 c 0
 136 31 238 -39 340 -39 c 0
1010 -39 m 0
 1112 -39 1214 31 1214 171 c 0
 1214 311 1112 381 1010 381 c 0
 908 381 806 311 806 171 c 0
 806 31 908 -39 1010 -39 c 0
1680 -39 m 0
 1782 -39 1884 31 1884 171 c 0
 1884 311 1782 381 1680 381 c 0
 1578 381 1476 311 1476 171 c 0
 1476 31 1578 -39 1680 -39 c 0
EndSplineSet
EndChar

StartChar: emdash
Encoding: 8212 8212 278
Width: 1857
VWidth: 0
Flags: HW
PickledData: "(dp1
S'com.typemytype.robofont.layerData'
p2
(dp3
s."
LayerCount: 2
Fore
SplineSet
162.887 897 m 2
 115.397 897 87 868.603 87 821.113 c 2
 87 536.887 l 2
 87 489.397 115.397 461 162.887 461 c 2
 1696.11 461 l 2
 1743.6 461 1772 489.397 1772 536.887 c 2
 1772 821.113 l 2
 1772 868.603 1743.6 897 1696.11 897 c 2
 162.887 897 l 2
EndSplineSet
EndChar

StartChar: endash
Encoding: 8211 8211 279
Width: 1005
VWidth: 0
Flags: HW
PickledData: "(dp1
S'com.typemytype.robofont.layerData'
p2
(dp3
s."
LayerCount: 2
Fore
SplineSet
162.887 897 m 2
 115.397 897 87 868.603 87 821.113 c 2
 87 536.887 l 2
 87 489.397 115.397 461 162.887 461 c 2
 844.113 461 l 2
 891.603 461 920 489.397 920 536.887 c 2
 920 821.113 l 2
 920 868.603 891.603 897 844.113 897 c 2
 162.887 897 l 2
EndSplineSet
EndChar

StartChar: equal
Encoding: 61 61 281
Width: 1008
VWidth: 0
Flags: HW
PickledData: "(dp1
S'com.typemytype.robofont.layerData'
p2
(dp3
s."
LayerCount: 2
Fore
SplineSet
164.887 336 m 2
 117.397 336 89 307.603 89 260.113 c 2
 89 75.8873 l 2
 89 28.397 117.397 0 164.887 0 c 2
 847.113 0 l 2
 894.603 0 923 28.397 923 75.8873 c 2
 923 260.113 l 2
 923 307.603 894.603 336 847.113 336 c 2
 164.887 336 l 2
164.887 897 m 2
 117.397 897 89 868.603 89 821.113 c 2
 89 636.887 l 2
 89 589.397 117.397 561 164.887 561 c 2
 847.113 561 l 2
 894.603 561 923 589.397 923 636.887 c 2
 923 821.113 l 2
 923 868.603 894.603 897 847.113 897 c 2
 164.887 897 l 2
EndSplineSet
EndChar

StartChar: eth
Encoding: 240 240 282
Width: 1395
VWidth: 0
Flags: HW
PickledData: "(dp1
S'com.typemytype.robofont.layerData'
p2
(dp3
s."
LayerCount: 2
Fore
SplineSet
306.33 1576.95 m 2
 293.85 1557.95 298.595 1539.23 318.619 1528.47 c 2
 353 1510 l 2
 386.765 1491.77 421.897 1470.34 456.858 1448.19 c 0
 484.955 1430.38 485.505 1401.22 458.099 1382.37 c 2
 359.837 1314.78 l 2
 323.028 1289.46 314.546 1252.78 336.508 1213.87 c 2
 337.492 1212.13 l 2
 358.677 1174.6 394.342 1166.34 429.872 1190.73 c 2
 594.377 1303.66 l 2
 613.44 1316.75 634.636 1314.81 651.011 1298.49 c 0
 660.271 1289.26 669.268 1279.76 678 1270 c 0
 705.257 1239.87 737.144 1202.03 752.996 1155.73 c 0
 762.732 1127.29 741.083 1097 711.025 1097 c 2
 623 1097 l 2
 470 1097 349 1075 258 1021 c 0
 109 933 72 761 72 525 c 0
 72 408 80 306 112 221 c 0
 191 12 414 -37 708 -37 c 0
 880 -37 1017 -17 1119 45 c 0
 1326 171 1337 471 1337 807 c 0
 1337 894 1327 975 1308 1050 c 0
 1256.75 1250.51 1156.18 1407.37 1033.18 1535.83 c 0
 1007.87 1562.28 1010.86 1591.72 1040.99 1612.52 c 2
 1101.39 1654.22 l 2
 1138 1679.5 1146.24 1716.1 1124 1754.63 c 2
 1123 1756.37 l 2
 1101.47 1793.67 1065.8 1801.74 1030.31 1777.34 c 2
 930.334 1708.6 l 2
 897.029 1685.71 865.113 1686.09 832.36 1709.77 c 0
 733.496 1781.25 628.953 1839.92 511.086 1888.96 c 0
 511.043 1888.98 510.979 1888.96 510.958 1888.92 c 2
 510.053 1887.11 l 2
 510.026 1887.05 509.968 1886.95 509.935 1886.9 c 2
 306.33 1576.95 l 2
762 297.596 m 2
 762 260.301 739.699 238 702.404 238 c 2
 699.596 238 l 2
 662.301 238 640 260.301 640 297.596 c 2
 640 768.404 l 2
 640 805.699 662.301 828 699.596 828 c 2
 702.404 828 l 2
 739.699 828 762 805.699 762 768.404 c 2
 762 297.596 l 2
EndSplineSet
EndChar

StartChar: exclam
Encoding: 33 33 283
Width: 801
VWidth: 0
Flags: HW
PickledData: "(dp1
S'com.typemytype.robofont.layerData'
p2
(dp3
s."
LayerCount: 2
Fore
SplineSet
398 539 m 0
 423 539 447 562 458 607 c 0
 521 874 656 1253 656 1411 c 0
 656 1556 525 1631 396 1631 c 0
 270 1631 145 1560 145 1413 c 0
 145 1259 273 880 337 607 c 0
 348 561 373 539 398 539 c 0
398 -39 m 0
 500 -39 602 31 602 171 c 0
 602 311 500 381 398 381 c 0
 296 381 194 311 194 171 c 0
 194 31 296 -39 398 -39 c 0
EndSplineSet
EndChar

StartChar: f
Encoding: 102 102 285
Width: 1205
VWidth: 0
Flags: HW
PickledData: "(dp1
S'com.typemytype.robofont.layerData'
p2
(dp3
s."
LayerCount: 2
Fore
SplineSet
131.887 1300 m 2
 84 1300 56 1271.6 56 1224.11 c 2
 56 1173.89 l 2
 56 1126.4 84 1098 131.887 1098 c 2
 233 1098 l 2
 261 1098 263 1096 263 1068 c 2
 263 75.8873 l 2
 263 28 291.397 0 338.887 0 c 2
 758.113 0 l 2
 805.603 0 834 28 834 75.8873 c 2
 834 1068 l 2
 834 1086 836 1098 854 1098 c 2
 1072.11 1098 l 2
 1120 1098 1148 1126.4 1148 1173.89 c 2
 1148 1224.11 l 2
 1148 1271.6 1120 1300 1072.11 1300 c 2
 864 1300 l 2
 846 1300 834 1305 834 1323 c 0
 834 1425 846 1477 994 1477 c 2
 1063.11 1477 l 2
 1111 1477 1139 1505.4 1139 1552.89 c 2
 1139 1610.81 l 2
 1139 1657.3 1110.99 1692.18 1065.58 1702.2 c 0
 969.55 1723.41 870.01 1731 773 1731 c 0
 465.98 1731 278 1609 265 1330 c 0
 264 1308 260 1300 241 1300 c 2
 131.887 1300 l 2
EndSplineSet
EndChar

StartChar: five
Encoding: 53 53 286
Width: 1429
VWidth: 0
Flags: HW
PickledData: "(dp1
S'com.typemytype.robofont.layerData'
p2
(dp3
s."
LayerCount: 2
Fore
SplineSet
648.536 1037.57 m 0
 625.539 1021.84 607.892 1032.46 611.019 1060.14 c 2
 631.311 1239.78 l 2
 635.586 1277.63 659.51 1299 697.596 1299 c 2
 1153.11 1299 l 2
 1200.6 1299 1229 1327.4 1229 1374.89 c 2
 1229 1520.11 l 2
 1229 1567.6 1200.6 1596 1153.11 1596 c 2
 211.887 1596 l 2
 163.873 1596 134.433 1568.17 131.733 1520.23 c 2
 87.2674 730.767 l 2
 84.6287 683.917 111.963 655 158.887 655 c 2
 540.113 655 l 2
 587.603 655 616 683.397 616 730.887 c 2
 616 778.404 l 2
 616 815.699 638.301 838 675.596 838 c 2
 737.404 838 l 2
 774.699 838 797 815.699 797 778.404 c 2
 797 295.596 l 2
 797 258.301 774.699 236 737.404 236 c 2
 675.596 236 l 2
 638.301 236 616 258.301 616 295.596 c 2
 616 398.113 l 2
 616 445.603 587.603 474 540.113 474 c 2
 134.528 474 l 2
 92.2244 474 65.5335 445.653 68.0777 403.426 c 0
 69.5754 378.568 71.8828 354.379 75 331 c 0
 113 30 369 -39 714 -39 c 0
 1187 -39 1364 87 1364 553 c 0
 1364 881 1281 1105 955 1105 c 0
 826.123 1105 720.241 1086.6 648.536 1037.57 c 0
EndSplineSet
EndChar

StartChar: four
Encoding: 52 52 287
Width: 1459
VWidth: 0
Flags: HW
PickledData: "(dp1
S'com.typemytype.robofont.layerData'
p2
(dp3
s."
LayerCount: 2
Fore
SplineSet
1377 862.113 m 2
 1377 909.603 1348.6 938 1301.11 938 c 2
 940.887 938 l 2
 893.397 938 865 909.603 865 862.113 c 2
 865 662.596 l 2
 865 625.301 842.699 603 805.404 603 c 2
 675 603 l 2
 658.729 603 649 612.729 649 629 c 2
 649 631 l 2
 649 646.378 651.746 667.261 655.721 682.116 c 2
 880.383 1521.69 l 2
 891.887 1564.68 868.615 1595 824.113 1595 c 2
 402.887 1595 l 2
 353.303 1595 320.125 1569.61 307.165 1521.75 c 2
 92.8351 730.249 l 2
 81.0877 686.867 73 626.057 73 581.113 c 2
 73 315.887 l 2
 73 268.397 101.397 240 148.887 240 c 2
 805.404 240 l 2
 842.699 240 865 217.699 865 180.404 c 2
 865 75.8873 l 2
 865 28.397 893.397 0 940.887 0 c 2
 1301.11 0 l 2
 1348.6 0 1377 28.397 1377 75.8873 c 2
 1377 862.113 l 2
EndSplineSet
EndChar

StartChar: g
Encoding: 103 103 288
Width: 1553
VWidth: 0
Flags: HW
PickledData: "(dp1
S'com.typemytype.robofont.layerData'
p2
(dp3
s."
LayerCount: 2
Fore
SplineSet
863 376 m 2
 863 338 841 316 803 316 c 2
 725 316 l 2
 687 316 655 338 655 376 c 2
 655 1044 l 2
 655 1082 687 1104 725 1104 c 2
 803 1104 l 2
 841 1104 863 1082 863 1044 c 2
 863 376 l 2
102 705 m 0
 102 620 105 535 111 482 c 0
 141 216 274 91 545 91 c 0
 657 91 764 113 833 164 c 0
 846 173 857 186 865 186 c 0
 872 186 876 175 876 142 c 0
 876 -2 833 -48 641 -59 c 0
 628 -60 615 -60 601 -60 c 0
 521 -60 437 -48 369 -36 c 0
 362 -35 355 -34 349 -34 c 0
 311 -34 288 -56 280 -98 c 2
 252 -238 l 2
 251 -245 250 -251 250 -257 c 0
 250 -294 273 -321 312 -330 c 0
 421 -354 553 -372 715 -372 c 0
 1207 -372 1391 -281 1434 136 c 0
 1446 251 1451 413 1451 587 c 0
 1451 803 1443 1037 1434 1223 c 0
 1432 1270 1406 1299 1358 1299 c 2
 961 1299 l 2
 923 1299 917 1280 905 1244 c 1
 906 1245 l 1
 901 1211 895 1198 887 1198 c 0
 878 1198 867 1212 848 1230 c 0
 780 1293 677 1326 548 1327 c 1
 271 1327 142 1194 111 927 c 0
 105 875 102 790 102 705 c 0
EndSplineSet
EndChar

StartChar: gcommaaccent
Encoding: 291 291 291
Width: 1470
VWidth: 0
Flags: HW
PickledData: "(dp1
S'com.typemytype.robofont.layerData'
p2
(dp3
s."
LayerCount: 2
Fore
SplineSet
88 927 m 2
 88 482 l 2
 88 214 237 91 508 91 c 0
 620.191 91 726.519 113.15 795.961 163.758 c 0
 820.037 181.305 839 171.661 839 141.869 c 2
 839 28.1095 l 2
 839 -2.33936 812.73 -35.7174 783.134 -42.8731 c 0
 670.272 -70.1608 470.159 -60.5032 332.144 -36.1744 c 0
 282.892 -27.4925 252.439 -48.3911 242.825 -97.4699 c 2
 215.237 -238.318 l 2
 206.295 -283.969 229.274 -319.238 274.646 -329.502 c 0
 384.241 -354.293 516.037 -372 678 -372 c 0
 1170 -372 1397 -184 1397 236 c 2
 1397 1223.11 l 2
 1397 1270.6 1368.6 1299 1321.11 1299 c 2
 943.822 1299 l 2
 906.308 1299 880.567 1280.59 868.737 1245.29 c 0
 858.609 1213.79 835.665 1207.61 811.083 1229.76 c 2
 510.629 1500.6 l 2
 500.338 1509.88 511 1485.91 511 1499.77 c 2
 511 1327 l 1
 234 1327 88 1196 88 927 c 2
826 375.596 m 2
 826 338.301 803.699 316 766.404 316 c 2
 718.596 316 l 2
 681.301 316 659 338.301 659 375.596 c 2
 659 1044.4 l 2
 659 1081.7 681.301 1104 718.596 1104 c 2
 766.404 1104 l 2
 803.699 1104 826 1081.7 826 1044.4 c 2
 826 375.596 l 2
EndSplineSet
EndChar

StartChar: germandbls
Encoding: 223 223 293
Width: 1389
VWidth: 0
Flags: HW
PickledData: "(dp1
S'com.typemytype.robofont.layerData'
p2
(dp3
s."
LayerCount: 2
Fore
SplineSet
595 1298.4 m 2
 595 1335.7 617.301 1358 654.596 1358 c 2
 771.404 1358 l 2
 808.699 1358 831 1335.7 831 1298.4 c 2
 831 1036 l 2
 831 1001.58 810.419 981 776 981 c 2
 774 981 l 2
 739.581 981 719 960.419 719 926 c 2
 719 805 l 2
 719 770.581 739.581 750 774 750 c 2
 776 750 l 2
 810.419 750 831 729.419 831 695 c 2
 831 253.596 l 2
 831 216.301 808.699 194 771.404 194 c 2
 760.5 194 l 2
 717.633 194 692 168.367 692 125.5 c 2
 692 4 l 2
 692 -21.6578 707.342 -37 733 -37 c 2
 776 -37 l 2
 862 -37 935 -33 996 -25 c 0
 1186 0 1327 50 1327 258 c 2
 1327 553 l 2
 1327 613 1316 663 1293 703 c 0
 1244.17 788.669 1158.64 844.247 1045.22 863.448 c 0
 1031.41 865.786 1031.05 875.885 1044.71 879.199 c 0
 1072.4 885.918 1098.09 895.852 1122 909 c 0
 1207 957 1258 1035 1258 1170 c 0
 1258 1235 1254 1297 1236 1350 c 0
 1172 1538 975 1595 715 1595 c 0
 616 1595 532 1589 463 1578 c 0
 244 1542 99 1464 99 1217 c 2
 99 -129.113 l 2
 99 -176.603 127.397 -205 174.887 -205 c 2
 519.113 -205 l 2
 566.603 -205 595 -176.603 595 -129.113 c 2
 595 1298.4 l 2
EndSplineSet
EndChar

StartChar: grave
Encoding: 96 96 294
Width: 873
VWidth: 0
Flags: HW
PickledData: "(dp1
S'com.typemytype.robofont.layerData'
p2
(dp3
s."
LayerCount: 2
Fore
SplineSet
340 1893 m 0
 295 1919 253 1930 215 1930 c 0
 112 1930 41 1846 41 1752 c 0
 41 1687 76 1617 157 1570 c 0
 261 1510 548 1438 753 1376 c 0
 764 1372 775 1371 785 1371 c 0
 820 1371 848 1391 848 1420 c 0
 848 1438 838 1459 814 1480 c 0
 651 1629 441 1835 340 1893 c 0
EndSplineSet
EndChar

StartChar: greater
Encoding: 62 62 295
Width: 1035
VWidth: 0
Flags: HW
PickledData: "(dp1
S'com.typemytype.robofont.layerData'
p2
(dp3
s."
LayerCount: 2
Fore
SplineSet
963 1022.11 m 2
 963 1072.76 941.062 1110.48 897.042 1135.53 c 2
 151.958 1559.47 l 2
 116.68 1579.54 86 1561.7 86 1521.11 c 2
 86 1167.89 l 2
 86 1117.4 108.805 1080.81 154.123 1058.56 c 2
 633.502 823.26 l 2
 660.251 810.13 660.216 783.942 633.431 770.884 c 2
 154.213 537.255 l 2
 108.843 515.136 86 478.587 86 428.113 c 2
 86 75.8873 l 2
 86 35.1559 116.705 17.1208 152.28 36.9568 c 2
 896.72 452.043 l 2
 940.938 476.699 963 514.26 963 564.887 c 2
 963 1022.11 l 2
EndSplineSet
EndChar

StartChar: guillemotleft
Encoding: 171 171 296
Width: 1806
VWidth: 0
Flags: HW
PickledData: "(dp1
S'com.typemytype.robofont.layerData'
p2
(dp3
s."
LayerCount: 2
Fore
SplineSet
774 190 m 0
 820 190 855 230 855 277 c 0
 855 300 849 323 832 345 c 2
 534.452 729.852 l 2
 510.664 760.62 510.664 793.38 534.452 824.148 c 2
 832 1209 l 2
 850 1233 857 1256 857 1278 c 0
 857 1326 822 1364 776 1364 c 0
 757 1364 735 1358 711 1341 c 2
 184 961 l 2
 126 919 95 846 94 775 c 0
 94 706 124 636 184 593 c 2
 711 213 l 2
 732 197 755 190 774 190 c 0
1510 190 m 0
 1556 190 1590 230 1590 277 c 0
 1590 300 1585 323 1568 345 c 2
 1270.45 729.852 l 2
 1246.66 760.62 1246.66 793.38 1270.45 824.148 c 2
 1568 1209 l 2
 1586 1233 1592 1256 1592 1278 c 0
 1592 1326 1558 1364 1512 1364 c 0
 1494 1364 1470 1358 1446 1341 c 2
 920 961 l 2
 862 919 831 846 830 775 c 0
 830 706 860 636 920 593 c 2
 1446 213 l 2
 1469 196 1491 190 1510 190 c 0
EndSplineSet
EndChar

StartChar: guillemotright
Encoding: 187 187 297
Width: 1770
VWidth: 0
Flags: HW
PickledData: "(dp1
S'com.typemytype.robofont.layerData'
p2
(dp3
s."
LayerCount: 2
Fore
SplineSet
1642 775 m 0
 1641 846 1610 919 1552 961 c 2
 1025 1341 l 2
 1001 1358 979 1364 960 1364 c 0
 914 1364 879 1326 879 1278 c 0
 879 1256 886 1233 904 1209 c 2
 1201.55 824.148 l 2
 1225.34 793.38 1225.34 760.62 1201.55 729.852 c 2
 904 345 l 2
 887 323 881 300 881 277 c 0
 881 230 916 190 962 190 c 0
 981 190 1004 197 1025 213 c 2
 1552 593 l 2
 1612 636 1642 706 1642 775 c 0
906 775 m 0
 905 846 874 919 816 961 c 2
 290 1341 l 2
 266 1358 242 1364 224 1364 c 0
 178 1364 144 1326 144 1278 c 0
 144 1256 150 1233 168 1209 c 2
 465.548 824.148 l 2
 489.336 793.38 489.336 760.62 465.548 729.852 c 2
 168 345 l 2
 151 323 146 300 146 277 c 0
 146 230 180 190 226 190 c 0
 245 190 267 196 290 213 c 2
 816 593 l 2
 876 636 906 706 906 775 c 0
EndSplineSet
EndChar

StartChar: guilsinglleft
Encoding: 8249 8249 298
Width: 1036
VWidth: 0
Flags: HW
PickledData: "(dp1
S'com.typemytype.robofont.layerData'
p2
(dp3
s."
LayerCount: 2
Fore
SplineSet
824 190 m 0
 870 190 904 230 904 277 c 0
 904 300 899 323 882 345 c 2
 584.452 729.852 l 2
 560.664 760.62 560.664 793.38 584.452 824.148 c 2
 882 1209 l 2
 900 1233 906 1256 906 1278 c 0
 906 1326 872 1364 826 1364 c 0
 808 1364 784 1358 760 1341 c 2
 234 961 l 2
 176 919 145 846 144 775 c 0
 144 706 174 636 234 593 c 2
 760 213 l 2
 783 196 805 190 824 190 c 0
EndSplineSet
EndChar

StartChar: guilsinglright
Encoding: 8250 8250 299
Width: 1034
VWidth: 0
Flags: HW
PickledData: "(dp1
S'com.typemytype.robofont.layerData'
p2
(dp3
s."
LayerCount: 2
Fore
SplineSet
906 775 m 0
 905 846 874 919 816 961 c 2
 290 1341 l 2
 266 1358 242 1364 224 1364 c 0
 178 1364 144 1326 144 1278 c 0
 144 1256 150 1233 168 1209 c 2
 465.548 824.148 l 2
 489.336 793.38 489.336 760.62 465.548 729.852 c 2
 168 345 l 2
 151 323 146 300 146 277 c 0
 146 230 180 190 226 190 c 0
 245 190 267 196 290 213 c 2
 816 593 l 2
 876 636 906 706 906 775 c 0
EndSplineSet
EndChar

StartChar: h
Encoding: 104 104 300
Width: 1591
VWidth: 0
Flags: HW
PickledData: "(dp1
S'com.typemytype.robofont.layerData'
p2
(dp3
s."
LayerCount: 2
Fore
SplineSet
215 0 m 2
 638 0 l 2
 686 0 714 28 714 76 c 2
 714 249 l 1
 719 476 723 681 723 907 c 0
 723 963 723 1021 722 1079 c 1
 732 1096 750 1105 774 1105 c 2
 833 1105 l 2
 871 1105 893 1083 893 1045 c 2
 893 76 l 2
 893 28 921 0 969 0 c 2
 1388 0 l 2
 1436 0 1461 28 1464 76 c 0
 1473 214 1477 370 1477 516 c 0
 1477 684 1472 841 1464 944 c 0
 1444 1195 1346 1326 1073 1327 c 0
 950 1327 798 1290 729 1231 c 0
 726 1228 723 1226 720 1224 c 1
 718 1369 715 1512 710 1634 c 0
 708 1681 682 1710 634 1710 c 2
 215 1710 l 2
 167 1710 141 1679 139 1634 c 0
 130 1409 126 1167 126 913 c 0
 126 801 127 686 128 570 c 0
 129 513 130 454 131 395 c 0
 133 290 136 183 139 76 c 0
 140 28 167 0 215 0 c 2
EndSplineSet
EndChar

StartChar: hbar
Encoding: 295 295 301
Width: 1511
VWidth: 0
Flags: HW
PickledData: "(dp1
S'com.typemytype.robofont.layerData'
p2
(dp3
s."
LayerCount: 2
Fore
SplineSet
740.641 1255.36 m 0
 720.204 1237.19 702 1245.36 702 1272.71 c 2
 702 1450 l 1
 1112.11 1450 l 2
 1159.6 1450 1188 1478.4 1188 1525.89 c 2
 1188 1543.11 l 2
 1188 1590.6 1159.6 1619 1112.11 1619 c 2
 702 1619 l 1
 702 1634.11 l 2
 702 1681.6 673.603 1710 626.113 1710 c 2
 205.887 1710 l 2
 158.397 1710 130 1681.6 130 1634.11 c 2
 130 1619 l 1
 118.887 1619 l 2
 71.397 1619 43 1590.6 43 1543.11 c 2
 43 1525.89 l 2
 43 1478.4 71.397 1450 118.887 1450 c 2
 130 1450 l 1
 130 75.8873 l 2
 130 28.397 158.397 0 205.887 0 c 2
 626.113 0 l 2
 673.603 0 702 28.397 702 75.8873 c 2
 702 1005.4 l 2
 702 1042.7 724.301 1065 761.596 1065 c 2
 808.404 1065 l 2
 845.699 1065 868 1042.7 868 1005.4 c 2
 868 75.8873 l 2
 868 28.397 896.397 0 943.887 0 c 2
 1363.11 0 l 2
 1410.6 0 1439 28.397 1439 75.8873 c 2
 1439 945 l 2
 1439 1213 1298 1343 1023 1343 c 0
 910.572 1343 805.339 1312.91 740.641 1255.36 c 0
EndSplineSet
EndChar

StartChar: hungarumlaut
Encoding: 733 733 303
Width: 873
VWidth: 0
Flags: HW
PickledData: "(dp1
S'com.typemytype.robofont.layerData'
p2
(dp3
s."
LayerCount: 2
Fore
SplineSet
746 1420 m 0
 746 1391 774 1371 809 1371 c 0
 819 1371 830 1372 841 1376 c 0
 1046 1438 1333 1510 1437 1570 c 0
 1518 1617 1553 1687 1553 1752 c 0
 1553 1846 1482 1930 1379 1930 c 0
 1341 1930 1299 1919 1254 1893 c 0
 1153 1835 943 1629 780 1480 c 0
 756 1459 746 1438 746 1420 c 0
55 1420 m 0
 55 1391 83 1371 118 1371 c 0
 128 1371 139 1372 150 1376 c 0
 355 1438 642 1510 746 1570 c 0
 827 1617 862 1687 862 1752 c 0
 862 1846 791 1930 688 1930 c 0
 650 1930 608 1919 563 1893 c 0
 462 1835 252 1629 89 1480 c 0
 65 1459 55 1438 55 1420 c 0
EndSplineSet
EndChar

StartChar: hyphen
Encoding: 45 45 304
Width: 1328
VWidth: 0
Flags: HW
PickledData: "(dp1
S'com.typemytype.robofont.layerData'
p2
(dp3
s."
LayerCount: 2
Fore
SplineSet
239.887 811 m 2
 192.397 811 164 782.603 164 735.113 c 2
 164 553.887 l 2
 164 506.397 192.397 478 239.887 478 c 2
 1089.11 478 l 2
 1136.6 478 1165 506.397 1165 553.887 c 2
 1165 735.113 l 2
 1165 782.603 1136.6 811 1089.11 811 c 2
 239.887 811 l 2
EndSplineSet
EndChar

StartChar: i
Encoding: 105 105 305
Width: 759
VWidth: 0
Flags: HW
PickledData: "(dp1
S'com.typemytype.robofont.layerData'
p2
(dp3
s."
LayerCount: 2
Fore
SplineSet
675 1224.11 m 2
 675 1271.6 646.603 1300 599.113 1300 c 2
 179.887 1300 l 2
 132.397 1300 104 1271.6 104 1224.11 c 2
 104 75.8873 l 2
 104 28.397 132.397 0 179.887 0 c 2
 599.113 0 l 2
 646.603 0 675 28.397 675 75.8873 c 2
 675 1224.11 l 2
179.887 1709 m 2
 132.397 1709 104 1680.6 104 1633.11 c 2
 104 1500.89 l 2
 104 1453.4 132.397 1425 179.887 1425 c 2
 599.113 1425 l 2
 646.603 1425 675 1453.4 675 1500.89 c 2
 675 1633.11 l 2
 675 1680.6 646.603 1709 599.113 1709 c 2
 179.887 1709 l 2
EndSplineSet
EndChar

StartChar: j
Encoding: 106 106 315
Width: 868
VWidth: 0
Flags: HW
PickledData: "(dp1
S'com.typemytype.robofont.layerData'
p2
(dp3
s."
LayerCount: 2
Fore
SplineSet
784 1224.11 m 2
 784 1271.6 755.603 1300 708.113 1300 c 2
 287.887 1300 l 2
 240.397 1300 212 1271.6 212 1224.11 c 2
 212 -6.40437 l 2
 212 -43.6994 189.699 -66 152.404 -66 c 2
 98.8873 -66 l 2
 52.71 -66 26.7003 -95.4787 32.4514 -141.296 c 2
 44.0159 -233.426 l 2
 49.8222 -279.683 81.6765 -311.306 127.975 -316.774 c 0
 185.703 -323.593 247.371 -326 323 -326 c 0
 620 -326 784 -199 784 94 c 2
 784 1224.11 l 2
287.887 1709 m 2
 240.397 1709 212 1680.6 212 1633.11 c 2
 212 1500.89 l 2
 212 1453.4 240.397 1425 287.887 1425 c 2
 708.113 1425 l 2
 755.603 1425 784 1453.4 784 1500.89 c 2
 784 1633.11 l 2
 784 1680.6 755.603 1709 708.113 1709 c 2
 287.887 1709 l 2
EndSplineSet
EndChar

StartChar: k
Encoding: 107 107 317
Width: 1637
VWidth: 0
Flags: HW
PickledData: "(dp1
S'com.typemytype.robofont.layerData'
p2
(dp3
s."
LayerCount: 2
Fore
SplineSet
635 0 m 2
 683 0 709 28 711 76 c 2
 728 466 l 2
 729 495 732 544 750 554 c 0
 770 565 786 538 791 527 c 2
 981 70 l 2
 1000 24 1036 0 1086 0 c 2
 1530 0 l 2
 1561 0 1580 17 1580 41 c 0
 1580 49 1577 59 1573 68 c 2
 1294 656 l 2
 1286 674 1282 691 1282 708 c 0
 1282 726 1287 744 1296 762 c 2
 1547 1233 l 2
 1552 1243 1555 1253 1555 1261 c 0
 1555 1284 1537 1300 1507 1300 c 2
 1073 1300 l 2
 1022 1300 985 1278 961 1233 c 2
 756 851 l 2
 752 842 746 838 741 838 c 0
 734 838 728 845 728 858 c 2
 711 1634 l 1
 711 1682 683 1710 635 1710 c 2
 216 1710 l 2
 168 1710 142 1682 140 1634 c 0
 131 1421 128 1100 128 841 c 0
 128 493 134 216 140 76 c 0
 142 29 168 0 216 0 c 2
 635 0 l 2
EndSplineSet
EndChar

StartChar: kgreenlandic
Encoding: 312 312 319
Width: 1590
VWidth: 0
Flags: HW
PickledData: "(dp1
S'com.typemytype.robofont.layerData'
p2
(dp3
s."
LayerCount: 2
Fore
SplineSet
608.113 0 m 2
 655.603 0 684 28.397 684 75.8873 c 2
 684 258.404 l 2
 684 297.775 696.869 333.602 721.921 363.975 c 2
 759.079 409.025 l 2
 779.604 433.91 807.487 429.753 819.861 399.964 c 2
 956.889 70.0817 l 2
 976.166 23.6745 1011.64 0 1061.89 0 c 2
 1485.11 0 l 2
 1527.21 0 1547.05 30.7728 1529.68 69.1212 c 2
 1227.6 735.718 l 2
 1211.15 772.005 1213.85 806.513 1235.72 839.811 c 2
 1496.34 1236.57 l 2
 1517.98 1269.52 1501.53 1300 1462.11 1300 c 2
 1027.89 1300 l 2
 977.187 1300 938.941 1278.46 912.654 1235.11 c 2
 714.899 908.96 l 2
 702.794 888.996 684 894.249 684 917.596 c 2
 684 1223.11 l 2
 684 1270.6 655.603 1299 608.113 1299 c 2
 175.887 1299 l 2
 128.397 1299 100 1270.6 100 1223.11 c 2
 100 75.8873 l 2
 100 28.397 128.397 0 175.887 0 c 2
 608.113 0 l 2
EndSplineSet
EndChar

StartChar: l
Encoding: 108 108 320
Width: 853
VWidth: 0
Flags: HW
PickledData: "(dp1
S'com.typemytype.robofont.layerData'
p2
(dp3
s."
LayerCount: 2
Fore
SplineSet
636 1710 m 2
 217 1710 l 2
 169 1710 143 1679 141 1634 c 0
 132 1409 128 1167 128 913 c 0
 128 644 133 363 141 76 c 0
 142 28 169 0 217 0 c 2
 636 0 l 2
 684 0 711 28 712 76 c 0
 719 377 725 625 725 907 c 0
 725 1146 720 1422 712 1634 c 0
 710 1681 684 1710 636 1710 c 2
EndSplineSet
EndChar

StartChar: lcaron
Encoding: 318 318 322
Width: 760
VWidth: 0
Flags: HW
PickledData: "(dp1
S'com.typemytype.robofont.layerData'
p2
(dp3
s."
LayerCount: 2
Fore
SplineSet
950.191 1315.59 m 0
 986.656 1300.58 995.96 1244.2 966.679 1218.65 c 0
 949.712 1203.84 928.538 1192.98 905.003 1186.41 c 0
 864.587 1175.11 852 1158.53 852 1118.09 c 2
 852 1090.4 l 2
 852 1077.55 860.169 1068.77 872.991 1067.85 c 0
 880.843 1067.28 888.562 1067 896 1067 c 0
 1117 1067 1243 1286 1243 1470 c 0
 1243 1599 1177 1710 1033 1710 c 0
 931 1710 829 1643 829 1510 c 0
 829 1408.53 882.214 1343.56 950.191 1315.59 c 0
676 1634.11 m 2
 676 1681.6 647.603 1710 600.113 1710 c 2
 180.887 1710 l 2
 133.397 1710 105 1681.6 105 1634.11 c 2
 105 75.8873 l 2
 105 28.397 133.397 0 180.887 0 c 2
 600.113 0 l 2
 647.603 0 676 28.397 676 75.8873 c 2
 676 1634.11 l 2
EndSplineSet
EndChar

StartChar: ldot
Encoding: 320 320 324
Width: 1313
VWidth: 0
Flags: HW
PickledData: "(dp1
S'com.typemytype.robofont.layerData'
p2
(dp3
s."
LayerCount: 2
Fore
SplineSet
1313 1046.11 m 2
 1313 1093.6 1284.6 1122 1237.11 1122 c 2
 881.887 1122 l 2
 834.397 1122 806 1093.6 806 1046.11 c 2
 806 730.887 l 2
 806 683.397 834.397 655 881.887 655 c 2
 1237.11 655 l 2
 1284.6 655 1313 683.397 1313 730.887 c 2
 1313 1046.11 l 2
676 1634.11 m 2
 676 1681.6 647.603 1710 600.113 1710 c 2
 180.887 1710 l 2
 133.397 1710 105 1681.6 105 1634.11 c 2
 105 75.8873 l 2
 105 28.397 133.397 0 180.887 0 c 2
 600.113 0 l 2
 647.603 0 676 28.397 676 75.8873 c 2
 676 1634.11 l 2
EndSplineSet
EndChar

StartChar: less
Encoding: 60 60 325
Width: 1036
VWidth: 0
Flags: HW
PickledData: "(dp1
S'com.typemytype.robofont.layerData'
p2
(dp3
s."
LayerCount: 2
Fore
SplineSet
75 564.887 m 2
 75 514.259 97.0551 476.688 141.262 452.011 c 2
 884.738 36.9889 l 2
 920.296 17.1395 951 35.1639 951 75.8873 c 2
 951 428.113 l 2
 951 478.587 928.157 515.136 882.787 537.255 c 2
 403.569 770.884 l 2
 376.784 783.942 376.749 810.13 403.498 823.26 c 2
 882.877 1058.56 l 2
 928.195 1080.81 951 1117.4 951 1167.89 c 2
 951 1521.11 l 2
 951 1561.69 920.322 1579.52 885.06 1559.44 c 2
 140.94 1135.56 l 2
 96.9308 1110.49 75 1072.76 75 1022.11 c 2
 75 564.887 l 2
EndSplineSet
EndChar

StartChar: logicalnot
Encoding: 172 172 326
Width: 1269
VWidth: 0
Flags: HW
PickledData: "(dp1
S'com.typemytype.robofont.layerData'
p2
(dp3
s."
LayerCount: 2
Fore
SplineSet
1179 1029.11 m 2
 1179 1076.6 1150.6 1105 1103.11 1105 c 2
 158.887 1105 l 2
 111.397 1105 83 1076.6 83 1029.11 c 2
 83 866.887 l 2
 83 819.397 111.397 791 158.887 791 c 2
 890.404 791 l 2
 927.699 791 950 768.699 950 731.404 c 2
 950 375.887 l 2
 950 328.397 978.397 300 1025.89 300 c 2
 1103.11 300 l 2
 1150.6 300 1179 328.397 1179 375.887 c 2
 1179 1029.11 l 2
EndSplineSet
EndChar

StartChar: lslash
Encoding: 322 322 327
Width: 1145
VWidth: 0
Flags: HW
PickledData: "(dp1
S'com.typemytype.robofont.layerData'
p2
(dp3
s."
LayerCount: 2
Fore
SplineSet
852 1634.11 m 2
 852 1681.6 823.603 1710 776.113 1710 c 2
 356.887 1710 l 2
 309.397 1710 281 1681.6 281 1634.11 c 2
 281 889.768 l 1
 132.682 820.219 l 2
 87.0288 798.811 64 762.536 64 712.113 c 2
 64 614.887 l 2
 64 572.998 94.7703 553.459 132.682 571.274 c 2
 281 640.971 l 1
 281 75.8873 l 2
 281 28.397 309.397 0 356.887 0 c 2
 776.113 0 l 2
 823.603 0 852 28.397 852 75.8873 c 2
 852 909.294 l 1
 1025.29 990.726 l 2
 1070.93 1012.17 1094 1048.46 1094 1098.89 c 2
 1094 1195.11 l 2
 1094 1237.01 1063.23 1256.57 1025.29 1238.78 c 2
 852 1157.52 l 1
 852 1634.11 l 2
EndSplineSet
EndChar

StartChar: m
Encoding: 109 109 328
Width: 2322
VWidth: 0
Flags: HW
PickledData: "(dp1
S'com.typemytype.robofont.layerData'
p2
(dp3
s."
LayerCount: 2
Fore
SplineSet
708 76 m 2
 708 1045 l 2
 708 1083 730 1105 768 1105 c 2
 827 1105 l 2
 865 1105 887 1083 887 1045 c 2
 887 76 l 2
 887 28 915 0 963 0 c 2
 1370 0 l 2
 1418 0 1446 28 1446 76 c 2
 1446 997 l 2
 1446 1074 1448 1105 1511 1105 c 2
 1570 1105 l 2
 1608 1105 1630 1083 1630 1045 c 2
 1630 76 l 2
 1630 28 1658 0 1706 0 c 2
 2119 0 l 2
 2167 0 2192 28 2195 76 c 0
 2204 214 2208 380 2208 526 c 0
 2208 694 2203 861 2195 964 c 0
 2175 1215 2077 1327 1804 1327 c 0
 1558 1327 1470 1246 1414 1202 c 1
 1354 1284 1256 1326 1101 1327 c 0
 978 1327 798 1290 729 1231 c 0
 719 1222 709 1217 701 1217 c 0
 688 1217 677 1228 671 1247 c 1
 671 1245 l 1
 659 1281 633 1300 595 1300 c 2
 219 1300 l 2
 171 1300 150 1283 143 1224 c 1
 133 1046 128 862 128 672 c 0
 128 481 133 284 143 76 c 1
 150 28 171 0 219 0 c 2
 632 0 l 2
 680 0 708 28 708 76 c 2
EndSplineSet
EndChar

StartChar: macron
Encoding: 175 175 329
Width: 999
VWidth: 0
Flags: HW
PickledData: "(dp1
S'com.typemytype.robofont.layerData'
p2
(dp3
s."
LayerCount: 2
Fore
SplineSet
162.887 897 m 2
 115.397 897 87 868.603 87 821.113 c 2
 87 741.887 l 2
 87 694.397 115.397 666 162.887 666 c 2
 844.113 666 l 2
 891.603 666 920 694.397 920 741.887 c 2
 920 821.113 l 2
 920 868.603 891.603 897 844.113 897 c 2
 162.887 897 l 2
EndSplineSet
EndChar

StartChar: multiply
Encoding: 215 215 331
Width: 1310
VWidth: 0
Flags: HW
PickledData: "(dp1
S'com.typemytype.robofont.layerData'
p2
(dp3
s."
LayerCount: 2
Fore
SplineSet
969.071 1238.8 m 2
 936.909 1272.89 897.15 1272.84 865.084 1238.65 c 2
 700.77 1063.47 l 2
 675.582 1036.61 644.354 1036.55 619.062 1063.31 c 2
 453.13 1238.85 l 2
 420.914 1272.93 381.139 1272.88 349.008 1238.72 c 2
 104.992 979.279 l 2
 72.058 944.263 72.0266 903.713 104.917 868.656 c 2
 270.224 692.462 l 2
 296.051 664.934 296.022 633.093 270.145 605.612 c 2
 105.023 430.249 l 2
 72.0723 395.255 72.0335 354.708 104.917 319.651 c 2
 349.083 59.3487 l 2
 381.145 25.1676 420.898 25.1273 453.029 59.2434 c 2
 619.141 235.616 l 2
 644.363 262.397 675.572 262.337 700.691 235.459 c 2
 865.185 59.4443 l 2
 897.166 25.2229 936.903 25.1578 968.997 59.2743 c 2
 1213.98 319.726 l 2
 1246.91 354.727 1246.92 395.264 1213.98 430.249 c 2
 1048.85 605.612 l 2
 1022.98 633.093 1022.95 664.934 1048.78 692.462 c 2
 1214.08 868.656 l 2
 1246.96 903.704 1246.9 944.245 1213.93 979.204 c 2
 969.071 1238.8 l 2
EndSplineSet
EndChar

StartChar: n
Encoding: 110 110 332
Width: 1579
VWidth: 0
Flags: HW
PickledData: "(dp1
S'com.typemytype.robofont.layerData'
p2
(dp3
S'c'
(dp4
S'name'
p5
S'n'
sS'lib'
p6
(dp7
g2
(dp8
ssS'unicodes'
p9
(tsS'width'
p10
I1579
sS'contours'
p11
((dp12
S'points'
p13
((dp14
S'segmentType'
p15
S'curve'
p16
sS'x'
I937
sS'smooth'
p17
I01
sS'y'
I608
s(dp18
g15
S'line'
p19
sS'x'
I937
sg17
I00
sS'y'
I0
s(dp20
g15
S'line'
p21
sS'x'
I1105
sg17
I00
sS'y'
I0
s(dp22
g15
S'line'
p23
sS'x'
I1105
sg17
I01
sS'y'
I631
s(dp24
S'y'
I868
sS'x'
I1105
sg17
I00
s(dp25
S'y'
I1020
sS'x'
I1028
sg17
I00
s(dp26
g15
S'curve'
p27
sS'x'
I802
sg17
I01
sS'y'
I1020
s(dp28
S'y'
I1020
sS'x'
I732
sg17
I00
s(dp29
S'y'
I1004
sS'x'
I671
sg17
I00
s(dp30
g15
S'curve'
p31
sS'x'
I618
sg17
I01
sS'y'
I972
s(dp32
S'y'
I940
sS'x'
I565
sg17
I00
s(dp33
S'y'
I900
sS'x'
I516
sg17
I00
s(dp34
g15
S'curve'
p35
sS'x'
I468
sg17
I00
sS'y'
I852
s(dp36
g15
S'line'
p37
sS'x'
I462
sg17
I00
sS'y'
I852
s(dp38
g15
S'line'
p39
sS'x'
I447
sg17
I00
sS'y'
I995
s(dp40
g15
S'line'
p41
sS'x'
I308
sg17
I00
sS'y'
I995
s(dp42
g15
S'line'
p43
sS'x'
I308
sg17
I00
sS'y'
I0
s(dp44
g15
S'line'
p45
sS'x'
I476
sg17
I00
sS'y'
I0
s(dp46
g15
S'line'
p47
sS'x'
I476
sg17
I00
sS'y'
I721
s(dp48
S'y'
I772
sS'x'
I527
sg17
I00
s(dp49
S'y'
I810
sS'x'
I571
sg17
I00
s(dp50
g15
S'curve'
p51
sS'x'
I611
sg17
I01
sS'y'
I836
s(dp52
S'y'
I862
sS'x'
I651
sg17
I00
s(dp53
S'y'
I874
sS'x'
I696
sg17
I00
s(dp54
g15
S'curve'
p55
sS'x'
I748
sg17
I01
sS'y'
I874
s(dp56
S'y'
I874
sS'x'
I898
sg17
I00
s(dp57
S'y'
I772
sS'x'
I937
sg17
I00
stp58
stp59
sS'components'
p60
(tsS'anchors'
p61
(tsss."
LayerCount: 2
Fore
SplineSet
554 837 m 2
 554 1015 572 1063 796 1063 c 0
 1027 1063 1053 1022 1053 844 c 2
 1053 76 l 2
 1053 28 1081 0 1129 0 c 2
 1288 0 l 2
 1336 0 1361 28 1364 76 c 0
 1373 214 1376 370 1376 516 c 0
 1376 684 1371 832 1364 935 c 0
 1345 1208 1194 1327 973 1327 c 0
 798 1327 705 1294 591 1222 c 0
 580 1215 565 1204 557 1204 c 0
 540 1204 535 1224 531 1237 c 0
 519 1273 509 1300 471 1300 c 2
 319 1300 l 2
 271 1300 250 1283 243 1224 c 1
 233 1046 228 862 228 672 c 0
 228 481 233 284 243 76 c 1
 250 28 271 0 319 0 c 2
 478 0 l 2
 526 0 554 28 554 76 c 2
 554 837 l 2
EndSplineSet
EndChar

StartChar: nine
Encoding: 57 57 336
Width: 1445
VWidth: 0
Flags: HW
PickledData: "(dp1
S'com.typemytype.robofont.layerData'
p2
(dp3
s."
LayerCount: 2
Fore
SplineSet
799 838.596 m 2
 799 801.301 776.699 779 739.404 779 c 2
 687.596 779 l 2
 650.301 779 628 801.301 628 838.596 c 2
 628 1298.4 l 2
 628 1335.7 650.301 1358 687.596 1358 c 2
 739.404 1358 l 2
 776.699 1358 799 1335.7 799 1298.4 c 2
 799 838.596 l 2
576 508 m 2
 743.404 508 l 2
 780.699 508 803 485.699 803 448.404 c 2
 803 284.596 l 2
 803 247.301 780.699 225 743.404 225 c 2
 704.596 225 l 2
 667.301 225 645 247.301 645 284.596 c 2
 645 348.113 l 2
 645 395.603 616.603 424 569.113 424 c 2
 160.725 424 l 2
 131.504 424 113.896 406.252 114.129 377.031 c 0
 114.255 361.178 114.505 344.834 115 328 c 0
 124 0 490 -40 733 -40 c 0
 1131 -40 1365 84 1365 520 c 2
 1365 1116 l 2
 1365 1508 1130 1629 722 1629 c 0
 325 1629 68 1551 68 1071 c 0
 68 688 178 508 576 508 c 2
EndSplineSet
EndChar

StartChar: numbersign
Encoding: 35 35 339
Width: 1718
VWidth: 0
Flags: HW
PickledData: "(dp1
S'com.typemytype.robofont.layerData'
p2
(dp3
s."
LayerCount: 2
Fore
SplineSet
1583.38 545.86 m 2
 1589.82 591.406 1564.11 621 1518.11 621 c 2
 1490.6 621 l 2
 1454.45 621 1434.24 644.227 1439.23 680.022 c 2
 1474.77 934.975 l 2
 1480.05 972.858 1504.35 994 1542.6 994 c 2
 1559.5 994 l 2
 1607.36 994 1637.84 1020.36 1644.74 1067.72 c 2
 1653.48 1127.76 l 2
 1659.85 1171.5 1635.2 1200 1591 1200 c 2
 1575.6 1200 l 2
 1539.41 1200 1519.11 1223.18 1523.93 1259.05 c 2
 1558.91 1519.79 l 2
 1565.04 1565.46 1539.19 1595 1493.11 1595 c 2
 1146.89 1595 l 2
 1098.18 1595 1067.25 1568.03 1060.53 1519.79 c 2
 1024.22 1259.05 l 2
 1018.94 1221.16 994.652 1200 956.404 1200 c 2
 878.596 1200 l 2
 842.408 1200 822.113 1223.18 826.925 1259.05 c 2
 861.908 1519.79 l 2
 868.036 1565.46 842.193 1595 796.113 1595 c 2
 448.887 1595 l 2
 400.203 1595 369.315 1568.03 362.721 1519.79 c 2
 327.072 1259.05 l 2
 321.894 1221.17 297.637 1200 259.404 1200 c 2
 241.5 1200 l 2
 193.038 1200 162.249 1173.22 155.525 1125.23 c 2
 147.128 1065.29 l 2
 140.987 1021.46 165.737 993 210 993 c 2
 225.404 993 l 2
 261.566 993 281.817 969.804 276.905 933.978 c 2
 242.095 680.022 l 2
 236.901 642.142 212.64 621 174.404 621 c 2
 164 621 l 2
 120.384 621 92.7278 596.836 86.875 553.615 c 2
 78.8567 494.403 l 2
 73.4803 454.701 95.9356 429 136 429 c 2
 144.404 429 l 2
 180.521 429 200.695 405.755 195.61 369.998 c 2
 153.683 75.1316 l 2
 147.209 29.5998 172.898 0 218.887 0 c 2
 569.113 0 l 2
 617.821 0 648.765 26.8923 655.511 75.1316 c 2
 696.745 369.998 l 2
 702.044 407.881 726.344 429 764.596 429 c 2
 842.404 429 l 2
 878.521 429 898.695 405.755 893.61 369.998 c 2
 851.683 75.1316 l 2
 845.209 29.5998 870.898 0 916.887 0 c 2
 1266.11 0 l 2
 1314.82 0 1345.76 26.8926 1352.49 75.1316 c 2
 1393.76 370.976 l 2
 1399.05 408.859 1423.35 430 1461.6 430 c 2
 1491.11 430 l 2
 1539.83 430 1570.8 456.9 1577.62 505.14 c 2
 1583.38 545.86 l 2
777.75 933.978 m 2
 783.045 971.861 807.344 993 845.596 993 c 2
 923.404 993 l 2
 959.542 993 979.753 969.768 974.75 933.978 c 2
 939.25 680.022 l 2
 933.955 642.139 909.656 621 871.404 621 c 2
 793.596 621 l 2
 757.458 621 737.247 644.232 742.25 680.022 c 2
 777.75 933.978 l 2
EndSplineSet
EndChar

StartChar: o
Encoding: 111 111 340
Width: 1525
VWidth: 0
Flags: HW
PickledData: "(dp1
S'com.typemytype.robofont.guides'
p2
((dp3
S'angle'
p4
F90
sS'name'
p5
NsS'magnetic'
p6
I5
sS'isGlobal'
p7
I00
sS'y'
I1055
sS'x'
I763
stp8
sS'com.typemytype.robofont.layerData'
p9
(dp10
s."
LayerCount: 2
Fore
SplineSet
489 403 m 2
 489 895 l 2
 489 1043 503 1105 762 1105 c 0
 973 1105 1013 1040 1013 925 c 2
 1013 375 l 2
 1013 264 972 195 763 195 c 0
 513 195 489 258 489 403 c 2
1330 656 m 0
 1330 782 1325 907 1316 956 c 0
 1250 1296 1083 1327 764 1327 c 0
 467 1327 215 1283 187 943 c 0
 183 891 178 774 178 648 c 0
 178 523 182 409 187 363 c 0
 227 3 445 -27 763 -27 c 0
 1068 -27 1246 -15 1316 349 c 0
 1325 398 1330 527 1330 656 c 0
EndSplineSet
EndChar

StartChar: oe
Encoding: 339 339 345
Width: 2136
VWidth: 0
Flags: HW
PickledData: "(dp1
S'com.typemytype.robofont.layerData'
p2
(dp3
s."
LayerCount: 2
Fore
SplineSet
1166 16 m 0
 1238 -17 1332 -28 1448 -28 c 0
 1628 -28 1775 -11 1889 39 c 0
 2019 96 2069 188 2069 368 c 2
 2069 478.113 l 2
 2069 525.603 2040.6 554 1993.11 554 c 2
 1577.89 554 l 2
 1530.4 554 1502 525.603 1502 478.113 c 2
 1502 308.596 l 2
 1502 271.301 1479.7 249 1442.4 249 c 2
 1410.6 249 l 2
 1373.3 249 1351 271.301 1351 308.596 c 2
 1351 560.404 l 2
 1351 597.699 1373.3 620 1410.6 620 c 2
 1989.11 620 l 2
 2036.73 620 2065.36 648.271 2065.98 695.881 c 2
 2069 931 l 2
 2069 958 2068 986 2067 1016 c 0
 2061 1145 1989 1217 1888 1262 c 0
 1774 1313 1629 1330 1447 1330 c 0
 1314.77 1330 1188.62 1312.46 1114.51 1254.67 c 0
 1078.26 1226.41 1072.2 1226.33 1035.28 1253.69 c 0
 1019.38 1265.47 1000.53 1275.71 980 1285 c 0
 910 1316 821 1330 710 1330 c 0
 530 1330 382 1313 268 1262 c 0
 138 1203 85 1112 85 930 c 2
 85 367 l 2
 85 340 86 312 88 282 c 0
 95 154 167 82 269 37 c 0
 384 -13 530 -30 711 -30 c 0
 873.92 -30 1010.87 1.96876 1073.91 93.8653 c 0
 1073.97 93.9509 1074.03 94.0523 1074.05 94.1051 c 2
 1074.95 95.8946 l 2
 1074.97 95.9461 1075.02 95.9473 1075.05 95.8946 c 0
 1091.06 59.9531 1122.04 35.9805 1166 16 c 0
649 991.404 m 2
 649 1028.7 671.301 1051 708.596 1051 c 2
 739.404 1051 l 2
 776.699 1051 799 1028.7 799 991.404 c 2
 799 307.596 l 2
 799 270.301 776.699 248 739.404 248 c 2
 708.596 248 l 2
 671.301 248 649 270.301 649 307.596 c 2
 649 991.404 l 2
1350 991.404 m 2
 1350 1028.7 1372.3 1051 1409.6 1051 c 2
 1441.4 1051 l 2
 1478.7 1051 1501 1028.7 1501 991.404 c 2
 1501 884.596 l 2
 1501 847.301 1478.7 825 1441.4 825 c 2
 1409.6 825 l 2
 1372.3 825 1350 847.301 1350 884.596 c 2
 1350 991.404 l 2
EndSplineSet
EndChar

StartChar: ogonek
Encoding: 731 731 346
Width: 693
VWidth: 0
Flags: HW
PickledData: "(dp1
S'com.typemytype.robofont.layerData'
p2
(dp3
s."
LayerCount: 2
Fore
SplineSet
125 -316 m 0
 125 -482 248 -630 455 -630 c 0
 494.844 -630 537.774 -624.267 583.792 -612.216 c 0
 627.837 -600.682 656 -564.193 656 -518.663 c 2
 656 -345.466 l 2
 656 -303.655 631.672 -284.38 590.969 -293.943 c 0
 564.749 -300.103 541.426 -303 521 -303 c 0
 434 -303 396 -252 396 -189 c 0
 396 -137.076 422.163 -77.4948 467.863 -31.6656 c 0
 491.87 -7.5901 491.931 14.2671 468.058 38.4761 c 2
 467.938 38.5979 l 2
 446.419 60.4206 417.158 65.558 389.491 52.3709 c 0
 205.735 -35.2159 125 -181.62 125 -316 c 0
EndSplineSet
EndChar

StartChar: one
Encoding: 49 49 350
Width: 961
VWidth: 0
Flags: HW
PickledData: "(dp1
S'com.typemytype.robofont.layerData'
p2
(dp3
s."
LayerCount: 2
Fore
SplineSet
41 1366.89 m 2
 41 1319.4 69.397 1291 116.887 1291 c 2
 202.404 1291 l 2
 239.699 1291 262 1268.7 262 1231.4 c 2
 262 75.8873 l 2
 262 28.397 290.397 0 337.887 0 c 2
 790.113 0 l 2
 837.603 0 866 28.397 866 75.8873 c 2
 866 1519.11 l 2
 866 1566.6 837.603 1595 790.113 1595 c 2
 492.212 1595 l 2
 425.599 1595 381.753 1586.39 320.088 1561.2 c 0
 260.869 1537.01 191.902 1520.79 116.794 1514.25 c 0
 66.2596 1509.85 41 1482.3 41 1431.57 c 2
 41 1366.89 l 2
EndSplineSet
EndChar

StartChar: onehalf
Encoding: 189 189 351
Width: 2580
VWidth: 0
Flags: HW
PickledData: "(dp1
S'com.typemytype.robofont.layerData'
p2
(dp3
s."
LayerCount: 2
Fore
SplineSet
1973.11 836 m 2
 2020.6 836 2049 864.397 2049 911.887 c 2
 2049 981 l 2
 2049 1011.66 2067.34 1030 2098 1030 c 2
 2100 1030 l 2
 2130.66 1030 2149 1011.66 2149 981 c 2
 2149 877 l 2
 2149 823 2075 793 2013 768 c 0
 1819 690 1685 575 1685 313 c 2
 1685 209.887 l 2
 1685 162.397 1713.4 134 1760.89 134 c 2
 2406.11 134 l 2
 2453.6 134 2482 162.397 2482 209.887 c 2
 2482 256.113 l 2
 2482 303.603 2453.6 332 2406.11 332 c 2
 2096.75 332 l 2
 2071.23 332 2053.03 367.853 2068.09 388.453 c 0
 2095.99 426.63 2149.95 452.279 2199 474 c 0
 2364 548 2522 634 2522 876 c 0
 2522 1142 2368 1209 2106 1209 c 0
 1863 1209 1684 1148 1684 878 c 0
 1684 870.672 1684.27 863.344 1684.54 856.016 c 0
 1684.99 843.15 1692.4 836 1705.25 836 c 2
 1973.11 836 l 2
31 1342 m 2
 31 1297.57 57.5681 1271 102 1271 c 2
 115.404 1271 l 2
 152.699 1271 175 1248.7 175 1211.4 c 2
 175 505.887 l 2
 175 458.397 203.397 430 250.887 430 c 2
 494.113 430 l 2
 541.603 430 570 458.397 570 505.887 c 2
 570 1394.11 l 2
 570 1441.6 541.603 1470 494.113 1470 c 2
 384.485 1470 l 2
 303.96 1470 265.438 1463.8 188.975 1438.55 c 0
 162.268 1429.73 133.015 1423.24 101.885 1419.33 c 0
 52.059 1413.07 31 1389.2 31 1343 c 2
 31 1342 l 2
1125.11 0 m 2
 1174.39 0 1206.72 25.9792 1217.31 74.1042 c 2
 1535.69 1520.89 l 2
 1545.38 1564.91 1521.19 1595 1476.11 1595 c 2
 1193.89 1595 l 2
 1144.61 1595 1112.27 1569.01 1101.65 1520.89 c 2
 782.354 74.1042 l 2
 772.641 30.0905 796.815 0 841.887 0 c 2
 1125.11 0 l 2
EndSplineSet
EndChar

StartChar: onequarter
Encoding: 188 188 352
Width: 2565
VWidth: 0
Flags: HW
PickledData: "(dp1
S'com.typemytype.robofont.layerData'
p2
(dp3
s."
LayerCount: 2
Fore
SplineSet
2499 684.113 m 2
 2499 731.603 2470.6 760 2423.11 760 c 2
 2215.89 760 l 2
 2168.4 760 2140 731.603 2140 684.113 c 2
 2140 594.596 l 2
 2140 557.301 2117.7 535 2080.4 535 c 2
 2027 535 l 2
 2016.4 535 2010 541.398 2010 552 c 2
 2010 554 l 2
 2010 564.112 2011.86 577.631 2014.6 587.365 c 2
 2158.46 1098.95 l 2
 2170.46 1141.62 2147.45 1172 2103.11 1172 c 2
 1869.89 1172 l 2
 1820.24 1172 1786.86 1146.73 1773.34 1098.95 c 2
 1644.66 644.022 l 2
 1632.36 600.56 1624 540.28 1624 495.113 c 2
 1624 366.887 l 2
 1624 319.397 1652.4 291 1699.89 291 c 2
 2080.4 291 l 2
 2117.7 291 2140 268.699 2140 231.404 c 2
 2140 205.887 l 2
 2140 158.397 2168.4 130 2215.89 130 c 2
 2423.11 130 l 2
 2470.6 130 2499 158.397 2499 205.887 c 2
 2499 684.113 l 2
31 1342 m 2
 31 1297.57 57.5681 1271 102 1271 c 2
 115.404 1271 l 2
 152.699 1271 175 1248.7 175 1211.4 c 2
 175 505.887 l 2
 175 458.397 203.397 430 250.887 430 c 2
 494.113 430 l 2
 541.603 430 570 458.397 570 505.887 c 2
 570 1394.11 l 2
 570 1441.6 541.603 1470 494.113 1470 c 2
 384.485 1470 l 2
 303.96 1470 265.438 1463.8 188.975 1438.55 c 0
 162.268 1429.73 133.015 1423.24 101.885 1419.33 c 0
 52.059 1413.07 31 1389.2 31 1343 c 2
 31 1342 l 2
1110.11 0 m 2
 1159.39 0 1191.72 25.9792 1202.31 74.1042 c 2
 1520.69 1520.89 l 2
 1530.38 1564.91 1506.19 1595 1461.11 1595 c 2
 1178.89 1595 l 2
 1129.61 1595 1097.27 1569.01 1086.65 1520.89 c 2
 767.354 74.1042 l 2
 757.641 30.0905 781.815 0 826.887 0 c 2
 1110.11 0 l 2
EndSplineSet
EndChar

StartChar: ordfeminine
Encoding: 170 170 353
Width: 1471
VWidth: 0
Flags: HW
PickledData: "(dp1
S'com.typemytype.robofont.layerData'
p2
(dp3
s."
LayerCount: 2
Fore
SplineSet
1380 1241 m 2
 1380 1266 1379 1293 1377 1321 c 0
 1367 1444 1289 1511 1186 1553 c 0
 1068 1601 921 1616 739 1616 c 0
 653 1616 578 1612 515 1603 c 0
 315 1576 135 1514 135 1294 c 0
 135 1274.5 136.25 1255.75 138.25 1237.5 c 0
 141.849 1204.66 164.965 1184.72 197.974 1185.98 c 2
 595.168 1201.11 l 2
 642.983 1202.93 671 1232.04 671 1279.89 c 2
 671 1335.4 l 2
 671 1372.7 693.301 1395 730.596 1395 c 2
 750.404 1395 l 2
 787.699 1395 810 1372.7 810 1335.4 c 2
 810 1133.28 l 2
 810 1097.3 787.67 1079.84 752.746 1088.52 c 0
 692.732 1103.43 624.276 1113 544 1113 c 0
 234 1113 72 982 72 677 c 0
 72 396 208 263 493 263 c 0
 629.293 263 731.744 307.202 797.483 380.108 c 0
 819.958 405.033 844.039 400.796 856.659 369.698 c 2
 861.376 358.073 l 2
 879.656 313.027 913.851 290 962.465 290 c 2
 1331.19 290 l 2
 1378.15 290 1402.34 318.209 1395.17 364.619 c 2
 1368.85 535.187 l 2
 1366.65 549.459 1379.32 545.316 1369.1 535.105 c 2
 1380 545.997 l 1
 1380 1241 l 2
750.404 942 m 2
 787.699 942 810 919.699 810 882.404 c 2
 810 548.596 l 2
 810 511.301 787.699 489 750.404 489 c 2
 703.596 489 l 2
 666.301 489 644 511.301 644 548.596 c 2
 644 882.404 l 2
 644 919.699 666.301 942 703.596 942 c 2
 750.404 942 l 2
1380 545.997 m 1
 1380.21 546.207 l 2
 1389.79 555.788 1380 532.158 1380 545.707 c 2
 1380 545.997 l 1
EndSplineSet
EndChar

StartChar: ordmasculine
Encoding: 186 186 354
Width: 1334
VWidth: 0
Flags: HW
PickledData: "(dp1
S'com.typemytype.robofont.layerData'
p2
(dp3
s."
LayerCount: 2
Fore
SplineSet
1265 412 m 2
 1265 892 l 2
 1265 1180 996 1204 745 1204 c 0
 507 1204 218 1185 218 893 c 2
 218 413 l 2
 218 115 490 99 744 99 c 1
 990 102 1265 110 1265 412 c 2
675 954.404 m 2
 675 991.699 697.301 1014 734.596 1014 c 2
 748.404 1014 l 2
 785.699 1014 808 991.699 808 954.404 c 2
 808 376.596 l 2
 808 339.301 785.699 317 748.404 317 c 2
 734.596 317 l 2
 697.301 317 675 339.301 675 376.596 c 2
 675 954.404 l 2
EndSplineSet
EndChar

StartChar: oslash
Encoding: 248 248 355
Width: 1465
VWidth: 0
Flags: HW
PickledData: "(dp1
S'com.typemytype.robofont.layerData'
p2
(dp3
s."
LayerCount: 2
Fore
SplineSet
169.958 18.6199 m 2
 200.03 49.5858 228.112 54.5864 267.025 35.9053 c 0
 389.863 -23.0651 550.617 -39 744 -39 c 0
 928 -39 1078 -22 1197 27 c 0
 1330 82 1395 172 1395 352 c 2
 1395 952 l 2
 1395 1034.82 1384.42 1099.26 1355.79 1150.32 c 0
 1332.87 1191.22 1335.92 1214.29 1368.06 1247.18 c 2
 1378.03 1257.38 l 2
 1395.58 1275.33 1395.45 1296.55 1377.71 1314.29 c 2
 1376.29 1315.71 l 2
 1358.63 1333.37 1337.49 1333.26 1320.01 1315.41 c 2
 1300.09 1295.06 l 2
 1269.87 1264.19 1241.52 1258.71 1201.97 1276.1 c 0
 1081.76 1328.96 928.725 1343.93 744.5 1343.5 c 0
 638 1343 547 1337 473 1325 c 0
 241 1288 86 1212 86 952 c 2
 86 352 l 2
 86 276.46 95.1438 216.518 119.743 167.441 c 0
 140.834 125.364 137.149 101.822 104.208 68.2024 c 2
 84.0027 47.5801 l 2
 66.4424 29.6577 66.5506 8.44943 84.2929 -9.29289 c 2
 85.7071 -10.7071 l 2
 103.359 -28.3594 124.484 -28.2049 141.876 -10.2961 c 2
 169.958 18.6199 l 2
657 459.404 m 2
 657 499.069 670.924 533.26 698.636 561.639 c 2
 781.364 646.361 l 2
 800.751 666.215 823 657.154 823 629.404 c 2
 823 293.596 l 2
 823 256.301 800.699 234 763.404 234 c 2
 716.596 234 l 2
 679.301 234 657 256.301 657 293.596 c 2
 657 459.404 l 2
657 1046.4 m 2
 657 1083.7 679.301 1106 716.596 1106 c 2
 763.404 1106 l 2
 800.699 1106 823 1083.7 823 1046.4 c 2
 823 865.596 l 2
 823 825.931 809.076 791.74 781.364 763.361 c 2
 698.636 678.639 l 2
 679.249 658.785 657 667.846 657 695.596 c 2
 657 1046.4 l 2
EndSplineSet
EndChar

StartChar: p
Encoding: 112 112 357
Width: 1476
VWidth: 0
Flags: HW
PickledData: "(dp1
S'com.typemytype.robofont.layerData'
p2
(dp3
s."
LayerCount: 2
Fore
SplineSet
1409 365 m 2
 1409 926 l 2
 1409 1198 1262 1327 986 1327 c 0
 859.754 1327 741.096 1292.51 666.123 1229.83 c 0
 639.934 1207.93 617.282 1214.39 606.575 1246.8 c 0
 594.347 1281.79 568.488 1300 531.023 1300 c 2
 174.887 1300 l 2
 127.397 1300 99 1271.6 99 1224.11 c 2
 99 -332.113 l 2
 99 -379.603 127.397 -408 174.887 -408 c 2
 594.113 -408 l 2
 641.603 -408 670 -379.603 670 -332.113 c 2
 670 24.0649 l 2
 670 53.5217 689.039 63.024 712.579 45.3156 c 0
 778.727 -4.44661 877.42 -27 989 -27 c 0
 1263 -27 1409 99 1409 365 c 2
670 1045.4 m 2
 670 1082.7 692.301 1105 729.596 1105 c 2
 777.404 1105 l 2
 814.699 1105 837 1082.7 837 1045.4 c 2
 837 258.596 l 2
 837 221.301 814.699 199 777.404 199 c 2
 729.596 199 l 2
 692.301 199 670 221.301 670 258.596 c 2
 670 1045.4 l 2
EndSplineSet
EndChar

StartChar: paragraph
Encoding: 182 182 358
Width: 1318
VWidth: 0
Flags: HW
PickledData: "(dp1
S'com.typemytype.robofont.layerData'
p2
(dp3
s."
LayerCount: 2
Fore
SplineSet
591 75.8873 m 2
 591 28.397 619.397 0 666.887 0 c 2
 777.113 0 l 2
 824.603 0 853 28.397 853 75.8873 c 2
 853 604.5 l 2
 853 637.98 873.02 658 906.5 658 c 2
 908.5 658 l 2
 941.98 658 962 637.98 962 604.5 c 2
 962 75.8873 l 2
 962 28.397 990.397 0 1037.89 0 c 2
 1147.11 0 l 2
 1194.6 0 1223 28.397 1223 75.8873 c 2
 1223 1519.11 l 2
 1223 1566.6 1194.6 1595 1147.11 1595 c 2
 689 1595 l 2
 342 1595 56 1516 56 1107 c 0
 56 801.876 234.048 674.8 531.39 660.398 c 0
 570.042 658.526 591 636.529 591 597.831 c 2
 591 75.8873 l 2
EndSplineSet
EndChar

StartChar: parenleft
Encoding: 40 40 359
Width: 860
VWidth: 0
Flags: HW
PickledData: "(dp1
S'com.typemytype.robofont.layerData'
p2
(dp3
s."
LayerCount: 2
Fore
SplineSet
678 -169 m 2
 725.5 -169 l 2
 753.974 -169 771 -151.974 771 -123.5 c 2
 771 78.5 l 2
 771 98.2127 759.213 110 739.5 110 c 2
 706 110 l 2
 545 110 453 466 453 827 c 0
 453 1188 545 1562 706 1562 c 2
 739.5 1562 l 2
 759.213 1562 771 1573.79 771 1593.5 c 2
 771 1795.5 l 2
 771 1823.97 753.974 1841 725.5 1841 c 2
 678 1841 l 2
 253 1841 51 1328 51 827 c 0
 51 326 253 -169 678 -169 c 2
EndSplineSet
EndChar

StartChar: parenright
Encoding: 41 41 360
Width: 861
VWidth: 0
Flags: HW
PickledData: "(dp1
S'com.typemytype.robofont.layerData'
p2
(dp3
s."
LayerCount: 2
Fore
SplineSet
183 1841 m 2
 135.5 1841 l 2
 107.026 1841 90 1823.97 90 1795.5 c 2
 90 1593.5 l 2
 90 1573.79 101.787 1562 121.5 1562 c 2
 155 1562 l 2
 316 1562 408 1188 408 827 c 0
 408 466 316 110 155 110 c 2
 121.5 110 l 2
 101.787 110 90 98.2127 90 78.5 c 2
 90 -123.5 l 2
 90 -151.974 107.026 -169 135.5 -169 c 2
 183 -169 l 2
 608 -169 810 326 810 827 c 0
 810 1328 608 1841 183 1841 c 2
EndSplineSet
EndChar

StartChar: percent
Encoding: 37 37 361
Width: 2792
VWidth: 0
Flags: HW
PickledData: "(dp1
S'com.typemytype.robofont.layerData'
p2
(dp3
s."
LayerCount: 2
Fore
SplineSet
623 877.5 m 2
 623 849.652 606.348 833 578.5 833 c 2
 576.5 833 l 2
 548.652 833 532 849.652 532 877.5 c 2
 532 1333.5 l 2
 532 1361.35 548.652 1378 576.5 1378 c 2
 578.5 1378 l 2
 606.348 1378 623 1361.35 623 1333.5 c 2
 623 877.5 l 2
1025 929 m 2
 1025 1288 l 2
 1025 1578 795 1595 574 1595 c 0
 352 1595 125 1577 125 1286 c 2
 125 927 l 2
 125 623 349 618 575 618 c 0
 798 618 1025 630 1025 929 c 2
2262 391 m 2
 2262 363.465 2245.54 347 2218 347 c 2
 2216 347 l 2
 2188.46 347 2172 363.465 2172 391 c 2
 2172 848 l 2
 2172 875.535 2188.46 892 2216 892 c 2
 2218 892 l 2
 2245.54 892 2262 875.535 2262 848 c 2
 2262 391 l 2
2665 442 m 2
 2665 799 l 2
 2665 1092 2437 1109 2214 1109 c 0
 1990 1109 1765 1091 1765 798 c 2
 1765 441 l 2
 1765 146 1990 129 2215 129 c 0
 2436 129 2665 153 2665 442 c 2
1470.89 1632 m 2
 1421.56 1632 1389.11 1606.1 1378.17 1558 c 2
 1031.83 34.998 l 2
 1021.85 -8.8738 1045.9 -39 1090.89 -39 c 2
 1327.11 -39 l 2
 1376.42 -39 1408.83 -13.0694 1419.66 35.0362 c 2
 1762.34 1557.96 l 2
 1772.22 1601.89 1748.13 1632 1703.11 1632 c 2
 1470.89 1632 l 2
EndSplineSet
EndChar

StartChar: period
Encoding: 46 46 362
Width: 670
VWidth: 0
Flags: HW
PickledData: "(dp1
S'com.typemytype.robofont.layerData'
p2
(dp3
s."
LayerCount: 2
Fore
SplineSet
340 -39 m 0
 442 -39 544 31 544 171 c 0
 544 311 442 381 340 381 c 0
 238 381 136 311 136 171 c 0
 136 31 238 -39 340 -39 c 0
EndSplineSet
EndChar

StartChar: periodcentered
Encoding: 183 183 363
Width: 670
VWidth: 0
Flags: HW
PickledData: "(dp1
S'com.typemytype.robofont.layerData'
p2
(dp3
s."
LayerCount: 2
Fore
SplineSet
340 -39 m 0
 442 -39 544 31 544 171 c 0
 544 311 442 381 340 381 c 0
 238 381 136 311 136 171 c 0
 136 31 238 -39 340 -39 c 0
EndSplineSet
EndChar

StartChar: plus
Encoding: 43 43 364
Width: 1328
VWidth: 0
Flags: HW
PickledData: "(dp1
S'com.typemytype.robofont.layerData'
p2
(dp3
s."
LayerCount: 2
Fore
SplineSet
179.887 811 m 2
 132.397 811 104 782.603 104 735.113 c 2
 104 553.887 l 2
 104 506.397 132.397 478 179.887 478 c 2
 409.404 478 l 2
 446.699 478 469 455.699 469 418.404 c 2
 469 175.887 l 2
 469 128.397 497.397 100 544.887 100 c 2
 785.113 100 l 2
 832.603 100 861 128.397 861 175.887 c 2
 861 418.404 l 2
 861 455.699 883.301 478 920.596 478 c 2
 1149.11 478 l 2
 1196.6 478 1225 506.397 1225 553.887 c 2
 1225 735.113 l 2
 1225 782.603 1196.6 811 1149.11 811 c 2
 920.596 811 l 2
 883.301 811 861 833.301 861 870.596 c 2
 861 1116.11 l 2
 861 1163.6 832.603 1192 785.113 1192 c 2
 544.887 1192 l 2
 497.397 1192 469 1163.6 469 1116.11 c 2
 469 870.596 l 2
 469 833.301 446.699 811 409.404 811 c 2
 179.887 811 l 2
EndSplineSet
EndChar

StartChar: plusminus
Encoding: 177 177 365
Width: 1304
VWidth: 0
Flags: HW
PickledData: "(dp1
S'com.typemytype.robofont.layerData'
p2
(dp3
s."
LayerCount: 2
Fore
SplineSet
167.887 1214 m 2
 120.397 1214 92 1185.6 92 1138.11 c 2
 92 956.887 l 2
 92 909.397 120.397 881 167.887 881 c 2
 397.404 881 l 2
 434.699 881 457 858.699 457 821.404 c 2
 457 578.887 l 2
 457 531.397 485.397 503 532.887 503 c 2
 773.113 503 l 2
 820.603 503 849 531.397 849 578.887 c 2
 849 821.404 l 2
 849 858.699 871.301 881 908.596 881 c 2
 1137.11 881 l 2
 1184.6 881 1213 909.397 1213 956.887 c 2
 1213 1138.11 l 2
 1213 1185.6 1184.6 1214 1137.11 1214 c 2
 908.596 1214 l 2
 871.301 1214 849 1236.3 849 1273.6 c 2
 849 1519.11 l 2
 849 1566.6 820.603 1595 773.113 1595 c 2
 532.887 1595 l 2
 485.397 1595 457 1566.6 457 1519.11 c 2
 457 1273.6 l 2
 457 1236.3 434.699 1214 397.404 1214 c 2
 167.887 1214 l 2
305.887 300 m 2
 258.397 300 230 271.603 230 224.113 c 2
 230 74.8873 l 2
 230 27.397 258.397 -1 305.887 -1 c 2
 988.113 -1 l 2
 1035.6 -1 1064 27.397 1064 74.8873 c 2
 1064 224.113 l 2
 1064 271.603 1035.6 300 988.113 300 c 2
 305.887 300 l 2
EndSplineSet
EndChar

StartChar: product
Encoding: 8719 8719 366
Width: 1788
VWidth: 0
Flags: HW
PickledData: "(dp1
S'com.typemytype.robofont.layerData'
p2
(dp3
s."
LayerCount: 2
Fore
SplineSet
236 1595 m 2
 188 1595 164 1565 160 1519 c 0
 140 1268 140 1025 140 790 c 0
 140 543 141 305 160 76 c 0
 164 29 188 0 236 0 c 2
 698 0 l 2
 746 0 774 28 774 76 c 2
 774 1335.5 l 2
 774 1373.5 776 1375.5 814 1375.5 c 2
 973 1375.5 l 2
 1011 1375.5 1013 1373.5 1013 1335.5 c 2
 1013 76 l 2
 1013 28 1041 0 1089 0 c 2
 1551 0 l 2
 1599 0 1622 28 1627 76 c 0
 1648 283 1648 548 1648 810 c 0
 1648 1069 1648 1325 1627 1519 c 0
 1622 1566 1599 1595 1551 1595 c 2
 236 1595 l 2
EndSplineSet
EndChar

StartChar: q
Encoding: 113 113 367
Width: 1459
VWidth: 0
Flags: HW
PickledData: "(dp1
S'com.typemytype.robofont.layerData'
p2
(dp3
s."
LayerCount: 2
Fore
SplineSet
86 365 m 2
 86 99 227 -27 501 -27 c 0
 616.838 -27 717.584 -3.37698 787.823 47.0584 c 0
 812.27 64.6132 832 54.4909 832 24.3936 c 2
 832 -332.113 l 2
 832 -379.603 860.397 -408 907.887 -408 c 2
 1305.11 -408 l 2
 1352.6 -408 1381 -379.603 1381 -332.113 c 2
 1381 1224.11 l 2
 1381 1271.6 1352.6 1300 1305.11 1300 c 2
 927.135 1300 l 2
 888.879 1300 862.613 1281.18 850.321 1244.95 c 2
 845.468 1230.64 l 2
 837.698 1207.74 820.761 1203.57 803.25 1220.25 c 0
 792.75 1230.25 781 1239.5 768 1248 c 0
 702 1292 608 1327 502 1327 c 0
 226 1327 85 1194 85 926 c 1
 86 926 l 1
 86 365 l 2
817 258.596 m 2
 817 221.301 794.699 199 757.404 199 c 2
 711.596 199 l 2
 674.301 199 652 221.301 652 258.596 c 2
 652 1045.4 l 2
 652 1082.7 674.301 1105 711.596 1105 c 2
 757.404 1105 l 2
 794.699 1105 817 1082.7 817 1045.4 c 2
 817 258.596 l 2
EndSplineSet
EndChar

StartChar: question
Encoding: 63 63 368
Width: 955
VWidth: 0
Flags: HW
PickledData: "(dp1
S'com.typemytype.robofont.layerData'
p2
(dp3
s."
LayerCount: 2
Fore
SplineSet
922.977 1313 m 0
 922.977 1473 824.977 1632 489.977 1632 c 0
 409.704 1632 311.251 1617.32 191.696 1583.86 c 0
 145.722 1570.99 121.707 1535.68 126.633 1488.2 c 2
 146.851 1293.32 l 2
 151.661 1246.97 181.653 1227.36 226.042 1241.54 c 0
 275.317 1257.29 315.743 1264 348.977 1264 c 0
 451.977 1264 490.977 1212 490.977 1150 c 0
 490.977 1141 489.977 1132 488.977 1123 c 0
 461.977 979 343.977 814 343.977 582 c 0
 343.977 536 363.977 510 404.977 510 c 0
 431.977 510 461.977 524 466.977 567 c 0
 506.977 912 922.977 1009 922.977 1313 c 0
406.977 -39 m 0
 508.977 -39 610.977 31 610.977 171 c 0
 610.977 311 508.977 381 406.977 381 c 0
 304.977 381 202.977 311 202.977 171 c 0
 202.977 31 304.977 -39 406.977 -39 c 0
EndSplineSet
EndChar

StartChar: questiondown
Encoding: 191 191 369
Width: 906
VWidth: 0
Flags: HW
PickledData: "(dp1
S'com.typemytype.robofont.layerData'
p2
(dp3
s."
LayerCount: 2
Fore
SplineSet
37 285 m 0
 37 125 135 -34 470 -34 c 0
 550.273 -34 648.726 -19.3168 768.281 14.1422 c 0
 814.255 27.0085 838.27 62.3172 833.343 109.803 c 2
 813.125 304.682 l 2
 808.316 351.033 778.324 370.643 733.935 356.458 c 0
 684.66 340.712 644.234 334 611 334 c 0
 508 334 469 386 469 448 c 0
 469 457 470 466 471 475 c 0
 498 619 616 784 616 1016 c 0
 616 1062 596 1088 555 1088 c 0
 528 1088 498 1074 493 1031 c 0
 453 686 37 589 37 285 c 0
553 1637 m 0
 451 1637 349 1567 349 1427 c 0
 349 1287 451 1217 553 1217 c 0
 655 1217 757 1287 757 1427 c 0
 757 1567 655 1637 553 1637 c 0
EndSplineSet
EndChar

StartChar: quotedbl
Encoding: 34 34 370
Width: 1213
VWidth: 0
Flags: HW
PickledData: "(dp1
S'com.typemytype.robofont.layerData'
p2
(dp3
s."
LayerCount: 2
Fore
SplineSet
335 837 m 0
 357 837 381 857 390 896 c 0
 435 1086 528 1344 528 1452 c 0
 528 1568 430 1629 333 1629 c 0
 239 1629 147 1572 147 1454 c 0
 147 1349 235 1090 280 896 c 1
 291 856 313 837 335 837 c 0
832 837 m 0
 854 837 878 857 887 896 c 0
 932 1086 1025 1344 1025 1452 c 0
 1025 1568 927 1629 830 1629 c 0
 736 1629 644 1572 644 1454 c 0
 644 1349 732 1090 777 896 c 1
 788 856 810 837 832 837 c 0
EndSplineSet
EndChar

StartChar: quotedblbase
Encoding: 8222 8222 371
Width: 1229
VWidth: 0
Flags: HW
PickledData: "(dp1
S'com.typemytype.robofont.layerData'
p2
(dp3
s."
LayerCount: 2
Fore
SplineSet
344 -409 m 0
 366 -409 390 -389 399 -350 c 0
 444 -160 537 98 537 206 c 0
 537 322 439 383 342 383 c 0
 248 383 156 326 156 208 c 0
 156 103 244 -156 289 -350 c 1
 300 -390 322 -409 344 -409 c 0
841 -409 m 0
 863 -409 887 -389 896 -350 c 0
 941 -160 1034 98 1034 206 c 0
 1034 322 936 383 839 383 c 0
 745 383 653 326 653 208 c 0
 653 103 741 -156 786 -350 c 1
 797 -390 819 -409 841 -409 c 0
EndSplineSet
EndChar

StartChar: quotedblleft
Encoding: 8220 8220 372
Width: 1339
VWidth: 0
Flags: HW
PickledData: "(dp1
S'com.typemytype.robofont.layerData'
p2
(dp3
s."
LayerCount: 2
Fore
SplineSet
1049.81 1381.41 m 0
 1013.34 1396.42 1004.04 1452.8 1033.32 1478.35 c 0
 1050.29 1493.16 1071.46 1504.02 1095 1510.59 c 0
 1135.41 1521.89 1148 1538.47 1148 1578.91 c 2
 1148 1606.6 l 2
 1148 1619.45 1139.83 1628.23 1127.01 1629.15 c 0
 1119.16 1629.72 1111.44 1630 1104 1630 c 0
 883 1630 757 1411 757 1227 c 0
 757 1098 823 987 967 987 c 0
 1069 987 1171 1054 1171 1187 c 0
 1171 1288.47 1117.79 1353.44 1049.81 1381.41 c 0
546.809 1381.41 m 0
 510.344 1396.42 501.04 1452.8 530.321 1478.35 c 0
 547.288 1493.16 568.462 1504.02 591.997 1510.59 c 0
 632.413 1521.89 645 1538.47 645 1578.91 c 2
 645 1606.6 l 2
 645 1619.45 636.831 1628.23 624.009 1629.15 c 0
 616.157 1629.72 608.438 1630 601 1630 c 0
 380 1630 254 1411 254 1227 c 0
 254 1098 320 987 464 987 c 0
 566 987 668 1054 668 1187 c 0
 668 1288.47 614.786 1353.44 546.809 1381.41 c 0
EndSplineSet
EndChar

StartChar: quotedblright
Encoding: 8221 8221 373
Width: 1327
VWidth: 0
Flags: HW
PickledData: "(dp1
S'com.typemytype.robofont.layerData'
p2
(dp3
s."
LayerCount: 2
Fore
SplineSet
375.191 1235.59 m 0
 411.656 1220.58 420.96 1164.2 391.679 1138.65 c 0
 374.712 1123.84 353.538 1112.98 330.003 1106.41 c 0
 289.587 1095.11 277 1078.53 277 1038.09 c 2
 277 1010.4 l 2
 277 997.546 285.169 988.768 297.991 987.847 c 0
 305.843 987.282 313.562 987 321 987 c 0
 542 987 668 1206 668 1390 c 0
 668 1519 602 1630 458 1630 c 0
 356 1630 254 1563 254 1430 c 0
 254 1328.53 307.214 1263.56 375.191 1235.59 c 0
878.191 1235.59 m 0
 914.656 1220.58 923.96 1164.2 894.679 1138.65 c 0
 877.712 1123.84 856.538 1112.98 833.003 1106.41 c 0
 792.587 1095.11 780 1078.53 780 1038.09 c 2
 780 1010.4 l 2
 780 997.546 788.169 988.768 800.991 987.847 c 0
 808.843 987.282 816.562 987 824 987 c 0
 1045 987 1171 1206 1171 1390 c 0
 1171 1519 1105 1630 961 1630 c 0
 859 1630 757 1563 757 1430 c 0
 757 1328.53 810.214 1263.56 878.191 1235.59 c 0
EndSplineSet
EndChar

StartChar: quoteleft
Encoding: 8216 8216 374
Width: 722
VWidth: 0
Flags: HW
PickledData: "(dp1
S'com.typemytype.robofont.layerData'
p2
(dp3
s."
LayerCount: 2
Fore
SplineSet
447.809 1381.41 m 0
 411.344 1396.42 402.04 1452.8 431.321 1478.35 c 0
 448.288 1493.16 469.462 1504.02 492.997 1510.59 c 0
 533.413 1521.89 546 1538.47 546 1578.91 c 2
 546 1606.6 l 2
 546 1619.45 537.831 1628.23 525.009 1629.15 c 0
 517.157 1629.72 509.438 1630 502 1630 c 0
 281 1630 155 1411 155 1227 c 0
 155 1098 224 987 375 987 c 0
 472 987 569 1054 569 1187 c 0
 569 1288.47 515.786 1353.44 447.809 1381.41 c 0
EndSplineSet
EndChar

StartChar: quoteright
Encoding: 8217 8217 375
Width: 706
VWidth: 0
Flags: HW
PickledData: "(dp1
S'com.typemytype.robofont.layerData'
p2
(dp3
s."
LayerCount: 2
Fore
SplineSet
275.191 1235.59 m 0
 311.656 1220.58 320.96 1164.2 291.679 1138.65 c 0
 274.712 1123.84 253.538 1112.98 230.003 1106.41 c 0
 189.587 1095.11 177 1078.53 177 1038.09 c 2
 177 1010.4 l 2
 177 997.546 185.169 988.768 197.991 987.847 c 0
 205.843 987.282 213.562 987 221 987 c 0
 442 987 568 1206 568 1390 c 0
 568 1519 502 1630 358 1630 c 0
 256 1630 154 1563 154 1430 c 0
 154 1328.53 207.214 1263.56 275.191 1235.59 c 0
EndSplineSet
EndChar

StartChar: quotesinglbase
Encoding: 8218 8218 376
Width: 648
VWidth: 0
Flags: HW
PickledData: "(dp1
S'com.typemytype.robofont.layerData'
p2
(dp3
s."
LayerCount: 2
Fore
SplineSet
308 -409 m 0
 330 -409 354 -389 363 -350 c 0
 408 -160 501 98 501 206 c 0
 501 322 403 383 306 383 c 0
 212 383 120 326 120 208 c 0
 120 103 208 -156 253 -350 c 1
 264 -390 286 -409 308 -409 c 0
EndSplineSet
EndChar

StartChar: quotesingle
Encoding: 39 39 377
Width: 629
VWidth: 0
Flags: HW
PickledData: "(dp1
S'com.typemytype.robofont.layerData'
p2
(dp3
s."
LayerCount: 2
Fore
SplineSet
335 837 m 0
 357 837 381 857 390 896 c 0
 435 1086 528 1344 528 1452 c 0
 528 1568 430 1629 333 1629 c 0
 239 1629 147 1572 147 1454 c 0
 147 1349 235 1090 280 896 c 1
 291 856 313 837 335 837 c 0
EndSplineSet
EndChar

StartChar: r
Encoding: 114 114 378
Width: 981
VWidth: 0
Flags: HW
PickledData: "(dp1
S'com.typemytype.robofont.layerData'
p2
(dp3
s."
LayerCount: 2
Fore
SplineSet
595.113 0 m 2
 642.603 0 671 28.397 671 75.8873 c 2
 671 833.404 l 2
 671 871.975 691.633 897.04 729.485 904.452 c 2
 882.527 934.418 l 2
 930.727 943.856 957 975.772 957 1024.89 c 2
 957 1255.78 l 2
 957 1298.78 923.932 1326.94 881.476 1320.08 c 0
 785.984 1304.65 706.064 1264.61 658.403 1204.26 c 0
 639.986 1180.94 619.033 1185.15 611.05 1213.77 c 2
 607.231 1227.46 l 2
 594 1274.9 560.944 1300 511.695 1300 c 2
 176.887 1300 l 2
 129.39 1300 100.978 1271.61 100.942 1224.11 c 2
 100.058 75.8873 l 2
 100.022 28.4044 128.404 0 175.887 0 c 2
 595.113 0 l 2
EndSplineSet
EndChar

StartChar: registered
Encoding: 174 174 382
Width: 1861
VWidth: 0
Flags: HW
PickledData: "(dp1
S'com.typemytype.robofont.layerData'
p2
(dp3
s."
LayerCount: 2
Fore
SplineSet
1780 539 m 2
 1780 1116 l 2
 1780 1610 1441 1749 932 1749 c 0
 490 1749 84 1638 84 1116 c 2
 84 539 l 2
 84 42 421 -101 932 -101 c 0
 1377 -101 1780 14 1780 539 c 2
932 1573 m 0
 1275 1573 1541 1500 1541 1165 c 2
 1541 482 l 2
 1541 156 1300 68 932 68 c 0
 523 68 323 169 323 535 c 2
 323 1114 l 2
 323 1471 520 1573 932 1573 c 0
1116 845.5 m 2
 1116 850.819 1119.17 854.288 1124.47 854.77 c 2
 1226 864 l 2
 1308 871 1361 945 1361 1071 c 2
 1361 1164 l 2
 1361 1423 1171 1434 1016 1434 c 2
 581.887 1434 l 2
 534.397 1434 506 1405.6 506 1358.11 c 2
 506 354.887 l 2
 506 307.397 534.397 279 581.887 279 c 2
 819.113 279 l 2
 866.603 279 895 307.397 895 354.887 c 2
 895 715.5 l 2
 895 740.845 910.155 756 935.5 756 c 2
 937.5 756 l 2
 962.845 756 978 740.845 978 715.5 c 2
 978 354.887 l 2
 978 307.397 1006.4 279 1053.89 279 c 2
 1281.11 279 l 2
 1328.6 279 1357 307.397 1357 354.887 c 2
 1357 643 l 2
 1357 751 1311 822 1227 828 c 2
 1124.47 834.465 l 2
 1119.19 834.798 1116 838.204 1116 843.5 c 2
 1116 845.5 l 2
895 1233.5 m 2
 895 1258.84 910.155 1274 935.5 1274 c 2
 937.5 1274 l 2
 962.845 1274 978 1258.84 978 1233.5 c 2
 978 955.5 l 2
 978 930.155 962.845 915 937.5 915 c 2
 935.5 915 l 2
 910.155 915 895 930.155 895 955.5 c 2
 895 1233.5 l 2
EndSplineSet
EndChar

StartChar: ring
Encoding: 730 730 383
Width: 805
VWidth: 0
Flags: HW
PickledData: "(dp1
S'com.typemytype.robofont.layerData'
p2
(dp3
s."
LayerCount: 2
Fore
SplineSet
98 305 m 0
 146 197 252 110 405 110 c 0
 451 110 494 118 534 135 c 0
 643 180 738 280 738 430 c 0
 738 475 729 517 712 556 c 0
 664 664 558 752 405 752 c 0
 359 752 316 744 275 727 c 0
 165 682 72 581 72 430 c 0
 72 386 81 344 98 305 c 0
524 430 m 0
 524 363 470 309 403 309 c 0
 335 309 282 362 282 430 c 0
 282 500 333 552 403 552 c 0
 471 552 524 499 524 430 c 0
EndSplineSet
EndChar

StartChar: s
Encoding: 115 115 384
Width: 1434
VWidth: 0
Flags: HW
PickledData: "(dp1
S'com.typemytype.robofont.layerData'
p2
(dp3
s."
LayerCount: 2
Fore
SplineSet
710 -27 m 0
 1047 -27 1378 6 1378 420 c 0
 1378 629 1307 753 1027 796 c 0
 922 812 796 828 685 846 c 0
 658.492 851.302 640 863.548 640 878 c 2
 640 1003 l 2
 640 1041 662 1063 700 1063 c 2
 747 1063 l 2
 785 1063 807 1041 807 1003 c 2
 807 978 l 2
 807 930 835 900 883 898 c 2
 1306 874 l 2
 1330 873 1347 888 1347 913 c 2
 1347 956 l 2
 1347 1309 1012 1327 739 1327 c 0
 367 1327 70 1266 70 900 c 0
 70 685 125 549 422 507 c 0
 527 492 653 475 764 460 c 0
 803.443 455.492 807 409 807 395 c 2
 807 293 l 2
 807 255 785 233 747 233 c 2
 700 233 l 2
 662 233 640 255 640 293 c 2
 640 324 l 2
 640 372 612 402 564 404 c 2
 117 431 l 2
 107 432 100 425 100 416 c 2
 100 397 l 2
 100 8 358 -27 710 -27 c 0
EndSplineSet
EndChar

StartChar: section
Encoding: 167 167 390
Width: 1362
VWidth: 0
Flags: HW
PickledData: "(dp1
S'com.typemytype.robofont.layerData'
p2
(dp3
s."
LayerCount: 2
Fore
SplineSet
1150.32 651.585 m 1
 1221.55 606.601 l 2
 1145.2 654.82 1148.42 708.043 1232.37 747.809 c 2
 1169.29 717.926 l 2
 1166.9 716.793 1166.44 717.646 1168.73 718.986 c 0
 1241.3 761.579 1294 833.731 1294 949 c 0
 1294 1212 965 1223 776 1231 c 0
 757.758 1231.91 735.148 1231.78 714.241 1233.08 c 0
 692.758 1234.42 657 1272.46 657 1293.99 c 2
 657 1461.5 l 2
 657 1483.72 670.284 1497 692.5 1497 c 2
 694.5 1497 l 2
 716.716 1497 730 1483.72 730 1461.5 c 2
 730 1381.89 l 2
 730 1334.4 758.397 1306 805.887 1306 c 2
 1230.23 1306 l 2
 1262.81 1306 1282.01 1324.93 1282.48 1357.5 c 0
 1282.74 1375.34 1283 1393.04 1283 1411 c 0
 1283 1749 964 1770 702 1770 c 0
 364 1770 88 1727 88 1329 c 0
 88 1206.17 139.629 1126.26 213.24 1075.53 c 0
 242.546 1055.33 240.376 1035.95 155.152 1001.86 c 2
 231.669 1032.47 l 1
 141.58 993.384 73 911.349 73 783 c 0
 73 555 231 487 455 487 c 2
 650.404 487 l 2
 687.699 487 710 464.699 710 427.404 c 2
 710 270.5 l 2
 710 248.284 696.716 235 674.5 235 c 2
 672.5 235 l 2
 650.284 235 637 248.284 637 270.5 c 2
 637 350.113 l 2
 637 397.603 608.603 426 561.113 426 c 2
 137.766 426 l 2
 105.19 426 85.9879 407.072 85.5198 374.5 c 0
 85.2634 356.659 85 338.961 85 321 c 0
 85 -18 401 -40 664 -40 c 0
 1002 -40 1278 3 1278 401 c 0
 1278 524.624 1223.68 602.83 1150.32 651.585 c 1
681.5 748 m 2
 660.536 748 648 760.536 648 781.5 c 2
 648 937.5 l 2
 648 958.464 660.536 971 681.5 971 c 2
 683.5 971 l 2
 704.464 971 717 958.464 717 937.5 c 2
 717 781.5 l 2
 717 760.536 704.464 748 683.5 748 c 2
 681.5 748 l 2
EndSplineSet
EndChar

StartChar: semicolon
Encoding: 59 59 391
Width: 710
VWidth: 0
Flags: HW
PickledData: "(dp1
S'com.typemytype.robofont.layerData'
p2
(dp3
s."
LayerCount: 2
Fore
SplineSet
262.191 128.587 m 0
 298.656 113.582 307.96 57.1966 278.679 31.6479 c 0
 261.712 16.8435 240.538 5.9822 217.003 -0.594382 c 0
 176.587 -11.8882 164 -28.4746 164 -68.9055 c 2
 164 -96.5994 l 2
 164 -109.454 172.169 -118.232 184.991 -119.153 c 0
 192.843 -119.718 200.562 -120 208 -120 c 0
 429 -120 555 99 555 283 c 0
 555 412 489 523 345 523 c 0
 243 523 141 456 141 323 c 0
 141 221.526 194.214 156.559 262.191 128.587 c 0
345 923 m 0
 447 923 549 993 549 1133 c 0
 549 1273 447 1343 345 1343 c 0
 243 1343 141 1273 141 1133 c 0
 141 993 243 923 345 923 c 0
EndSplineSet
EndChar

StartChar: seven
Encoding: 55 55 392
Width: 991
VWidth: 0
Flags: HW
PickledData: "(dp1
S'com.typemytype.robofont.layerData'
p2
(dp3
s."
LayerCount: 2
Fore
SplineSet
115.887 1595 m 2
 68.397 1595 40 1566.6 40 1519.11 c 2
 40 1429.89 l 2
 40 1382.4 68.397 1354 115.887 1354 c 2
 274.404 1354 l 2
 310.325 1354 330.169 1330.64 324.358 1295.19 c 2
 124.278 74.8874 l 2
 116.878 29.7492 142.146 0 187.887 0 c 2
 640.113 0 l 2
 689.027 0 720.45 26.6037 728.521 74.8473 c 2
 929.479 1276.15 l 2
 936.531 1318.3 942 1384.15 942 1426.89 c 2
 942 1519.11 l 2
 942 1566.6 913.603 1595 866.113 1595 c 2
 115.887 1595 l 2
EndSplineSet
EndChar

StartChar: six
Encoding: 54 54 393
Width: 1448
VWidth: 0
Flags: HW
PickledData: "(dp1
S'com.typemytype.robofont.layerData'
p2
(dp3
s."
LayerCount: 2
Fore
SplineSet
636 738.404 m 2
 636 775.699 658.301 798 695.596 798 c 2
 756.404 798 l 2
 793.699 798 816 775.699 816 738.404 c 2
 816 295.596 l 2
 816 258.301 793.699 236 756.404 236 c 2
 695.596 236 l 2
 658.301 236 636 258.301 636 295.596 c 2
 636 738.404 l 2
1382 523 m 0
 1382 941 1223 1068 761 1068 c 2
 696.596 1068 l 2
 659.301 1068 637 1090.3 637 1127.6 c 2
 637 1309.4 l 2
 637 1346.7 659.301 1369 696.596 1369 c 2
 740.404 1369 l 2
 777.699 1369 800 1346.7 800 1309.4 c 2
 800 1233.89 l 2
 800 1186.4 828.397 1158 875.887 1158 c 2
 1292.97 1158 l 2
 1316.38 1158 1330.88 1173.07 1329.98 1196.46 c 0
 1329.49 1209.32 1329 1222.67 1329 1237 c 0
 1329 1608 966 1632 717 1632 c 0
 312 1632 85 1496 85 1056 c 2
 85 476 l 2
 85 93 312 -39 718 -39 c 1
 1130 -36 1382 62 1382 523 c 0
EndSplineSet
EndChar

StartChar: slash
Encoding: 47 47 394
Width: 1056
VWidth: 0
Flags: HW
PickledData: "(dp1
S'com.typemytype.robofont.layerData'
p2
(dp3
s."
LayerCount: 2
Fore
SplineSet
495.113 0 m 2
 544.389 0 576.719 25.9792 587.31 74.1042 c 2
 905.69 1520.89 l 2
 915.379 1564.91 891.193 1595 846.113 1595 c 2
 563.887 1595 l 2
 514.607 1595 482.266 1569.01 471.646 1520.89 c 2
 152.354 74.1042 l 2
 142.641 30.0905 166.815 0 211.887 0 c 2
 495.113 0 l 2
EndSplineSet
EndChar

StartChar: sterling
Encoding: 163 163 396
Width: 1598
VWidth: 0
Flags: HW
PickledData: "(dp1
S'com.typemytype.robofont.layerData'
p2
(dp3
s."
LayerCount: 2
Fore
SplineSet
74 75.8873 m 2
 74 28.397 102.397 0 149.887 0 c 2
 301 0 l 1
 407 1 497 2 579 16 c 0
 650.992 28.6172 696.544 52.8021 738.141 88.5546 c 0
 765.392 111.977 800.585 110.312 807.604 103.019 c 0
 811.311 99.1665 815.117 95.1602 819 91 c 0
 877 29 971 0 1097 0 c 0
 1225 0 1325 19 1399 65 c 0
 1498 126 1528 228 1528 385 c 2
 1528 486.113 l 2
 1528 533.603 1499.6 562 1452.11 562 c 2
 1022.89 562 l 2
 975.397 562 947 533.603 947 486.113 c 2
 947 327.596 l 2
 947 290.301 924.699 268 887.404 268 c 2
 878.596 268 l 2
 841.301 268 819 290.301 819 327.596 c 2
 819 658.404 l 2
 819 695.699 841.301 718 878.596 718 c 2
 1170.11 718 l 2
 1217.6 718 1246 746.397 1246 793.887 c 2
 1246 864.113 l 2
 1246 911.603 1217.6 940 1170.11 940 c 2
 878.596 940 l 2
 841.301 940 819 962.301 819 999.596 c 2
 819 1311.5 l 2
 819 1344.35 838.645 1364 871.5 1364 c 2
 873.5 1364 l 2
 906.355 1364 926 1344.35 926 1311.5 c 2
 926 1145.89 l 2
 926 1098.4 954.397 1070 1001.89 1070 c 2
 1431.11 1070 l 2
 1478.6 1070 1507 1098.4 1507 1145.89 c 2
 1507 1247 l 2
 1507 1274 1506 1302 1504 1331 c 0
 1494 1456 1423 1524 1322 1568 c 0
 1210 1616 1069 1632 893 1632 c 0
 664 1632 458 1618 346 1511 c 0
 248 1417 234 1260 234 1065 c 2
 234 1000.6 l 2
 234 963.301 211.699 941 174.404 941 c 2
 151.887 941 l 2
 104.397 941 76 912.603 76 865.113 c 2
 76 794.887 l 2
 76 747.397 104.397 719 151.887 719 c 2
 174.404 719 l 2
 211.699 719 234 696.699 234 659.404 c 2
 234 376 l 2
 234 297.039 147.085 275.021 76.104 266.013 c 0
 76.052 266.007 75.9531 265.977 75.9062 265.953 c 2
 74.1056 265.053 l 2
 74.0528 265.026 74 264.941 74 264.882 c 2
 74 75.8873 l 2
EndSplineSet
EndChar

StartChar: t
Encoding: 116 116 397
Width: 968
VWidth: 0
Flags: HW
PickledData: "(dp1
S'com.typemytype.robofont.layerData'
p2
(dp3
s."
LayerCount: 2
Fore
SplineSet
764 1060 m 2
 764 1098 766 1100 804 1100 c 2
 847.113 1100 l 2
 894.603 1100 923 1128.4 923 1175.89 c 2
 923 1224.11 l 2
 923 1271.6 894.603 1300 847.113 1300 c 2
 804 1300 l 2
 766 1300 764 1302 764 1340 c 2
 764 1519.11 l 2
 764 1566.6 735.603 1595 688.113 1595 c 2
 268.887 1595 l 2
 221.397 1595 193 1566.6 193 1519.11 c 2
 193 1340 l 2
 193 1302 191 1300 153 1300 c 2
 123.5 1300 l 2
 81.2584 1300 56 1274.74 56 1232.5 c 2
 56 1167.5 l 2
 56 1125.26 81.2584 1100 123.5 1100 c 2
 153 1100 l 2
 191 1100 193 1098 193 1060 c 2
 193 75.8873 l 2
 193 28.397 221.397 0 268.887 0 c 2
 688.113 0 l 2
 735.603 0 764 28.397 764 75.8873 c 2
 764 1060 l 2
EndSplineSet
EndChar

StartChar: thorn
Encoding: 254 254 399
Width: 1430
VWidth: 0
Flags: HW
PickledData: "(dp1
S'com.typemytype.robofont.layerData'
p2
(dp3
s."
LayerCount: 2
Fore
SplineSet
675 1225 m 1
 675.5 1225 l 2
 698.646 1225 675 1201.35 675 1224.5 c 2
 675 1225 l 1
675 1526.11 m 2
 675 1573.6 646.603 1602 599.113 1602 c 2
 179.887 1602 l 2
 132.397 1602 104 1573.6 104 1526.11 c 2
 104 -333.113 l 2
 104 -380.603 132.397 -409 179.887 -409 c 2
 599.113 -409 l 2
 646.603 -409 675 -380.603 675 -333.113 c 2
 675 57.5451 l 2
 675 66.3514 681.912 68.7224 687.318 61.7703 c 0
 691.789 56.0194 696.395 50.1406 701 44 c 0
 746 -13 838 -24 948 -24 c 0
 1073 -24 1170 -2 1239 48 c 0
 1334 116 1362 229 1362 390 c 2
 1362 908 l 2
 1362 935 1361 964 1360 995 c 0
 1350 1231 1200 1323 948 1323 c 0
 820.114 1323 713.85 1307.28 675 1227.11 c 1
 675 1526.11 l 2
674 1013 m 2
 674 1048.04 694.955 1069 730 1069 c 2
 732 1069 l 2
 767.045 1069 788 1048.04 788 1013 c 2
 788 287 l 2
 788 251.955 767.045 231 732 231 c 2
 730 231 l 2
 694.955 231 674 251.955 674 287 c 2
 674 1013 l 2
EndSplineSet
EndChar

StartChar: three
Encoding: 51 51 400
Width: 1436
VWidth: 0
Flags: HW
PickledData: "(dp1
S'com.typemytype.robofont.layerData'
p2
(dp3
s."
LayerCount: 2
Fore
SplineSet
72 1108 m 0
 72 1093.92 72.2719 1079.57 72.8158 1064.94 c 0
 73.7592 1039.58 89.9287 1024 115.311 1024 c 2
 551.113 1024 l 2
 598.603 1024 627 1052.4 627 1099.89 c 2
 627 1301.4 l 2
 627 1338.7 649.301 1361 686.596 1361 c 2
 739.404 1361 l 2
 776.699 1361 799 1338.7 799 1301.4 c 2
 799 990.596 l 2
 799 953.301 776.699 931 739.404 931 c 2
 615.887 931 l 2
 568.397 931 540 902.603 540 855.113 c 2
 540 782.887 l 2
 540 735.397 568.397 707 615.887 707 c 2
 739.404 707 l 2
 776.699 707 799 684.699 799 647.404 c 2
 799 294.596 l 2
 799 257.301 776.699 235 739.404 235 c 2
 686.596 235 l 2
 649.301 235 627 257.301 627 294.596 c 2
 627 537.113 l 2
 627 584.603 598.603 613 551.113 613 c 2
 120.868 613 l 2
 92.0264 613 73.1209 594.85 71.9461 566.032 c 0
 71.2689 549.419 71 533.075 71 517 c 0
 71 142 270 -39 716 -39 c 0
 1111 -39 1366 79 1366 522 c 0
 1366 641.114 1316.8 738.198 1217.14 795.002 c 0
 1190.47 810.206 1190.27 830.774 1216.65 846.477 c 0
 1307.08 900.32 1364 988.161 1364 1113 c 0
 1364 1506 1147 1632 714 1632 c 0
 293 1632 72 1503 72 1108 c 0
EndSplineSet
EndChar

StartChar: threequarters
Encoding: 190 190 401
Width: 2894
VWidth: 0
Flags: HW
PickledData: "(dp1
S'com.typemytype.robofont.layerData'
p2
(dp3
s."
LayerCount: 2
Fore
SplineSet
2828 684.113 m 2
 2828 731.603 2799.6 760 2752.11 760 c 2
 2544.89 760 l 2
 2497.4 760 2469 731.603 2469 684.113 c 2
 2469 594.596 l 2
 2469 557.301 2446.7 535 2409.4 535 c 2
 2356 535 l 2
 2345.4 535 2339 541.398 2339 552 c 2
 2339 554 l 2
 2339 564.112 2340.86 577.631 2343.6 587.365 c 2
 2487.46 1098.95 l 2
 2499.46 1141.62 2476.45 1172 2432.11 1172 c 2
 2198.89 1172 l 2
 2149.24 1172 2115.86 1146.73 2102.34 1098.95 c 2
 1973.66 644.022 l 2
 1961.36 600.56 1953 540.28 1953 495.113 c 2
 1953 366.887 l 2
 1953 319.397 1981.4 291 2028.89 291 c 2
 2409.4 291 l 2
 2446.7 291 2469 268.699 2469 231.404 c 2
 2469 205.887 l 2
 2469 158.397 2497.4 130 2544.89 130 c 2
 2752.11 130 l 2
 2799.6 130 2828 158.397 2828 205.887 c 2
 2828 684.113 l 2
565 1499 m 0
 285 1499 139 1416 139 1153 c 0
 139 1143.54 139.27 1134.09 139.822 1124.48 c 0
 140.76 1108.16 151.532 1098 167.878 1098 c 2
 432.113 1098 l 2
 479.603 1098 508 1126.4 508 1173.89 c 2
 508 1265.5 l 2
 508 1300.23 528.768 1321 563.5 1321 c 2
 565.5 1321 l 2
 600.232 1321 621 1300.23 621 1265.5 c 2
 621 1096.6 l 2
 621 1059.3 598.699 1037 561.404 1037 c 2
 523 1037 l 2
 477.317 1037 450 1009.68 450 964 c 2
 450 962 l 2
 450 916.317 477.317 889 523 889 c 2
 561.404 889 l 2
 598.699 889 621 866.699 621 829.404 c 2
 621 631.5 l 2
 621 596.768 600.232 576 565.5 576 c 2
 563.5 576 l 2
 528.768 576 508 596.768 508 631.5 c 2
 508 750.113 l 2
 508 797.603 479.603 826 432.113 826 c 2
 170.832 826 l 2
 152.636 826 140.76 814.721 139.822 796.55 c 0
 139.274 785.938 139 775.469 139 765 c 0
 139 515 270 394 566 394 c 0
 862 394 997 487 997 733 c 0
 997 818.614 968.093 890.403 909.283 934.419 c 0
 881.892 954.919 881.921 972.52 909.343 992.9 c 0
 962.327 1032.28 995 1091.76 995 1175 c 0
 995 1422 835 1499 565 1499 c 0
1479.11 0 m 2
 1528.39 0 1560.72 25.9792 1571.31 74.1042 c 2
 1889.69 1520.89 l 2
 1899.38 1564.91 1875.19 1595 1830.11 1595 c 2
 1547.89 1595 l 2
 1498.61 1595 1466.27 1569.01 1455.65 1520.89 c 2
 1136.35 74.1042 l 2
 1126.64 30.0905 1150.81 0 1195.89 0 c 2
 1479.11 0 l 2
EndSplineSet
EndChar

StartChar: tilde
Encoding: 732 732 402
Width: 1422
VWidth: 0
Flags: HW
PickledData: "(dp1
S'com.typemytype.robofont.layerData'
p2
(dp3
s."
LayerCount: 2
Fore
SplineSet
1284.16 96 m 2
 1330.76 96 1359.31 125.297 1358.11 171.884 c 0
 1350.32 473.191 1285.97 646 953 646 c 0
 784 646 691 573 595 503 c 0
 565 481 531 453 487 453 c 0
 427.245 453 396.457 492.588 383.231 545.599 c 0
 369.203 601.823 344.653 621 286.706 621 c 2
 152.856 621 l 2
 107.153 621 78.4903 590.781 80.905 545.141 c 0
 84.4163 478.778 92.7812 422.266 106 376 c 1
 151 176 250 70 486 70 c 0
 661 70 759 136 853 211 c 0
 881 233 912 260 956 260 c 0
 1037.84 260 1065.89 178.32 1066 96.4805 c 0
 1066 96.2402 1284.16 96 1284.16 96 c 2
EndSplineSet
EndChar

StartChar: trademark
Encoding: 8482 8482 403
Width: 1884
VWidth: 0
Flags: HW
PickledData: "(dp1
S'com.typemytype.robofont.layerData'
p2
(dp3
s."
LayerCount: 2
Fore
SplineSet
117 1595 m 2
 73.1939 1595 47 1568.81 47 1525 c 2
 47 1523 l 2
 47 1479.19 73.1939 1453 117 1453 c 2
 149.404 1453 l 2
 186.699 1453 209 1430.7 209 1393.4 c 2
 209 732.887 l 2
 209 685.397 237.397 657 284.887 657 c 2
 506.113 657 l 2
 553.603 657 582 685.397 582 732.887 c 2
 582 1393.4 l 2
 582 1430.7 604.301 1453 641.596 1453 c 2
 675 1453 l 2
 718.806 1453 745 1479.19 745 1523 c 2
 745 1525 l 2
 745 1568.81 718.806 1595 675 1595 c 2
 117 1595 l 2
1291 657 m 2
 1324.32 657 1346.59 674.079 1355.23 706.253 c 2
 1405.53 893.446 l 2
 1409.81 909.364 1421 907.887 1421 891.404 c 2
 1421 732.887 l 2
 1421 685.397 1449.4 657 1496.89 657 c 2
 1715.11 657 l 2
 1762.6 657 1791 685.397 1791 732.887 c 2
 1791 1519.11 l 2
 1791 1566.6 1762.6 1595 1715.11 1595 c 2
 1426.89 1595 l 2
 1378.2 1595 1347.3 1568.05 1340.68 1519.82 c 2
 1299.11 1217.04 l 2
 1296.76 1199.95 1284.49 1199.84 1281.84 1216.89 c 2
 1234.67 1520.02 l 2
 1227.16 1568.26 1195.94 1595 1147.11 1595 c 2
 864.887 1595 l 2
 817.397 1595 789 1566.6 789 1519.11 c 2
 789 732.887 l 2
 789 685.397 817.397 657 864.887 657 c 2
 1084.11 657 l 2
 1131.6 657 1160 685.397 1160 732.887 c 2
 1160 891.404 l 2
 1160 907.8 1171.08 909.245 1175.28 893.397 c 2
 1224.92 706.295 l 2
 1233.46 674.106 1255.7 657 1289 657 c 2
 1291 657 l 2
EndSplineSet
EndChar

StartChar: two
Encoding: 50 50 404
Width: 1403
VWidth: 0
Flags: HW
PickledData: "(dp1
S'com.typemytype.robofont.layerData'
p2
(dp3
s."
LayerCount: 2
Fore
SplineSet
554.113 1064 m 2
 601.603 1064 630 1092.4 630 1139.89 c 2
 630 1298.4 l 2
 630 1335.7 652.301 1358 689.596 1358 c 2
 722.404 1358 l 2
 759.699 1358 782 1335.7 782 1298.4 c 2
 782 1086 l 2
 782 989 667 936 573 890 c 1
 289 758 78 599 78 201 c 2
 78 76.8873 l 2
 78 29.397 106.397 1 153.887 1 c 2
 1201.11 1 l 2
 1248.6 1 1277 29.397 1277 76.8873 c 2
 1277 225.113 l 2
 1277 272.603 1248.6 301 1201.11 301 c 2
 681.409 301 l 2
 651.624 301 630.07 331.677 640.167 359.698 c 0
 671.581 446.881 770.271 502.791 858 545 c 0
 1076 650 1349 776 1349 1125 c 0
 1349 1500 1139 1633 718 1633 c 0
 347 1633 76 1536 76 1124 c 0
 76 1114.12 76.3012 1103.94 76.7383 1092.96 c 0
 77.4643 1074.73 88.6316 1064 106.878 1064 c 2
 554.113 1064 l 2
EndSplineSet
EndChar

StartChar: u
Encoding: 117 117 405
Width: 1577
VWidth: 0
Flags: HW
PickledData: "(dp1
S'com.typemytype.robofont.layerData'
p2
(dp3
s."
LayerCount: 2
Fore
SplineSet
850 68 m 0
 860 77 870 82 878 82 c 0
 891 82 902 71 908 52 c 1
 908 54 l 1
 920 18 946 -1 984 -1 c 2
 1360 -1 l 2
 1408 -1 1429 16 1436 75 c 1
 1446 253 1451 437 1451 627 c 0
 1451 818 1446 1015 1436 1223 c 1
 1429 1271 1408 1299 1360 1299 c 2
 941 1299 l 2
 893 1299 865 1271 865 1223 c 2
 865 300 l 2
 865 262 843 240 805 240 c 2
 758 240 l 2
 720 240 698 262 698 300 c 2
 698 1223 l 2
 698 1271 670 1299 622 1299 c 2
 203 1299 l 2
 155 1299 130 1271 127 1223 c 0
 118 1085 114 929 114 783 c 0
 114 615 119 458 127 355 c 0
 147 104 245 -27 518 -28 c 0
 641 -28 781 9 850 68 c 0
EndSplineSet
EndChar

StartChar: underscore
Encoding: 95 95 413
Width: 1042
VWidth: 0
Flags: HW
PickledData: "(dp1
S'com.typemytype.robofont.layerData'
p2
(dp3
s."
LayerCount: 2
Fore
SplineSet
153.887 1 m 2
 106.397 1 78 -27.397 78 -74.8873 c 2
 78 -359.113 l 2
 78 -406.603 106.397 -435 153.887 -435 c 2
 891.113 -435 l 2
 938.603 -435 967 -406.603 967 -359.113 c 2
 967 -74.8873 l 2
 967 -27.397 938.603 1 891.113 1 c 2
 153.887 1 l 2
EndSplineSet
EndChar

StartChar: uni00AD
Encoding: 173 173 416
Width: 1005
VWidth: 0
Flags: HW
PickledData: "(dp1
S'com.typemytype.robofont.layerData'
p2
(dp3
s."
LayerCount: 2
Fore
SplineSet
162.887 897 m 2
 115.397 897 87 868.603 87 821.113 c 2
 87 636.887 l 2
 87 589.397 115.397 561 162.887 561 c 2
 844.113 561 l 2
 891.603 561 920 589.397 920 636.887 c 2
 920 821.113 l 2
 920 868.603 891.603 897 844.113 897 c 2
 162.887 897 l 2
EndSplineSet
EndChar

StartChar: uni00B2
Encoding: 178 178 417
Width: 1090
VWidth: 0
Flags: HW
PickledData: "(dp1
S'com.typemytype.robofont.layerData'
p2
(dp3
s."
LayerCount: 2
Fore
SplineSet
477.113 836 m 2
 524.603 836 553 864.397 553 911.887 c 2
 553 981 l 2
 553 1011.66 571.336 1030 602 1030 c 2
 604 1030 l 2
 634.664 1030 653 1011.66 653 981 c 2
 653 877 l 2
 653 823 579 793 517 768 c 0
 323 690 189 575 189 313 c 2
 189 209.887 l 2
 189 162.397 217.397 134 264.887 134 c 2
 910.113 134 l 2
 957.603 134 986 162.397 986 209.887 c 2
 986 256.113 l 2
 986 303.603 957.603 332 910.113 332 c 2
 600.75 332 l 2
 575.233 332 557.03 367.853 572.088 388.453 c 0
 599.995 426.63 653.952 452.279 703 474 c 0
 868 548 1026 634 1026 876 c 0
 1026 1142 872 1209 610 1209 c 0
 367 1209 188 1148 188 878 c 0
 188 870.672 188.274 863.344 188.535 856.016 c 0
 188.994 843.15 196.403 836 209.254 836 c 2
 477.113 836 l 2
EndSplineSet
EndChar

StartChar: uni00B3
Encoding: 179 179 418
Width: 1101
VWidth: 0
Flags: HW
PickledData: "(dp1
S'com.typemytype.robofont.layerData'
p2
(dp3
s."
LayerCount: 2
Fore
SplineSet
606 1205 m 0
 326 1205 180 1122 180 859 c 0
 180 849.543 180.27 840.086 180.822 830.484 c 0
 181.76 814.164 192.532 804 208.878 804 c 2
 473.113 804 l 2
 520.603 804 549 832.397 549 879.887 c 2
 549 971.5 l 2
 549 1006.23 569.768 1027 604.5 1027 c 2
 606.5 1027 l 2
 641.232 1027 662 1006.23 662 971.5 c 2
 662 802.596 l 2
 662 765.301 639.699 743 602.404 743 c 2
 564 743 l 2
 518.317 743 491 715.683 491 670 c 2
 491 668 l 2
 491 622.317 518.317 595 564 595 c 2
 602.404 595 l 2
 639.699 595 662 572.699 662 535.404 c 2
 662 337.5 l 2
 662 302.768 641.232 282 606.5 282 c 2
 604.5 282 l 2
 569.768 282 549 302.768 549 337.5 c 2
 549 456.113 l 2
 549 503.603 520.603 532 473.113 532 c 2
 211.832 532 l 2
 193.636 532 181.76 520.721 180.822 502.55 c 0
 180.274 491.938 180 481.469 180 471 c 0
 180 221 311 100 607 100 c 0
 903 100 1038 193 1038 439 c 0
 1038 524.614 1009.09 596.403 950.283 640.419 c 0
 922.892 660.919 922.921 678.52 950.343 698.9 c 0
 1003.33 738.28 1036 797.759 1036 881 c 0
 1036 1128 876 1205 606 1205 c 0
EndSplineSet
EndChar

StartChar: uni00B9
Encoding: 185 185 419
Width: 731
VWidth: 0
Flags: HW
PickledData: "(dp1
S'com.typemytype.robofont.layerData'
p2
(dp3
s."
LayerCount: 2
Fore
SplineSet
115 1042 m 2
 115 997.568 141.568 971 186 971 c 2
 199.404 971 l 2
 236.699 971 259 948.699 259 911.404 c 2
 259 205.887 l 2
 259 158.397 287.397 130 334.887 130 c 2
 578.113 130 l 2
 625.603 130 654 158.397 654 205.887 c 2
 654 1094.11 l 2
 654 1141.6 625.603 1170 578.113 1170 c 2
 468.485 1170 l 2
 387.96 1170 349.438 1163.8 272.975 1138.55 c 0
 246.268 1129.73 217.015 1123.24 185.885 1119.33 c 0
 136.059 1113.07 115 1089.2 115 1043 c 2
 115 1042 l 2
EndSplineSet
EndChar

StartChar: uni01C4
Encoding: 452 452 420
Width: 2693
VWidth: 0
Flags: HW
PickledData: "(dp1
S'com.typemytype.robofont.layerData'
p2
(dp3
s."
LayerCount: 2
Fore
SplineSet
2130 1733 m 0
 2183 1733 2238 1754 2271 1805 c 2
 2534 2214 l 2
 2546 2233 2552 2251 2552 2267 c 0
 2552 2304 2524 2330 2489 2330 c 0
 2471 2330 2451 2323 2432 2308 c 2
 2176.09 2109.52 l 2
 2145.37 2085.7 2112.63 2085.7 2081.91 2109.52 c 2
 1826 2308 l 2
 1808 2322 1789 2328 1772 2328 c 0
 1736 2328 1706 2303 1706 2266 c 0
 1706 2251 1712 2233 1724 2214 c 2
 1987 1805 l 2
 2018 1757 2075 1733 2130 1733 c 0
1698.89 1595 m 2
 1651.4 1595 1623 1566.6 1623 1519.11 c 2
 1623 1379.89 l 2
 1623 1332.4 1651.4 1304 1698.89 1304 c 2
 1935.4 1304 l 2
 1970.09 1304 1987.96 1280.11 1978.17 1246.83 c 2
 1632.44 72.7966 l 2
 1619.96 30.4263 1642.72 0 1686.89 0 c 2
 2561.11 0 l 2
 2608.6 0 2637 28.397 2637 75.8873 c 2
 2637 218.113 l 2
 2637 265.603 2608.6 294 2561.11 294 c 2
 2359.6 294 l 2
 2324.64 294 2306.35 317.807 2315.36 351.583 c 2
 2627.44 1521.68 l 2
 2638.91 1564.69 2615.63 1595 2571.11 1595 c 2
 1698.89 1595 l 2
708 1298.4 m 2
 708 1335.7 730.301 1358 767.596 1358 c 2
 821.404 1358 l 2
 858.699 1358 881 1335.7 881 1298.4 c 2
 881 294.596 l 2
 881 257.301 858.699 235 821.404 235 c 2
 767.596 235 l 2
 730.301 235 708 257.301 708 294.596 c 2
 708 1298.4 l 2
859 1595 m 2
 178.887 1595 l 2
 131.397 1595 103 1566.6 103 1519.11 c 2
 103 75.8873 l 2
 103 28.397 131.397 0 178.887 0 c 2
 859 0 l 2
 1170 0 1485 26 1485 393 c 2
 1485 1204 l 2
 1485 1559 1175 1595 859 1595 c 2
EndSplineSet
EndChar

StartChar: uni021A
Encoding: 538 538 458
Width: 1324
VWidth: 0
Flags: HW
PickledData: "(dp1
S'com.typemytype.robofont.layerData'
p2
(dp3
s."
LayerCount: 2
Fore
SplineSet
83.8873 1595 m 2
 36.397 1595 8 1566.6 8 1519.11 c 2
 8 1401.89 l 2
 8 1354.4 36.397 1326 83.8873 1326 c 2
 301.404 1326 l 2
 338.699 1326 361 1303.7 361 1266.4 c 2
 361 75.8873 l 2
 361 28.397 389.397 0 436.887 0 c 2
 600.712 0 l 1
 584.769 -13.0017 576 -33.4963 576 -59.8873 c 2
 576 -88.1127 l 2
 576 -135.603 604.397 -164 651.887 -164 c 2
 706.404 -164 l 2
 743.699 -164 766 -186.301 766 -223.596 c 2
 766 -324.5 l 2
 766 -343.587 754.587 -355 735.5 -355 c 2
 733.5 -355 l 2
 714.413 -355 703 -343.587 703 -324.5 c 2
 703 -288 l 2
 703 -248.427 677.764 -226.113 638.489 -230.957 c 2
 502.797 -247.695 l 2
 485.643 -249.811 476 -260.716 476 -278 c 2
 476 -307 l 2
 476 -441 581 -465 730 -465 c 0
 870 -465 983 -444 983 -307 c 2
 983 -212 l 2
 983 -95.604 907.402 -59.846 786.999 -54.6862 c 0
 765.032 -53.7448 753 -41.186 753 -19.2292 c 2
 753 -18 l 2
 753 -11.0345 751.636 -4.98571 749.056 0 c 1
 889.113 0 l 2
 936.603 0 965 28.397 965 75.8873 c 2
 965 1266.4 l 2
 965 1303.7 987.301 1326 1024.6 1326 c 2
 1245.11 1326 l 2
 1292.6 1326 1321 1354.4 1321 1401.89 c 2
 1321 1519.11 l 2
 1321 1566.6 1292.6 1595 1245.11 1595 c 2
 83.8873 1595 l 2
EndSplineSet
EndChar

